<svg width="20" height="20" viewBox="0 0 20 20" fill="none" xmlns="http://www.w3.org/2000/svg">
<g id="Outline / Essentional, UI / Add Circle">
<g id="Vector">
<path d="M10.6253 7.50033C10.6253 7.15515 10.3455 6.87533 10.0003 6.87533C9.65515 6.87533 9.37533 7.15515 9.37533 7.50033L9.37533 9.37535H7.50033C7.15515 9.37535 6.87533 9.65517 6.87533 10.0003C6.87533 10.3455 7.15515 10.6253 7.50033 10.6253H9.37533V12.5003C9.37533 12.8455 9.65515 13.1253 10.0003 13.1253C10.3455 13.1253 10.6253 12.8455 10.6253 12.5003L10.6253 10.6253H12.5003C12.8455 10.6253 13.1253 10.3455 13.1253 10.0003C13.1253 9.65517 12.8455 9.37535 12.5003 9.37535H10.6253V7.50033Z" fill="white"/>
<path fill-rule="evenodd" clip-rule="evenodd" d="M10.0003 1.04199C5.05277 1.04199 1.04199 5.05277 1.04199 10.0003C1.04199 14.9479 5.05277 18.9587 10.0003 18.9587C14.9479 18.9587 18.9587 14.9479 18.9587 10.0003C18.9587 5.05277 14.9479 1.04199 10.0003 1.04199ZM2.29199 10.0003C2.29199 5.74313 5.74313 2.29199 10.0003 2.29199C14.2575 2.29199 17.7087 5.74313 17.7087 10.0003C17.7087 14.2575 14.2575 17.7087 10.0003 17.7087C5.74313 17.7087 2.29199 14.2575 2.29199 10.0003Z" fill="white"/>
</g>
</g>
</svg>
