<svg width="20" height="20" viewBox="0 0 20 20" fill="none" xmlns="http://www.w3.org/2000/svg">
<g id="Outline / Essentional, UI / Add Circle">
<g id="Vector">
<path d="M10.6248 7.50033C10.6248 7.15515 10.345 6.87533 9.99984 6.87533C9.65466 6.87533 9.37484 7.15515 9.37484 7.50033L9.37484 9.37535H7.49984C7.15466 9.37535 6.87484 9.65517 6.87484 10.0003C6.87484 10.3455 7.15466 10.6253 7.49984 10.6253H9.37484V12.5003C9.37484 12.8455 9.65466 13.1253 9.99984 13.1253C10.345 13.1253 10.6248 12.8455 10.6248 12.5003L10.6248 10.6253H12.4998C12.845 10.6253 13.1248 10.3455 13.1248 10.0003C13.1248 9.65517 12.845 9.37535 12.4998 9.37535H10.6248V7.50033Z" fill="white"/>
<path fill-rule="evenodd" clip-rule="evenodd" d="M9.99984 1.04199C5.05229 1.04199 1.0415 5.05277 1.0415 10.0003C1.0415 14.9479 5.05229 18.9587 9.99984 18.9587C14.9474 18.9587 18.9582 14.9479 18.9582 10.0003C18.9582 5.05277 14.9474 1.04199 9.99984 1.04199ZM2.2915 10.0003C2.2915 5.74313 5.74264 2.29199 9.99984 2.29199C14.257 2.29199 17.7082 5.74313 17.7082 10.0003C17.7082 14.2575 14.257 17.7087 9.99984 17.7087C5.74264 17.7087 2.2915 14.2575 2.2915 10.0003Z" fill="white"/>
</g>
</g>
</svg>
