<svg width="16" height="16" viewBox="0 0 16 16" fill="none" xmlns="http://www.w3.org/2000/svg">
<g id="Outline / Essentional, UI / Add Circle" clip-path="url(#clip0_5894_18173)">
<g id="Vector">
<path d="M8.50016 5.99967C8.50016 5.72353 8.27631 5.49967 8.00016 5.49967C7.72402 5.49967 7.50016 5.72353 7.50016 5.99967L7.50016 7.49969H6.00016C5.72402 7.49969 5.50016 7.72355 5.50016 7.99969C5.50016 8.27583 5.72402 8.49969 6.00016 8.49969H7.50016V9.99967C7.50016 10.2758 7.72402 10.4997 8.00016 10.4997C8.27631 10.4997 8.50016 10.2758 8.50016 9.99967L8.50016 8.49969H10.0002C10.2763 8.49969 10.5002 8.27583 10.5002 7.99969C10.5002 7.72355 10.2763 7.49969 10.0002 7.49969H8.50016V5.99967Z" fill="#242424"/>
<path fill-rule="evenodd" clip-rule="evenodd" d="M8.00016 0.833008C4.04212 0.833008 0.833496 4.04163 0.833496 7.99967C0.833496 11.9577 4.04212 15.1663 8.00016 15.1663C11.9582 15.1663 15.1668 11.9577 15.1668 7.99967C15.1668 4.04163 11.9582 0.833008 8.00016 0.833008ZM1.8335 7.99967C1.8335 4.59392 4.59441 1.83301 8.00016 1.83301C11.4059 1.83301 14.1668 4.59392 14.1668 7.99967C14.1668 11.4054 11.4059 14.1663 8.00016 14.1663C4.59441 14.1663 1.8335 11.4054 1.8335 7.99967Z" fill="#242424"/>
</g>
</g>
<defs>
<clipPath id="clip0_5894_18173">
<rect width="16" height="16" fill="white"/>
</clipPath>
</defs>
</svg>
