<svg width="135" height="40" viewBox="0 0 135 40" fill="none" xmlns="http://www.w3.org/2000/svg">
<g id="Group">
<g id="Group_2">
<g id="Group_3">
<path id="Vector" d="M124.249 7.92969e-06H10.7566C10.3429 7.92969e-06 9.9342 7.92975e-06 9.5216 0.00200793C9.17621 0.00400793 8.83358 0.00981793 8.48488 0.0147079C7.72733 0.0226097 6.97157 0.0816842 6.22416 0.191418C5.4778 0.303541 4.75482 0.514924 4.07967 0.818418C3.40534 1.12448 2.7892 1.52218 2.25358 1.99708C1.71514 2.47064 1.26632 3.01802 0.924356 3.61817C0.581453 4.21712 0.343683 4.85895 0.219258 5.52149C0.0936495 6.18319 0.0260586 6.85253 0.0170916 7.52349C0.00662229 7.83009 0.00551669 8.13771 0 8.44435V31.5586C0.00551669 31.8691 0.00662229 32.1699 0.0170916 32.4805C0.0260614 33.1514 0.0936522 33.8207 0.219258 34.4824C0.343339 35.1453 0.581124 35.7875 0.924356 36.3867C1.26616 36.9849 1.71505 37.5301 2.25358 38.001C2.78717 38.478 3.40371 38.876 4.07967 39.1797C4.75481 39.484 5.47772 39.6967 6.22416 39.8105C6.9717 39.9194 7.72738 39.9785 8.48488 39.9873C8.83358 39.9941 9.17621 39.998 9.5216 39.998C9.93419 40 10.343 40 10.7566 40H124.249C124.655 40 125.067 40 125.472 39.998C125.816 39.998 126.169 39.9941 126.512 39.9873C127.268 39.9789 128.023 39.9198 128.769 39.8105C129.518 39.6959 130.243 39.4833 130.921 39.1797C131.597 38.8758 132.213 38.4779 132.746 38.001C133.283 37.5282 133.733 36.9835 134.079 36.3867C134.42 35.7871 134.655 35.145 134.777 34.4824C134.903 33.8206 134.973 33.1515 134.987 32.4805C134.991 32.1699 134.991 31.8691 134.991 31.5586C135 31.1953 135 30.834 135 30.4648V9.53614C135 9.16993 135 8.80665 134.991 8.44435C134.991 8.13771 134.991 7.83009 134.987 7.52345C134.973 6.85243 134.903 6.18324 134.777 5.52145C134.655 4.85929 134.419 4.21751 134.079 3.61813C133.383 2.4152 132.278 1.43603 130.921 0.818328C130.243 0.515575 129.518 0.304248 128.769 0.191328C128.023 0.0811107 127.269 0.0220157 126.512 0.0145679C126.169 0.00968793 125.816 0.00382793 125.472 0.00187793C125.067 -0.00012207 124.655 -0.00012207 124.249 -0.00012207V7.92969e-06Z" fill="#A6A6A6"/>
<path id="Vector_2" d="M9.52707 39.125C9.18335 39.125 8.84792 39.1211 8.50689 39.1143C7.80042 39.1061 7.0956 39.0516 6.39821 38.9512C5.74792 38.8519 5.11798 38.6673 4.52914 38.4033C3.94571 38.1415 3.41356 37.7983 2.9531 37.3867C2.48598 36.98 2.09708 36.5082 1.80181 35.9902C1.50328 35.4688 1.29669 34.9099 1.18922 34.333C1.07316 33.7131 1.01036 33.0863 1.00138 32.458C0.994227 32.2471 0.984863 31.5449 0.984863 31.5449V8.44434C0.984863 8.44434 0.994836 7.75293 1.00144 7.5498C1.01004 6.92248 1.07247 6.29665 1.18818 5.67773C1.29585 5.09925 1.50261 4.53875 1.80129 4.01563C2.09547 3.49794 2.48222 3.02586 2.94653 2.61768C3.41032 2.20562 3.94416 1.8606 4.52859 1.59521C5.11607 1.33209 5.74483 1.14873 6.3938 1.05127C7.09348 0.949836 7.80075 0.894996 8.50967 0.88721L9.52763 0.875H125.467L126.497 0.8877C127.199 0.895099 127.9 0.94945 128.593 1.05029C129.249 1.14898 129.884 1.33362 130.479 1.59814C131.649 2.13299 132.602 2.97916 133.203 4.01807C133.497 4.53758 133.701 5.09351 133.807 5.66699C133.924 6.29099 133.989 6.92174 134.003 7.5542C134.006 7.8374 134.006 8.1416 134.006 8.44434C134.015 8.81934 134.015 9.17627 134.015 9.53613V30.4648C134.015 30.8281 134.015 31.1826 134.006 31.54C134.006 31.8652 134.006 32.1631 134.002 32.4697C133.989 33.0909 133.924 33.7104 133.809 34.3232C133.704 34.9043 133.498 35.4675 133.2 35.9932C132.902 36.5056 132.516 36.9733 132.054 37.3789C131.593 37.7927 131.06 38.1379 130.475 38.4014C129.883 38.6674 129.248 38.8527 128.593 38.9512C127.896 39.0522 127.191 39.1067 126.485 39.1143C126.154 39.1211 125.808 39.125 125.472 39.125L124.249 39.127L9.52707 39.125Z" fill="black"/>
</g>
<g id="&#60;Group&#62;">
<g id="&#60;Group&#62;_2">
<g id="&#60;Group&#62;_3">
<path id="&#60;Path&#62;" d="M27.9432 20.3007C27.9554 19.466 28.2055 18.6477 28.6703 17.9217C29.1351 17.1957 29.7996 16.5858 30.6018 16.1486C30.0922 15.5035 29.4198 14.9725 28.6382 14.598C27.8566 14.2234 26.9872 14.0156 26.0991 13.991C24.2047 13.8147 22.3681 14.9958 21.4027 14.9958C20.4187 14.9958 18.9323 14.0085 17.3318 14.0376C16.2965 14.0673 15.2875 14.3341 14.4032 14.8122C13.5188 15.2903 12.7893 15.9632 12.2856 16.7655C10.1037 20.1139 11.7312 25.035 13.8213 27.7416C14.8669 29.0669 16.0891 30.5474 17.6882 30.4949C19.253 30.4374 19.8374 29.6104 21.7263 29.6104C23.5976 29.6104 24.146 30.4949 25.7775 30.4615C27.4566 30.4374 28.5146 29.1303 29.5236 27.7924C30.2749 26.848 30.853 25.8043 31.2366 24.6999C30.2611 24.3341 29.4286 23.722 28.8429 22.9397C28.2573 22.1574 27.9444 21.2396 27.9432 20.3007Z" fill="white"/>
<path id="&#60;Path&#62;_2" d="M24.8614 12.2109C25.7769 11.2367 26.2279 9.98451 26.1187 8.72028C24.72 8.8505 23.428 9.44306 22.5001 10.3799C22.0464 10.8376 21.6989 11.37 21.4775 11.9468C21.2561 12.5235 21.1651 13.1333 21.2098 13.7413C21.9094 13.7477 22.6015 13.6132 23.234 13.3482C23.8665 13.0831 24.423 12.6942 24.8614 12.2109Z" fill="white"/>
</g>
</g>
<g id="Group_4">
<path id="Vector_3" d="M47.7236 27.1396H42.3836L41.1012 30.4961H38.8394L43.8973 18.0781H46.2473L51.3053 30.4961H49.0049L47.7236 27.1396ZM42.9366 25.5908H47.1695L45.0828 20.1435H45.0244L42.9366 25.5908Z" fill="white"/>
<path id="Vector_4" d="M62.2288 25.9697C62.2288 28.7832 60.5299 30.5908 57.9662 30.5908C57.3168 30.6209 56.6709 30.4883 56.1025 30.2082C55.5342 29.928 55.0663 29.5117 54.7525 29.0068H54.704V33.4912H52.6074V21.4424H54.6368V22.9482H54.6754C55.0036 22.4458 55.4794 22.0316 56.0521 21.7497C56.6248 21.4679 57.273 21.3289 57.9276 21.3476C60.5199 21.3477 62.2288 23.1641 62.2288 25.9697ZM60.0738 25.9697C60.0738 24.1367 59.0051 22.9316 57.3746 22.9316C55.7727 22.9316 54.6952 24.1621 54.6952 25.9697C54.6952 27.7939 55.7727 29.0156 57.3746 29.0156C59.0051 29.0156 60.0738 27.8193 60.0738 25.9697Z" fill="white"/>
<path id="Vector_5" d="M73.4709 25.9697C73.4709 28.7832 71.7721 30.5908 69.2084 30.5908C68.559 30.6209 67.9131 30.4883 67.3447 30.2082C66.7764 29.928 66.3085 29.5117 65.9947 29.0068H65.9462V33.4912H63.8496V21.4424H65.879V22.9482H65.9175C66.2458 22.4458 66.7215 22.0316 67.2942 21.7497C67.8669 21.4679 68.5151 21.3289 69.1698 21.3476C71.7622 21.3476 73.4709 23.164 73.4709 25.9697ZM71.316 25.9697C71.316 24.1367 70.2473 22.9316 68.6168 22.9316C67.0149 22.9316 65.9374 24.1621 65.9374 25.9697C65.9374 27.7939 67.0149 29.0156 68.6168 29.0156C70.2473 29.0156 71.316 27.8193 71.316 25.9697H71.316Z" fill="white"/>
<path id="Vector_6" d="M80.9006 27.0361C81.0559 28.2676 82.4055 29.0761 84.2498 29.0761C86.017 29.0761 87.2883 28.2675 87.2883 27.1572C87.2883 26.1933 86.5215 25.6162 84.7059 25.2207L82.8903 24.833C80.3178 24.2822 79.1235 23.2158 79.1235 21.4853C79.1235 19.3427 81.23 17.871 84.2212 17.871C87.1814 17.871 89.2108 19.3427 89.2791 21.4853H87.1627C87.036 20.246 85.8803 19.498 84.1914 19.498C82.5024 19.498 81.3467 20.2548 81.3467 21.3564C81.3467 22.2343 82.0849 22.7509 83.8906 23.1464L85.4341 23.4823C88.3085 24.0849 89.5028 25.1083 89.5028 26.9247C89.5028 29.248 87.415 30.703 84.0944 30.703C80.9876 30.703 78.8899 29.2821 78.7544 27.036L80.9006 27.0361Z" fill="white"/>
<path id="Vector_7" d="M94.0276 19.2998V21.4424H95.97V22.9141H94.0276V27.9053C94.0276 28.6807 94.4165 29.042 95.2704 29.042C95.501 29.0384 95.7312 29.0241 95.96 28.999V30.4619C95.5762 30.5255 95.186 30.5543 94.7955 30.5478C92.7276 30.5478 91.9211 29.8593 91.9211 28.1035V22.9141H90.436V21.4424H91.9211V19.2998H94.0276Z" fill="white"/>
<path id="Vector_8" d="M97.0947 25.9697C97.0947 23.1211 98.9875 21.3311 101.939 21.3311C104.9 21.3311 106.784 23.1211 106.784 25.9697C106.784 28.8262 104.91 30.6084 101.939 30.6084C98.9687 30.6084 97.0947 28.8262 97.0947 25.9697ZM104.648 25.9697C104.648 24.0156 103.638 22.8623 101.939 22.8623C100.24 22.8623 99.2309 24.0244 99.2309 25.9697C99.2309 27.9316 100.24 29.0762 101.939 29.0762C103.638 29.0762 104.648 27.9316 104.648 25.9697H104.648Z" fill="white"/>
<path id="Vector_9" d="M108.513 21.4424H110.513V22.9834H110.561C110.697 22.5021 111.015 22.0768 111.462 21.7789C111.91 21.481 112.459 21.3287 113.018 21.3476C113.26 21.3469 113.501 21.3702 113.736 21.417V23.1553C113.431 23.0726 113.113 23.0347 112.794 23.043C112.49 23.032 112.186 23.0796 111.904 23.1825C111.623 23.2854 111.369 23.4411 111.162 23.639C110.954 23.8369 110.797 24.0723 110.702 24.3289C110.607 24.5856 110.575 24.8575 110.61 25.126V30.4961H108.513L108.513 21.4424Z" fill="white"/>
<path id="Vector_10" d="M123.403 27.8369C123.121 29.4805 121.315 30.6084 119.005 30.6084C116.033 30.6084 114.189 28.8437 114.189 26.0127C114.189 23.1729 116.043 21.3311 118.916 21.3311C121.742 21.3311 123.519 23.0518 123.519 25.7969V26.4336H116.305V26.5459C116.272 26.8791 116.319 27.2148 116.443 27.5306C116.568 27.8464 116.766 28.1352 117.026 28.3778C117.286 28.6203 117.601 28.8111 117.951 28.9374C118.3 29.0637 118.676 29.1226 119.053 29.1103C119.548 29.1515 120.046 29.0498 120.471 28.8203C120.896 28.5909 121.226 28.246 121.412 27.8369L123.403 27.8369ZM116.315 25.1348H121.422C121.441 24.8352 121.389 24.5354 121.271 24.2541C121.153 23.9729 120.971 23.7164 120.735 23.5006C120.5 23.2849 120.217 23.1145 119.904 23.0003C119.591 22.8861 119.255 22.8305 118.916 22.8369C118.575 22.8351 118.237 22.8933 117.921 23.008C117.605 23.1227 117.318 23.2918 117.076 23.5054C116.834 23.7191 116.642 23.973 116.512 24.2527C116.381 24.5323 116.314 24.8321 116.315 25.1348V25.1348Z" fill="white"/>
</g>
</g>
</g>
<g id="&#60;Group&#62;_4">
<g id="Group_5">
<path id="Vector_11" d="M42.6742 8.73101C43.1137 8.70305 43.5548 8.76191 43.9656 8.90335C44.3763 9.04478 44.7466 9.26526 45.0496 9.54889C45.3526 9.83251 45.5808 10.1722 45.7178 10.5435C45.8547 10.9148 45.897 11.3083 45.8416 11.6959C45.8416 13.6021 44.6793 14.6979 42.6742 14.6979H40.2427V8.73101H42.6742ZM41.2882 13.854H42.5574C42.8715 13.8707 43.1858 13.825 43.4775 13.7204C43.7691 13.6158 44.0308 13.4548 44.2435 13.2493C44.4561 13.0437 44.6144 12.7987 44.7067 12.5321C44.7991 12.2655 44.8232 11.9839 44.7773 11.708C44.8199 11.4332 44.7933 11.1534 44.6995 10.8887C44.6058 10.6241 44.4471 10.3811 44.2349 10.1771C44.0228 9.97322 43.7624 9.81341 43.4723 9.70917C43.1823 9.60494 42.8699 9.55885 42.5574 9.57422H41.2882V13.854Z" fill="white"/>
<path id="Vector_12" d="M47.0226 12.4443C46.9906 12.1484 47.0288 11.8499 47.1347 11.5678C47.2406 11.2857 47.4118 11.0264 47.6373 10.8064C47.8629 10.5864 48.1378 10.4107 48.4445 10.2904C48.7512 10.1701 49.0829 10.108 49.4182 10.108C49.7536 10.108 50.0853 10.1701 50.392 10.2904C50.6987 10.4107 50.9736 10.5864 51.1992 10.8064C51.4247 11.0264 51.596 11.2857 51.7018 11.5678C51.8077 11.8499 51.8459 12.1484 51.8139 12.4443C51.8465 12.7406 51.8087 13.0396 51.7032 13.3221C51.5976 13.6046 51.4265 13.8644 51.2008 14.0848C50.9752 14.3052 50.7001 14.4814 50.3931 14.6019C50.0861 14.7225 49.754 14.7847 49.4182 14.7847C49.0825 14.7847 48.7504 14.7225 48.4434 14.6019C48.1364 14.4814 47.8613 14.3052 47.6357 14.0848C47.41 13.8644 47.2389 13.6046 47.1333 13.3221C47.0278 13.0396 46.99 12.7406 47.0226 12.4443ZM50.7827 12.4443C50.7827 11.4683 50.288 10.8975 49.4199 10.8975C48.5484 10.8975 48.0582 11.4683 48.0582 12.4444C48.0582 13.4282 48.5485 13.9946 49.4199 13.9946C50.2881 13.9946 50.7827 13.4243 50.7827 12.4443H50.7827Z" fill="white"/>
<path id="Vector_13" d="M58.1828 14.6978H57.1428L56.0928 11.3813H56.0135L54.968 14.6978H53.9379L52.5376 10.1948H53.5545L54.4645 13.6308H54.5394L55.5839 10.1948H56.5457L57.5901 13.6308H57.6694L58.575 10.1948H59.5776L58.1828 14.6978Z" fill="white"/>
<path id="Vector_14" d="M60.7554 10.1948H61.7205V10.9102H61.7954C61.9225 10.6532 62.1368 10.4379 62.4086 10.2941C62.6803 10.1503 62.9959 10.0852 63.3114 10.1079C63.5585 10.0914 63.8067 10.1245 64.0376 10.2046C64.2684 10.2847 64.4759 10.4098 64.6448 10.5706C64.8136 10.7315 64.9395 10.9239 65.0131 11.1337C65.0866 11.3436 65.106 11.5654 65.0697 11.7827V14.6977H64.0671V12.0059C64.0671 11.2822 63.7124 10.9224 62.9709 10.9224C62.8031 10.9154 62.6356 10.9408 62.4798 10.9966C62.3241 11.0524 62.1838 11.1375 62.0686 11.2458C61.9534 11.3542 61.8659 11.4834 61.8123 11.6245C61.7587 11.7657 61.7402 11.9154 61.7579 12.0635V14.6978H60.7554L60.7554 10.1948Z" fill="white"/>
<path id="Vector_15" d="M66.6675 8.43701H67.67V14.6978H66.6675V8.43701Z" fill="white"/>
<path id="Vector_16" d="M69.0636 12.4443C69.0316 12.1484 69.0699 11.8498 69.1757 11.5677C69.2816 11.2857 69.4529 11.0263 69.6785 10.8063C69.904 10.5863 70.179 10.4106 70.4857 10.2903C70.7924 10.17 71.1241 10.1079 71.4595 10.1079C71.7949 10.1079 72.1266 10.17 72.4333 10.2903C72.74 10.4106 73.015 10.5863 73.2406 10.8063C73.4661 11.0263 73.6374 11.2857 73.7433 11.5677C73.8492 11.8498 73.8874 12.1484 73.8555 12.4443C73.888 12.7406 73.8502 13.0396 73.7446 13.3221C73.639 13.6046 73.4678 13.8644 73.2422 14.0848C73.0165 14.3052 72.7414 14.4814 72.4344 14.6019C72.1273 14.7224 71.7953 14.7847 71.4595 14.7847C71.1237 14.7847 70.7917 14.7224 70.4847 14.6019C70.1776 14.4814 69.9025 14.3052 69.6768 14.0848C69.4512 13.8644 69.2801 13.6046 69.1744 13.3221C69.0688 13.0396 69.031 12.7406 69.0636 12.4443ZM72.8237 12.4443C72.8237 11.4683 72.329 10.8975 71.4609 10.8975C70.5894 10.8975 70.0992 11.4683 70.0992 12.4444C70.0992 13.4282 70.5895 13.9946 71.4609 13.9946C72.329 13.9946 72.8237 13.4243 72.8237 12.4443H72.8237Z" fill="white"/>
<path id="Vector_17" d="M74.9111 13.4243C74.9111 12.6138 75.592 12.1465 76.8006 12.0801L78.1766 12.0098V11.6211C78.1766 11.1455 77.8219 10.877 77.1366 10.877C76.5769 10.877 76.1891 11.0591 76.0779 11.3775H75.1072C75.2097 10.604 76.0305 10.1079 77.1829 10.1079C78.4565 10.1079 79.1748 10.6699 79.1748 11.6211V14.6978H78.2097V14.065H78.1304C77.9693 14.292 77.7433 14.477 77.4752 14.6012C77.2071 14.7254 76.9066 14.7844 76.6045 14.772C76.3912 14.7916 76.1757 14.7715 75.9717 14.7128C75.7678 14.6541 75.58 14.5581 75.4205 14.4312C75.2609 14.3042 75.1332 14.149 75.0455 13.9756C74.9577 13.8022 74.912 13.6144 74.9111 13.4243ZM78.1766 13.0396V12.6631L76.9361 12.7334C76.2365 12.7749 75.9192 12.9859 75.9192 13.3828C75.9192 13.7881 76.3158 14.0239 76.8612 14.0239C77.021 14.0383 77.1824 14.024 77.3359 13.9819C77.4893 13.9398 77.6316 13.8708 77.7543 13.7789C77.8771 13.6871 77.9777 13.5743 78.0502 13.4473C78.1228 13.3203 78.1658 13.1816 78.1766 13.0396Z" fill="white"/>
<path id="Vector_18" d="M80.4922 12.4444C80.4922 11.0215 81.3174 10.1201 82.6009 10.1201C82.9184 10.1072 83.2334 10.1746 83.5093 10.3145C83.7852 10.4544 84.0104 10.661 84.1587 10.9101H84.2336V8.43701H85.2362V14.6978H84.2755V13.9863H84.1962C84.0364 14.2338 83.8033 14.4378 83.5221 14.5763C83.2409 14.7148 82.9223 14.7825 82.6009 14.772C81.3086 14.772 80.4922 13.8706 80.4922 12.4444ZM81.5278 12.4444C81.5278 13.3994 82.0357 13.9741 82.8852 13.9741C83.7301 13.9741 84.2524 13.3911 84.2524 12.4483C84.2524 11.5098 83.7247 10.9185 82.8852 10.9185C82.0412 10.9185 81.5278 11.4971 81.5278 12.4444H81.5278Z" fill="white"/>
<path id="Vector_19" d="M89.3844 12.4443C89.3524 12.1484 89.3906 11.8499 89.4965 11.5678C89.6024 11.2857 89.7736 11.0264 89.9991 10.8064C90.2247 10.5864 90.4996 10.4107 90.8063 10.2904C91.113 10.1701 91.4447 10.108 91.7801 10.108C92.1154 10.108 92.4471 10.1701 92.7538 10.2904C93.0605 10.4107 93.3354 10.5864 93.561 10.8064C93.7865 11.0264 93.9578 11.2857 94.0636 11.5678C94.1695 11.8499 94.2077 12.1484 94.1757 12.4443C94.2083 12.7406 94.1705 13.0396 94.065 13.3221C93.9594 13.6046 93.7883 13.8644 93.5626 14.0848C93.337 14.3052 93.0619 14.4814 92.7549 14.6019C92.4479 14.7225 92.1158 14.7847 91.7801 14.7847C91.4443 14.7847 91.1122 14.7225 90.8052 14.6019C90.4982 14.4814 90.2231 14.3052 89.9975 14.0848C89.7718 13.8644 89.6007 13.6046 89.4952 13.3221C89.3896 13.0396 89.3518 12.7406 89.3844 12.4443ZM93.1445 12.4443C93.1445 11.4683 92.6499 10.8975 91.7817 10.8975C90.9103 10.8975 90.42 11.4683 90.42 12.4444C90.42 13.4282 90.9103 13.9946 91.7817 13.9946C92.6499 13.9946 93.1445 13.4243 93.1445 12.4443Z" fill="white"/>
<path id="Vector_20" d="M95.521 10.1948H96.4861V10.9102H96.561C96.6881 10.6532 96.9025 10.4379 97.1742 10.2941C97.4459 10.1503 97.7615 10.0852 98.077 10.1079C98.3242 10.0914 98.5724 10.1245 98.8032 10.2046C99.034 10.2847 99.2415 10.4098 99.4104 10.5706C99.5793 10.7315 99.7051 10.9239 99.7787 11.1337C99.8522 11.3436 99.8716 11.5654 99.8353 11.7827V14.6977H98.8328V12.0059C98.8328 11.2822 98.478 10.9224 97.7366 10.9224C97.5687 10.9154 97.4012 10.9408 97.2454 10.9966C97.0897 11.0524 96.9494 11.1375 96.8342 11.2458C96.719 11.3542 96.6316 11.4834 96.578 11.6245C96.5243 11.7657 96.5058 11.9154 96.5236 12.0635V14.6978H95.521V10.1948Z" fill="white"/>
<path id="Vector_21" d="M105.5 9.07373V10.2153H106.601V10.9639H105.5V13.2793C105.5 13.751 105.719 13.9575 106.218 13.9575C106.346 13.9572 106.474 13.9503 106.601 13.937V14.6772C106.421 14.7058 106.238 14.721 106.055 14.7226C104.94 14.7226 104.496 14.375 104.496 13.5068V10.9638H103.69V10.2153H104.496V9.07373H105.5Z" fill="white"/>
<path id="Vector_22" d="M107.97 8.43701H108.964V10.9185H109.043C109.177 10.6591 109.397 10.4425 109.674 10.2982C109.951 10.1539 110.272 10.0888 110.592 10.1118C110.838 10.1 111.084 10.1364 111.312 10.2184C111.54 10.3004 111.745 10.4261 111.912 10.5864C112.08 10.7468 112.205 10.9378 112.279 11.146C112.353 11.3541 112.375 11.5742 112.342 11.7905V14.6978H111.338V12.0098C111.338 11.2905 110.96 10.9263 110.252 10.9263C110.08 10.9137 109.906 10.9347 109.744 10.9878C109.582 11.0408 109.435 11.1247 109.313 11.2334C109.191 11.3421 109.097 11.4732 109.039 11.6173C108.98 11.7614 108.958 11.9152 108.973 12.0679V14.6977H107.97L107.97 8.43701Z" fill="white"/>
<path id="Vector_23" d="M118.188 13.4819C118.052 13.8935 117.756 14.2495 117.354 14.4876C116.952 14.7258 116.468 14.8309 115.986 14.7847C115.652 14.7925 115.319 14.7357 115.012 14.6182C114.704 14.5006 114.429 14.3252 114.206 14.1041C113.983 13.8829 113.817 13.6214 113.719 13.3376C113.621 13.0537 113.594 12.7544 113.64 12.4605C113.595 12.1656 113.623 11.8656 113.72 11.581C113.818 11.2963 113.983 11.0335 114.205 10.8105C114.427 10.5874 114.701 10.4092 115.008 10.288C115.314 10.1668 115.646 10.1054 115.982 10.1079C117.396 10.1079 118.248 10.9639 118.248 12.3779V12.688H114.661V12.7378C114.645 12.9031 114.669 13.0694 114.73 13.2261C114.791 13.3829 114.888 13.5266 115.016 13.6481C115.143 13.7695 115.298 13.866 115.47 13.9314C115.642 13.9968 115.827 14.0297 116.014 14.0278C116.254 14.0533 116.497 14.0151 116.712 13.9178C116.927 13.8206 117.105 13.6689 117.223 13.4819L118.188 13.4819ZM114.661 12.0308H117.227C117.24 11.8796 117.216 11.7278 117.159 11.5851C117.101 11.4424 117.011 11.3119 116.893 11.2021C116.775 11.0922 116.633 11.0054 116.475 10.9472C116.317 10.8891 116.147 10.8608 115.977 10.8643C115.803 10.8623 115.631 10.8912 115.47 10.9491C115.31 11.0071 115.164 11.0929 115.041 11.2017C114.919 11.3104 114.822 11.4397 114.757 11.5821C114.691 11.7245 114.659 11.8771 114.661 12.0308H114.661Z" fill="white"/>
</g>
</g>
</g>
</svg>
