<svg width="57" height="56" viewBox="0 0 57 56" fill="none" xmlns="http://www.w3.org/2000/svg">
<g id="Outline / Time / Calendar">
<g id="Union">
<path d="M40.1665 32.6667C41.4552 32.6667 42.4998 31.622 42.4998 30.3333C42.4998 29.0447 41.4552 28 40.1665 28C38.8778 28 37.8332 29.0447 37.8332 30.3333C37.8332 31.622 38.8778 32.6667 40.1665 32.6667Z" fill="#F5F5F5"/>
<path d="M40.1665 42C41.4552 42 42.4998 40.9553 42.4998 39.6667C42.4998 38.378 41.4552 37.3333 40.1665 37.3333C38.8778 37.3333 37.8332 38.378 37.8332 39.6667C37.8332 40.9553 38.8778 42 40.1665 42Z" fill="#F5F5F5"/>
<path d="M30.8332 30.3333C30.8332 31.622 29.7885 32.6667 28.4998 32.6667C27.2112 32.6667 26.1665 31.622 26.1665 30.3333C26.1665 29.0447 27.2112 28 28.4998 28C29.7885 28 30.8332 29.0447 30.8332 30.3333Z" fill="#F5F5F5"/>
<path d="M30.8332 39.6667C30.8332 40.9553 29.7885 42 28.4998 42C27.2112 42 26.1665 40.9553 26.1665 39.6667C26.1665 38.378 27.2112 37.3333 28.4998 37.3333C29.7885 37.3333 30.8332 38.378 30.8332 39.6667Z" fill="#F5F5F5"/>
<path d="M16.8332 32.6667C18.1218 32.6667 19.1665 31.622 19.1665 30.3333C19.1665 29.0447 18.1218 28 16.8332 28C15.5445 28 14.4998 29.0447 14.4998 30.3333C14.4998 31.622 15.5445 32.6667 16.8332 32.6667Z" fill="#F5F5F5"/>
<path d="M16.8332 42C18.1218 42 19.1665 40.9553 19.1665 39.6667C19.1665 38.378 18.1218 37.3333 16.8332 37.3333C15.5445 37.3333 14.4998 38.378 14.4998 39.6667C14.4998 40.9553 15.5445 42 16.8332 42Z" fill="#F5F5F5"/>
<path fill-rule="evenodd" clip-rule="evenodd" d="M16.8332 4.08333C17.7997 4.08333 18.5832 4.86683 18.5832 5.83333V7.61301C20.1278 7.5833 21.8296 7.58332 23.7012 7.58333H33.2981C35.1698 7.58332 36.8718 7.5833 38.4165 7.61301V5.83333C38.4165 4.86683 39.2 4.08333 40.1665 4.08333C41.133 4.08333 41.9165 4.86683 41.9165 5.83333V7.7632C42.523 7.80945 43.0974 7.86758 43.6409 7.94065C46.3765 8.30844 48.5908 9.08338 50.3369 10.8296C52.0831 12.5757 52.8581 14.79 53.2259 17.5256C53.5832 20.1838 53.5832 23.5802 53.5832 27.8683V32.7983C53.5832 37.0863 53.5832 40.4829 53.2259 43.141C52.8581 45.8767 52.0831 48.0909 50.3369 49.8371C48.5908 51.5833 46.3765 52.3582 43.6409 52.726C40.9827 53.0834 37.5863 53.0834 33.2982 53.0833H23.7015C19.4135 53.0834 16.0169 53.0834 13.3588 52.726C10.6231 52.3582 8.40892 51.5833 6.66274 49.8371C4.91656 48.0909 4.14162 45.8767 3.77382 43.141C3.41644 40.4829 3.41647 37.0864 3.4165 32.7983V27.8684C3.41647 23.5803 3.41644 20.1838 3.77382 17.5256C4.14162 14.79 4.91656 12.5757 6.66274 10.8296C8.40892 9.08338 10.6231 8.30844 13.3588 7.94065C13.9023 7.86758 14.4766 7.80945 15.0832 7.7632V5.83333C15.0832 4.86683 15.8667 4.08333 16.8332 4.08333ZM13.8252 11.4094C11.4776 11.7251 10.1251 12.3169 9.13761 13.3044C8.15012 14.2919 7.55823 15.6444 7.24261 17.992C7.18916 18.3895 7.14447 18.8081 7.1071 19.25H49.8926C49.8552 18.8081 49.8105 18.3895 49.7571 17.992C49.4415 15.6444 48.8496 14.2919 47.8621 13.3044C46.8746 12.3169 45.5221 11.7251 43.1745 11.4094C40.7766 11.087 37.6158 11.0833 33.1665 11.0833H23.8332C19.3839 11.0833 16.223 11.087 13.8252 11.4094ZM6.91651 28C6.91651 26.0073 6.91725 24.273 6.94704 22.75H50.0526C50.0824 24.273 50.0832 26.0073 50.0832 28V32.6667C50.0832 37.1159 50.0795 40.2768 49.7571 42.6747C49.4415 45.0222 48.8496 46.3747 47.8621 47.3622C46.8746 48.3497 45.5221 48.9416 43.1745 49.2572C40.7766 49.5796 37.6158 49.5833 33.1665 49.5833H23.8332C19.3839 49.5833 16.223 49.5796 13.8252 49.2572C11.4776 48.9416 10.1251 48.3497 9.13761 47.3622C8.15012 46.3747 7.55823 45.0222 7.24261 42.6747C6.92022 40.2768 6.91651 37.1159 6.91651 32.6667V28Z" fill="#F5F5F5"/>
</g>
</g>
</svg>
