<svg width="205" height="145" viewBox="0 0 205 145" fill="none" xmlns="http://www.w3.org/2000/svg">
<g id="Calendar">
<g id="Group">
<g id="Group_2">
<g id="Group_3">
<path id="Vector" d="M173.815 140.665H205L190.462 15.3086L173.815 140.665Z" fill="white"/>
</g>
<g id="Group_4">
<path id="Vector_2" d="M20.3897 15.3086L0.0893555 142.142L173.319 144.399L190.462 15.3086H20.3897Z" fill="#F5F5F5"/>
</g>
<g id="Group_5">
<path id="Vector_3" d="M182.745 73.416H11.0891L14.8278 50.0586H185.847L182.745 73.416Z" fill="#E0E0E0"/>
<path id="Vector_4" d="M182.758 73.4303H11.072L11.0744 73.4129L14.8149 50.043H185.865L185.862 50.0597L182.758 73.4303ZM11.1067 73.3997H182.732L185.831 50.0729H14.8406L11.1067 73.3997Z" fill="#242424"/>
</g>
<g id="Group_6">
<path id="Vector_5" d="M20.3898 15.3086L14.8281 50.0569H185.847L190.462 15.3086H20.3898Z" fill="#00B562"/>
</g>
<g id="Group_7">
<g id="Group_8">
<path id="Vector_6" d="M20.3898 15.3087C21.6274 15.3075 89.667 15.2512 190.462 15.168H190.622L190.601 15.3273C185.587 53.1193 179.902 95.9754 173.896 141.239L173.878 141.374H173.742C173.127 141.374 172.459 141.374 171.791 141.374C107.819 141.363 48.5451 141.354 0.237266 141.346H0.0876465L0.111591 141.198C12.3905 64.9666 20.2216 16.3506 20.3898 15.3087C20.224 16.35 12.4899 64.9821 0.36295 141.239L0.237266 141.091C48.5451 141.083 107.819 141.073 171.791 141.063C172.459 141.063 173.127 141.063 173.742 141.063L173.587 141.198C179.603 95.9359 185.299 53.0816 190.322 15.2901L190.462 15.4494C89.667 15.3662 21.6268 15.3099 20.3898 15.3087Z" fill="#242424"/>
</g>
</g>
<g id="Group_9">
<g id="Group_10">
<path id="Vector_7" d="M185.847 50.0583C185.847 50.1447 147.561 50.2144 100.342 50.2144C53.1072 50.2144 14.8281 50.1441 14.8281 50.0583C14.8281 49.9725 53.1072 49.9023 100.342 49.9023C147.561 49.9023 185.847 49.9719 185.847 50.0583Z" fill="#242424"/>
</g>
</g>
<g id="Group_11">
<g id="Group_12">
<path id="Vector_8" d="M182.745 73.4138C182.745 73.5002 144.242 73.5698 96.7576 73.5698C49.2565 73.5698 10.762 73.4996 10.762 73.4138C10.762 73.328 49.2565 73.2578 96.7576 73.2578C144.242 73.2578 182.745 73.3274 182.745 73.4138Z" fill="#242424"/>
</g>
</g>
<g id="Group_13">
<g id="Group_14">
<path id="Vector_9" d="M179.253 94.906C179.253 94.9924 140.751 95.062 93.2657 95.062C45.7646 95.062 7.27002 94.9918 7.27002 94.906C7.27002 94.8202 45.7646 94.75 93.2657 94.75C140.751 94.7494 179.253 94.8196 179.253 94.906Z" fill="#242424"/>
</g>
</g>
<g id="Group_15">
<g id="Group_16">
<path id="Vector_10" d="M175.761 116.394C175.761 116.481 137.258 116.55 89.7735 116.55C42.2724 116.55 3.77783 116.48 3.77783 116.394C3.77783 116.308 42.2724 116.238 89.7735 116.238C137.258 116.238 175.761 116.308 175.761 116.394Z" fill="#242424"/>
</g>
</g>
<g id="Group_17">
<g id="Group_18">
<path id="Vector_11" d="M24.4099 141.412C24.3249 141.398 27.4687 120.936 31.4312 95.7129C35.3949 70.4819 38.6764 50.0454 38.7613 50.0586C38.8463 50.0718 35.7031 70.5304 31.7394 95.7614C27.7763 120.984 24.4949 141.425 24.4099 141.412Z" fill="#242424"/>
</g>
</g>
<g id="Group_19">
<g id="Group_20">
<path id="Vector_12" d="M50.8762 141.412C50.7912 141.398 53.935 120.936 57.8975 95.7129C61.8612 70.4819 65.1421 50.0454 65.2271 50.0586C65.312 50.0718 62.1688 70.5304 58.2051 95.7614C54.2432 120.984 50.9612 141.425 50.8762 141.412Z" fill="#242424"/>
</g>
</g>
<g id="Group_21">
<g id="Group_22">
<path id="Vector_13" d="M75.4692 140.497C75.3842 140.484 78.4957 120.226 82.4187 95.256C86.3429 70.2771 89.5915 50.0454 89.6771 50.0586C89.762 50.0718 86.6512 70.3256 82.727 95.3039C78.8033 120.274 75.5542 140.511 75.4692 140.497Z" fill="#242424"/>
</g>
</g>
<g id="Group_23">
<g id="Group_24">
<path id="Vector_14" d="M99.8047 141.22C99.7197 141.207 102.857 120.787 106.811 95.6171C110.766 70.4388 114.041 50.0448 114.126 50.0586C114.211 50.0718 111.075 70.4873 107.119 95.6656C103.165 120.835 99.8896 141.233 99.8047 141.22Z" fill="#242424"/>
</g>
</g>
<g id="Group_25">
<g id="Group_26">
<path id="Vector_15" d="M124.254 141.22C124.169 141.207 127.306 120.787 131.26 95.6171C135.216 70.4388 138.49 50.0448 138.576 50.0586C138.661 50.0718 135.524 70.4873 131.569 95.6656C127.614 120.835 124.339 141.233 124.254 141.22Z" fill="#242424"/>
</g>
</g>
<g id="Group_27">
<g id="Group_28">
<path id="Vector_16" d="M148.683 141.353C148.598 141.34 151.74 120.891 155.699 95.6842C159.661 70.4687 162.94 50.0454 163.025 50.0586C163.11 50.0718 159.968 70.5172 156.007 95.7327C152.047 120.939 148.768 141.367 148.683 141.353Z" fill="#242424"/>
</g>
</g>
</g>
<g id="Group_29" opacity="0.2">
<g id="Group_30">
<path id="Vector_17" d="M133.298 51.6923C136.246 50.3875 138.084 47.3186 138.85 44.1863C139.615 41.054 139.49 37.7846 139.6 34.5612C139.709 31.3385 140.096 28.0061 141.746 25.2355C142.721 23.5978 144.092 22.2343 145.174 20.6649C146.255 19.0954 147.058 17.1721 146.659 15.3086L128.238 15.402L133.298 51.6923Z" fill="#242424"/>
</g>
</g>
<g id="Group_31">
<g id="Group_32">
<path id="Vector_18" d="M56.8932 75.1452C56.901 75.153 56.8394 75.2272 56.7149 75.3614C56.5629 75.5195 56.3797 75.7099 56.1601 75.938C55.6747 76.435 54.9601 77.1416 54.0678 78.0051C52.2837 79.7326 49.7761 82.0757 46.9364 84.5853C44.0942 87.0943 41.4591 89.2931 39.5242 90.8499C38.5571 91.629 37.7677 92.2505 37.2147 92.6703C36.961 92.8601 36.7497 93.0176 36.5737 93.1493C36.4253 93.2559 36.3439 93.308 36.3373 93.2996C36.3308 93.2912 36.399 93.223 36.5348 93.1002C36.7006 92.9565 36.8993 92.7834 37.1387 92.5757C37.7073 92.0954 38.4655 91.4553 39.3842 90.6793C41.282 89.0799 43.8913 86.8571 46.7305 84.3512C49.5673 81.8446 52.0952 79.5302 53.917 77.8446C54.8003 77.0284 55.5293 76.3554 56.0763 75.8506C56.3121 75.6392 56.5078 75.4626 56.6712 75.3159C56.8094 75.1967 56.886 75.1374 56.8932 75.1452Z" fill="#242424"/>
</g>
</g>
<g id="Group_33">
<g id="Group_34">
<path id="Vector_19" d="M55.5419 93.5446C55.5257 93.5589 55.272 93.3068 54.8261 92.8386C54.3474 92.3284 53.7165 91.6559 52.9541 90.8422C51.34 89.1194 49.1753 86.8087 46.7826 84.2548C44.3654 81.7225 42.1791 79.4315 40.5489 77.7237C39.7798 76.9165 39.1431 76.2494 38.6607 75.7428C38.2184 75.2716 37.9808 75.0039 37.9958 74.9889C38.0107 74.974 38.2777 75.2123 38.7469 75.6572C39.2161 76.1015 39.8864 76.7548 40.7063 77.5692C42.3473 79.1973 44.5844 81.4769 47.0088 84.0404C49.4321 86.6033 51.583 88.9643 53.1169 90.6937C53.8841 91.5584 54.4988 92.2631 54.9165 92.7571C55.3342 93.2506 55.5581 93.5302 55.5419 93.5446Z" fill="#242424"/>
</g>
</g>
<g id="Group_35">
<g id="Group_36">
<path id="Vector_20" d="M61.9337 80.6497C61.9337 80.6497 61.9917 80.4922 62.1192 80.1892C62.2485 79.888 62.4717 79.4485 62.8386 78.9216C63.5627 77.8833 64.9572 76.4461 67.2763 75.6102C67.8502 75.4018 68.478 75.2354 69.1513 75.1443C69.8222 75.0371 70.541 75.0234 71.2819 75.0881C72.7679 75.2078 74.3443 75.7342 75.8291 76.6365C77.3115 77.5419 78.6958 78.8569 79.7467 80.5306C80.7785 82.1964 81.529 84.2593 81.3847 86.4748C81.3147 87.5748 80.9742 88.6898 80.3596 89.67C79.7491 90.6503 78.9011 91.5107 77.895 92.1652C75.8859 93.4844 73.361 94.1467 70.7821 94.0131C69.4942 93.9401 68.1925 93.6748 66.9501 93.1784C65.7124 92.6796 64.5352 91.9347 63.5986 90.9071C63.1384 90.388 62.7506 89.8 62.443 89.1664C62.1449 88.5281 61.9432 87.8413 61.8343 87.1377C61.6189 85.7269 61.7775 84.2599 62.2036 82.8701C63.069 80.0898 65.0649 77.597 67.7443 76.1342C70.4039 74.6252 73.838 74.4455 76.7501 75.718C78.211 76.3348 79.5325 77.3306 80.5241 78.6096C81.5212 79.891 82.1125 81.4737 82.307 83.0994C82.5033 84.7269 82.2573 86.4311 81.5308 87.9365C81.1663 88.6868 80.6863 89.385 80.1076 89.9934C79.5235 90.597 78.8544 91.1161 78.1302 91.5449C75.1965 93.2305 71.6056 93.4467 68.5043 92.4467C66.9495 91.9503 65.4934 91.1407 64.3162 90.0293C63.136 88.9269 62.2838 87.467 61.9845 85.8952C61.6697 84.3353 61.8529 82.6665 62.6147 81.2796C62.9918 80.5874 63.519 79.9832 64.1325 79.5054C64.7489 79.0276 65.4503 78.6808 66.1721 78.4299C67.6234 77.9311 69.1465 77.8114 70.6241 77.8407C72.103 77.8755 73.571 78.0455 74.9679 78.4503C76.3575 78.8533 77.6939 79.4928 78.7407 80.4737C79.7898 81.4455 80.4972 82.7449 80.7677 84.1048C81.049 85.4641 80.9491 86.87 80.5325 88.1467C80.1148 89.4281 79.3625 90.5568 78.445 91.4676C76.5951 93.2886 74.1294 94.2904 71.7349 94.3922C70.5368 94.4455 69.3488 94.2802 68.2638 93.8856C67.1829 93.4868 66.2038 92.8568 65.4641 92.0359C64.71 91.2275 64.1744 90.2688 63.8404 89.2772C63.4969 88.2874 63.361 87.2599 63.4041 86.27C63.4652 84.2736 64.3533 82.4958 65.5239 81.2186C66.6981 79.9252 68.1399 79.0767 69.5511 78.6108C70.9683 78.1341 72.3639 78.0886 73.5722 78.2276C76.0134 78.5383 77.7083 79.5503 78.7275 80.303C79.2398 80.6892 79.6019 81.0192 79.8353 81.2497C80.0651 81.4844 80.177 81.6102 80.177 81.6102C80.177 81.6102 80.0501 81.4994 79.8131 81.2731C79.5731 81.0503 79.2063 80.7293 78.6904 80.3539C77.6658 79.6216 75.9727 78.6365 73.5585 78.3479C72.3627 78.2204 70.9892 78.2749 69.5977 78.7515C68.2123 79.218 66.7987 80.0611 65.6538 81.3347C64.5113 82.5946 63.6543 84.3311 63.6022 86.2772C63.5639 87.2425 63.6998 88.2455 64.0385 89.2089C64.3671 90.1742 64.8919 91.1047 65.6257 91.8856C66.3444 92.6784 67.2924 93.2838 68.3433 93.6688C69.3979 94.0484 70.5553 94.2065 71.7241 94.1514C74.06 94.0467 76.4688 93.0598 78.2631 91.2844C79.1536 90.397 79.8796 89.3 80.2794 88.0641C80.6797 86.8305 80.7725 85.4694 80.4996 84.1611C80.2351 82.8497 79.5582 81.6132 78.5491 80.6797C77.5431 79.7395 76.2486 79.1186 74.8889 78.727C73.5237 78.3323 72.0772 78.1659 70.6188 78.1341C69.1633 78.1066 67.6706 78.2288 66.2702 78.7126C64.8752 79.1785 63.5891 80.0988 62.8799 81.4258C62.1587 82.7395 61.9804 84.3389 62.2844 85.8365C62.574 87.3449 63.3868 88.7383 64.5292 89.8066C65.667 90.8802 67.0823 91.6682 68.6001 92.1521C71.6224 93.1281 75.133 92.9107 77.974 91.2766C78.6748 90.861 79.3206 90.3598 79.8832 89.779C80.4403 89.1928 80.9018 88.5221 81.2513 87.8018C81.9497 86.3557 82.1891 84.7102 81.9994 83.1353C81.8115 81.5629 81.2393 80.0318 80.28 78.7982C79.3248 77.5641 78.047 76.5988 76.6298 75.9994C73.8002 74.7635 70.4757 74.9324 67.8867 76.3964C65.2774 77.8168 63.3233 80.2503 62.4783 82.9557C62.0611 84.3078 61.9067 85.7335 62.1126 87.0958C62.2167 87.7748 62.41 88.4359 62.6949 89.0491C62.99 89.6575 63.361 90.2233 63.8033 90.7245C64.704 91.7161 65.8441 92.4431 67.0506 92.9317C68.2614 93.4179 69.5355 93.6814 70.7971 93.7556C73.3197 93.8928 75.8004 93.2473 77.7628 91.9652C79.7335 90.7018 81.055 88.6161 81.1657 86.4599C81.3141 84.309 80.5882 82.2785 79.5791 80.6365C78.5521 78.9868 77.1942 77.6844 75.7381 76.7862C74.2802 75.8904 72.7308 75.3641 71.2687 75.2378C70.5398 75.1695 69.833 75.1785 69.171 75.2797C68.5067 75.3653 67.8867 75.5246 67.3175 75.7264C65.0206 76.5342 63.6255 77.9407 62.8906 78.9599C62.5184 79.4773 62.2874 79.909 62.1491 80.2042C62.0115 80.5 61.9337 80.6497 61.9337 80.6497Z" fill="#00B562"/>
</g>
</g>
<g id="Group_37">
<g id="Group_38">
<path id="Vector_21" d="M78.1447 97.1805C78.1997 97.2464 73.4508 101.307 67.5385 106.248C61.6243 111.191 56.7862 115.143 56.7312 115.077C56.6761 115.012 61.4244 110.952 67.3386 106.009C73.2509 101.067 78.0896 97.114 78.1447 97.1805Z" fill="#242424"/>
</g>
</g>
<g id="Group_39">
<g id="Group_40">
<path id="Vector_22" d="M79.1788 114.547C79.1657 114.563 78.882 114.36 78.3817 113.977C77.843 113.555 77.1351 113.001 76.2804 112.332C74.5143 110.933 72.0887 108.983 69.4219 106.815C66.7539 104.646 64.3498 102.669 62.6196 101.226C61.7901 100.526 61.1037 99.9462 60.5812 99.5049C60.1042 99.0929 59.8469 98.8576 59.8606 98.8408C59.8744 98.824 60.1575 99.0282 60.6578 99.4109C61.1964 99.8324 61.9044 100.386 62.7591 101.055C64.5246 102.455 66.9508 104.404 69.6182 106.572C72.285 108.741 74.6885 110.717 76.4187 112.16C77.2482 112.86 77.9346 113.44 78.4577 113.881C78.9347 114.294 79.192 114.53 79.1788 114.547Z" fill="#242424"/>
</g>
</g>
<g id="Group_41">
<g id="Group_42">
<path id="Vector_23" d="M128.105 97.4112C128.156 97.4801 123.615 100.958 117.963 105.179C112.309 109.402 107.685 112.767 107.634 112.699C107.583 112.63 112.123 109.152 117.777 104.93C123.428 100.709 128.053 97.3423 128.105 97.4112Z" fill="#242424"/>
</g>
</g>
<g id="Group_43">
<g id="Group_44">
<path id="Vector_24" d="M129.867 112.144C129.821 112.217 125 109.225 119.101 105.462C113.2 101.698 108.455 98.5894 108.502 98.5169C108.548 98.4445 113.368 101.435 119.269 105.2C125.168 108.962 129.913 112.072 129.867 112.144Z" fill="#242424"/>
</g>
</g>
<g id="Group_45">
<g id="Group_46">
<path id="Vector_25" d="M78.9205 141.228C78.8589 141.168 83.5743 136.225 89.4507 130.189C95.3295 124.152 100.144 119.307 100.205 119.368C100.267 119.428 95.5528 124.37 89.6739 130.407C83.7975 136.443 78.9822 141.288 78.9205 141.228Z" fill="#00B562"/>
</g>
</g>
<g id="Group_47">
<g id="Group_48">
<path id="Vector_26" d="M98.856 141.222C98.8476 141.229 98.7812 141.157 98.6621 141.016C98.5232 140.844 98.3563 140.638 98.1558 140.389C97.6884 139.803 97.0659 139.021 96.3101 138.073C94.7445 136.125 92.5325 133.471 89.9662 130.651C87.397 127.832 84.9618 125.382 83.1675 123.641C82.2938 122.801 81.5738 122.108 81.034 121.588C80.8054 121.365 80.6156 121.18 80.457 121.025C80.3278 120.894 80.2631 120.821 80.2703 120.813C80.2775 120.805 80.3559 120.862 80.4995 120.978C80.6683 121.121 80.8718 121.292 81.116 121.498C81.648 121.953 82.4021 122.629 83.3196 123.481C85.1551 125.184 87.6214 127.615 90.1966 130.441C92.7689 133.268 94.9593 135.95 96.483 137.936C97.2455 138.929 97.8494 139.744 98.2521 140.316C98.4347 140.578 98.5861 140.797 98.7124 140.978C98.8153 141.132 98.865 141.216 98.856 141.222Z" fill="#00B562"/>
</g>
</g>
<g id="Group_49">
<path id="Vector_27" d="M161.68 33.389C157.453 33.3896 153.201 30.7405 150.963 26.5645C148.801 22.5285 148.104 17.5944 149.05 13.0286C150.292 7.02561 154.256 2.13282 159.146 0.564566C163.309 -0.77016 170.742 -0.0132834 174.247 5.84178C176.974 10.401 176.687 15.1208 176.674 15.3196C176.606 16.3094 175.755 17.0543 174.761 16.9896C173.774 16.922 173.027 16.0687 173.091 15.0807C173.095 15.0082 173.287 11.2328 171.166 7.68728C168.461 3.16515 162.532 3.25197 160.242 3.9861C156.059 5.32741 153.372 9.86034 152.566 13.7573C151.788 17.5124 152.357 21.5615 154.128 24.8675C155.895 28.1662 159.466 30.2136 162.634 29.7243C163.607 29.574 164.53 30.2471 164.681 31.2285C164.831 32.2093 164.157 33.1261 163.177 33.2764C162.68 33.3518 162.181 33.389 161.68 33.389Z" fill="#242424"/>
</g>
<g id="Group_50">
<path id="Vector_28" d="M45.7405 33.3893C41.5129 33.3899 37.2613 30.7408 35.0236 26.5648C32.8619 22.5294 32.1641 17.5953 33.1097 13.0289C34.1558 7.9762 37.6988 2.15826 43.2563 0.549885C45.7884 -0.182447 48.8365 -0.025558 51.4099 0.967252L50.1166 4.31933C47.919 3.47023 45.6478 3.59838 44.2545 4.00137C40.1334 5.19418 37.4534 9.76122 36.6264 13.7582C35.8489 17.5133 36.4187 21.563 38.189 24.8683C39.9575 28.1677 43.5364 30.215 46.6945 29.7252L47.2385 33.2773C46.7418 33.3521 46.2409 33.3893 45.7405 33.3893Z" fill="#242424"/>
</g>
<g id="Group_51">
<path id="Vector_29" d="M160.177 15.4102L158.527 24.4586H182.83L184.988 15.5006L160.177 15.4102Z" fill="#00B562"/>
</g>
<g id="Group_52">
<path id="Vector_30" d="M51.9026 31.9596C51.9026 34.0943 50.173 35.8255 48.0388 35.8255C45.9052 35.8255 44.175 34.0949 44.175 31.9596C44.175 29.8249 45.9046 28.0938 48.0388 28.0938C50.1724 28.0938 51.9026 29.8243 51.9026 31.9596Z" fill="#242424"/>
</g>
<g id="Group_53">
<path id="Vector_31" d="M167.714 31.9596C167.714 34.0943 165.984 35.8255 163.85 35.8255C161.716 35.8255 159.986 34.0949 159.986 31.9596C159.986 29.8249 161.716 28.0938 163.85 28.0938C165.984 28.0938 167.714 29.8243 167.714 31.9596Z" fill="#242424"/>
</g>
</g>
</g>
</svg>
