<svg width="20" height="21" viewBox="0 0 20 21" fill="none" xmlns="http://www.w3.org/2000/svg">
<g id="Outline / Time / Calendar">
<g id="Union">
<path d="M14.1665 12.1668C14.6267 12.1668 14.9998 11.7937 14.9998 11.3335C14.9998 10.8733 14.6267 10.5002 14.1665 10.5002C13.7063 10.5002 13.3332 10.8733 13.3332 11.3335C13.3332 11.7937 13.7063 12.1668 14.1665 12.1668Z" fill="#5E5D5D"/>
<path d="M14.1665 15.5002C14.6267 15.5002 14.9998 15.1271 14.9998 14.6668C14.9998 14.2066 14.6267 13.8335 14.1665 13.8335C13.7063 13.8335 13.3332 14.2066 13.3332 14.6668C13.3332 15.1271 13.7063 15.5002 14.1665 15.5002Z" fill="#5E5D5D"/>
<path d="M10.8332 11.3335C10.8332 11.7937 10.4601 12.1668 9.99984 12.1668C9.5396 12.1668 9.1665 11.7937 9.1665 11.3335C9.1665 10.8733 9.5396 10.5002 9.99984 10.5002C10.4601 10.5002 10.8332 10.8733 10.8332 11.3335Z" fill="#5E5D5D"/>
<path d="M10.8332 14.6668C10.8332 15.1271 10.4601 15.5002 9.99984 15.5002C9.5396 15.5002 9.1665 15.1271 9.1665 14.6668C9.1665 14.2066 9.5396 13.8335 9.99984 13.8335C10.4601 13.8335 10.8332 14.2066 10.8332 14.6668Z" fill="#5E5D5D"/>
<path d="M5.83317 12.1668C6.29341 12.1668 6.6665 11.7937 6.6665 11.3335C6.6665 10.8733 6.29341 10.5002 5.83317 10.5002C5.37293 10.5002 4.99984 10.8733 4.99984 11.3335C4.99984 11.7937 5.37293 12.1668 5.83317 12.1668Z" fill="#5E5D5D"/>
<path d="M5.83317 15.5002C6.29341 15.5002 6.6665 15.1271 6.6665 14.6668C6.6665 14.2066 6.29341 13.8335 5.83317 13.8335C5.37293 13.8335 4.99984 14.2066 4.99984 14.6668C4.99984 15.1271 5.37293 15.5002 5.83317 15.5002Z" fill="#5E5D5D"/>
<path fill-rule="evenodd" clip-rule="evenodd" d="M5.83317 1.9585C6.17835 1.9585 6.45817 2.23832 6.45817 2.5835V3.2191C7.00984 3.20848 7.61761 3.20849 8.28605 3.2085H11.7135C12.382 3.20849 12.9898 3.20848 13.5415 3.2191V2.5835C13.5415 2.23832 13.8213 1.9585 14.1665 1.9585C14.5117 1.9585 14.7915 2.23832 14.7915 2.5835V3.27274C15.0081 3.28925 15.2133 3.31001 15.4074 3.33611C16.3844 3.46746 17.1752 3.74423 17.7988 4.36787C18.4224 4.9915 18.6992 5.78229 18.8306 6.75931C18.9582 7.70865 18.9582 8.92166 18.9582 10.4531V12.2138C18.9582 13.7453 18.9582 14.9583 18.8306 15.9077C18.6992 16.8847 18.4224 17.6755 17.7988 18.2991C17.1752 18.9228 16.3844 19.1995 15.4074 19.3309C14.458 19.4585 13.245 19.4585 11.7136 19.4585H8.28616C6.75471 19.4585 5.54166 19.4585 4.59232 19.3309C3.6153 19.1995 2.82451 18.9228 2.20087 18.2991C1.57724 17.6755 1.30047 16.8847 1.16912 15.9077C1.04148 14.9583 1.04149 13.7453 1.0415 12.2138V10.4531C1.04149 8.92168 1.04148 7.70865 1.16912 6.75931C1.30047 5.78229 1.57724 4.9915 2.20087 4.36787C2.82451 3.74423 3.6153 3.46746 4.59232 3.33611C4.78642 3.31001 4.99155 3.28925 5.20817 3.27274V2.5835C5.20817 2.23832 5.48799 1.9585 5.83317 1.9585ZM4.75888 4.57496C3.92047 4.68768 3.43743 4.89907 3.08476 5.25175C2.73208 5.60442 2.52069 6.08746 2.40797 6.92587C2.38888 7.06786 2.37292 7.21734 2.35957 7.37516H17.6401C17.6268 7.21734 17.6108 7.06786 17.5917 6.92587C17.479 6.08746 17.2676 5.60442 16.9149 5.25175C16.5622 4.89907 16.0792 4.68768 15.2408 4.57496C14.3844 4.45982 13.2555 4.4585 11.6665 4.4585H8.33317C6.74415 4.4585 5.61527 4.45982 4.75888 4.57496ZM2.2915 10.5002C2.2915 9.78848 2.29177 9.1691 2.30241 8.62516H17.6973C17.7079 9.1691 17.7082 9.78848 17.7082 10.5002V12.1668C17.7082 13.7558 17.7068 14.8847 17.5917 15.7411C17.479 16.5795 17.2676 17.0626 16.9149 17.4152C16.5622 17.7679 16.0792 17.9793 15.2408 18.092C14.3844 18.2072 13.2555 18.2085 11.6665 18.2085H8.33317C6.74415 18.2085 5.61526 18.2072 4.75888 18.092C3.92047 17.9793 3.43743 17.7679 3.08476 17.4152C2.73208 17.0626 2.52069 16.5795 2.40797 15.7411C2.29283 14.8847 2.2915 13.7558 2.2915 12.1668V10.5002Z" fill="#5E5D5D"/>
</g>
</g>
</svg>
