<svg width="196" height="151" viewBox="0 0 196 151" fill="none" xmlns="http://www.w3.org/2000/svg">
<g id="Clock">
<path id="Vector" d="M96.1156 150.203C137.356 150.203 170.788 116.772 170.788 75.5314C170.788 34.2912 137.356 0.859375 96.1156 0.859375C54.8754 0.859375 21.4435 34.2912 21.4435 75.5314C21.4435 116.772 54.8754 150.203 96.1156 150.203Z" fill="white"/>
<path id="Vector_2" d="M170.788 75.5323C170.788 75.5323 170.788 75.1325 170.668 74.3328C170.548 73.5331 170.528 72.3335 170.428 70.7741C170.428 69.9944 170.328 69.1347 170.268 68.1751C170.208 67.2154 169.968 66.1758 169.808 65.0562C169.473 62.4565 168.952 59.8842 168.249 57.3591C166.504 50.3753 163.714 43.6956 159.972 37.5465C154.55 28.5134 147.277 20.7308 138.632 14.7108C129.986 8.69086 120.163 4.57006 109.81 2.61961C106.714 2.04388 103.581 1.68315 100.434 1.54002C98.8345 1.54002 97.2151 1.32009 95.5957 1.34009L90.6776 1.59999C89.8579 1.59999 89.0182 1.6 88.1985 1.75994L85.7194 2.13979C84.0801 2.41969 82.4007 2.61961 80.7413 2.95948C73.9349 4.48829 67.3557 6.89417 61.1686 10.1168C59.6092 10.9565 58.1097 11.9561 56.5503 12.8758C55.7906 13.3556 54.9909 13.7754 54.2512 14.3152L52.072 15.9546C46.0189 20.3506 40.7245 25.7058 36.3979 31.8087L34.6985 34.0878L33.1991 36.5269L31.6996 38.886C31.171 39.6897 30.7032 40.5317 30.3002 41.4051C29.4805 43.1444 28.6408 44.8838 27.7811 46.6431L25.7818 52.1211C23.342 59.6897 22.0481 67.5808 21.9433 75.5323C22.0483 83.4773 23.3422 91.3617 25.7818 98.9236C26.4416 100.763 27.1213 102.602 27.7811 104.422C28.4408 106.241 29.4605 107.92 30.3002 109.64C30.6985 110.522 31.1664 111.371 31.6996 112.179L33.1991 114.638L34.6785 117.077L36.3979 119.356C38.6154 122.386 41.0403 125.258 43.6552 127.953C46.2995 130.522 49.1113 132.913 52.072 135.11L54.2512 136.749C54.9909 137.289 55.7906 137.709 56.5503 138.189C58.1097 139.109 59.6092 140.188 61.1686 140.948C67.3557 144.17 73.9349 146.576 80.7413 148.105C82.4007 148.465 84.08 148.645 85.7394 148.925L88.1985 149.305C89.0382 149.305 89.8579 149.305 90.6776 149.465L95.6757 149.765C97.2951 149.765 98.9145 149.625 100.514 149.585C103.661 149.435 106.794 149.067 109.89 148.485C120.246 146.542 130.072 142.424 138.718 136.403C147.365 130.383 154.636 122.596 160.052 113.558C163.762 107.417 166.526 100.751 168.249 93.7855C168.952 91.2605 169.473 88.6881 169.808 86.0884C169.968 84.9688 170.168 83.9292 170.268 82.9695C170.368 82.0099 170.388 81.1502 170.428 80.3705C170.534 78.8244 170.614 77.6449 170.668 76.8318C170.668 76.0321 170.788 75.6123 170.788 75.6123C170.788 75.6123 170.788 76.0321 170.788 76.8318C170.788 77.6315 170.788 78.8311 170.668 80.3705C170.668 81.1702 170.668 82.0299 170.548 83.0095C170.428 83.9892 170.288 85.0088 170.128 86.1284C169.82 88.7131 169.326 91.2721 168.648 93.7855C166.954 100.826 164.197 107.568 160.471 113.778C155.055 122.941 147.75 130.845 139.043 136.967C130.336 143.089 120.425 147.288 109.97 149.285C106.841 149.873 103.674 150.247 100.494 150.404C98.8745 150.404 97.2351 150.624 95.5957 150.604L90.6176 150.364C89.7779 150.364 88.9382 150.364 88.0986 150.204L85.6795 149.765C84.0001 149.485 82.3007 149.305 80.6213 148.945C77.2265 148.201 73.8866 147.226 70.6251 146.026C67.2593 144.825 63.9796 143.396 60.8087 141.748C59.2293 140.888 57.6899 139.888 56.1305 138.949C55.3508 138.449 54.5311 138.029 53.7914 137.489L51.5922 135.83C48.5917 133.606 45.74 131.189 43.0554 128.592C40.4007 125.858 37.9359 122.946 35.6782 119.876L33.9388 117.577L32.4194 115.098L30.9199 112.598C30.3771 111.786 29.9023 110.93 29.5005 110.039C28.6608 108.28 27.8011 106.521 26.9614 104.741L24.9622 99.1635C22.4976 91.4966 21.1904 83.505 21.0836 75.4524C21.1451 67.4265 22.4052 59.4548 24.8222 51.8012L26.8215 46.2433L29.3805 40.9253C29.7798 40.0372 30.2477 39.1816 30.78 38.3662L32.2994 35.8872L33.7989 33.4081L35.5382 31.089C37.8012 28.0292 40.2657 25.1239 42.9154 22.3922C45.6001 19.7961 48.4518 17.3785 51.4523 15.1549L53.6514 13.4955C54.3911 12.9557 55.2108 12.5359 55.9905 12.0361C57.55 11.1164 59.0894 10.0368 60.6688 9.25713C66.9411 6.0068 73.6071 3.58093 80.5014 2.03983C82.1808 1.69996 83.8801 1.50003 85.5595 1.22014L88.0586 0.840274C88.8982 0.840274 89.738 0.840278 90.5776 0.680338L95.5558 0.44043C97.1951 0.44043 98.8145 0.580374 100.434 0.640352C103.62 0.80666 106.793 1.18065 109.93 1.75994C120.385 3.75657 130.296 7.95535 139.003 14.0773C147.71 20.1992 155.015 28.1041 160.432 37.2666C164.157 43.4767 166.914 50.2183 168.608 57.2592C169.284 59.8058 169.771 62.3984 170.068 65.0163C170.228 66.1558 170.408 67.1954 170.488 68.1551L170.608 70.7741C170.608 72.3135 170.708 73.4931 170.728 74.3328C170.748 75.1725 170.788 75.5323 170.788 75.5323Z" fill="#263238"/>
<path id="Vector_3" d="M131.522 73.4328C130.545 73.7922 129.543 74.0795 128.523 74.2924L120.187 76.2917C113.129 77.9311 103.333 80.1502 92.377 82.5494L91.7573 82.6893V79.7904C91.7573 68.0948 91.7572 57.4987 91.8972 49.8016C91.8972 46.123 92.0372 43.0641 92.0772 40.725C92.0472 39.615 92.114 38.5046 92.277 37.4062C92.4273 38.5059 92.4942 39.6153 92.477 40.725C92.477 43.0641 92.577 46.123 92.6369 49.8016C92.6369 57.4787 92.7969 68.0748 92.7969 79.7904V81.9696L92.1571 81.4498C103.113 79.0707 112.929 76.9715 120.027 75.452L128.424 73.7926C129.443 73.577 130.48 73.4565 131.522 73.4328Z" fill="#263238"/>
<path id="Vector_4" d="M176.126 106.32C176.198 105.903 176.312 105.495 176.466 105.101C176.686 104.321 177.145 103.101 177.545 101.702C178.831 97.5076 179.807 93.2243 180.464 88.8867C182.749 74.5545 181.382 59.8773 176.49 46.2135C171.597 32.5496 163.338 20.3405 152.475 10.716C149.219 7.80476 145.758 5.13216 142.118 2.71898C140.839 1.81932 139.779 1.21954 139.12 0.719732C138.754 0.508663 138.406 0.267944 138.08 0C138.485 0.12096 138.869 0.302986 139.22 0.539799C139.919 0.939649 141.019 1.47944 142.338 2.33912C146.096 4.65082 149.653 7.27229 152.974 10.1762C164.069 19.7753 172.491 32.081 177.424 45.8977C182.356 59.7143 183.631 74.5719 181.124 89.0267C180.415 93.3582 179.352 97.6243 177.945 101.782C177.465 103.261 176.945 104.381 176.666 105.141C176.531 105.553 176.35 105.949 176.126 106.32Z" fill="#263238"/>
<path id="Vector_5" d="M190.44 69.5737C190.28 69.5737 190.18 66.5948 189.581 61.8366C188.78 55.6495 187.373 49.5559 185.382 43.6434C183.372 37.7558 180.78 32.0833 177.645 26.7098C175.206 22.5713 173.447 20.1722 173.647 20.0723C174.185 20.5226 174.656 21.0478 175.046 21.6317C175.866 22.7113 177.045 24.2907 178.325 26.3099C181.727 31.6265 184.478 37.3317 186.522 43.3036C188.58 49.2747 189.922 55.4691 190.52 61.7567C190.74 64.1558 190.8 66.115 190.8 67.4745C190.791 68.1888 190.669 68.8972 190.44 69.5737Z" fill="#263238"/>
<path id="Vector_6" d="M21.5636 32.2871C21.4443 32.686 21.2764 33.0688 21.0637 33.4267C20.7039 34.1664 20.0841 35.206 19.4443 36.6255C11.9157 51.5825 8.878 68.3992 10.698 85.0449C12.5179 101.691 19.1178 117.454 29.7005 130.43C32.4553 133.837 35.4484 137.044 38.6572 140.027C39.7767 141.106 40.6564 141.866 41.3162 142.426C41.6374 142.696 41.9381 142.991 42.2158 143.306C41.8407 143.11 41.4914 142.868 41.1762 142.586C40.5365 142.086 39.5568 141.366 38.3973 140.327C35.058 137.441 31.962 134.284 29.1407 130.89C19.7057 119.652 13.3417 106.163 10.6685 91.735C7.99522 77.3073 9.10385 62.4331 13.8864 48.561C15.2966 44.3824 17.0555 40.3296 19.1445 36.4455C19.8442 35.0461 20.524 34.0265 20.9238 33.3267C21.1079 32.9631 21.3219 32.6153 21.5636 32.2871Z" fill="#263238"/>
<path id="Vector_7" d="M1.591 66.2959C1.77093 66.2959 1.39106 69.2748 1.23112 74.073C1.01896 80.304 1.44098 86.5404 2.49065 92.686C3.56148 98.8378 5.24939 104.866 7.52878 110.679C9.26813 115.138 10.6276 117.797 10.4677 117.877C10.0178 117.335 9.64137 116.737 9.3481 116.097C8.68835 114.918 7.80868 113.178 6.84904 110.959C4.33895 105.198 2.52673 99.1574 1.45104 92.9659C0.389532 86.7481 0.0674211 80.4265 0.491403 74.133C0.671336 71.7139 0.91126 69.7746 1.13118 68.4351C1.1872 67.7045 1.34187 66.9849 1.591 66.2959Z" fill="#263238"/>
<path id="Vector_8" d="M157.933 87.7878C155.114 87.208 152.834 86.7081 152.834 86.6882C152.834 86.6682 155.134 87.108 157.952 87.6878C160.771 88.2676 163.051 88.7474 163.031 88.7674C163.011 88.7874 160.731 88.4475 157.933 87.7878Z" fill="#263238"/>
<path id="Vector_9" d="M150.695 106.68C148.216 105.221 146.217 104.021 146.217 104.001C146.217 103.981 148.216 105.141 150.735 106.6C153.254 108.06 155.214 109.259 155.194 109.279C155.174 109.299 153.154 108.14 150.695 106.68Z" fill="#263238"/>
<path id="Vector_10" d="M137.66 122.114C135.781 119.915 134.281 118.115 134.301 118.115C134.321 118.115 135.861 119.855 137.72 122.114C139.579 124.373 141.099 126.112 141.059 126.112C141.019 126.112 139.659 124.293 137.66 122.114Z" fill="#263238"/>
<path id="Vector_11" d="M120.446 132.511C119.387 129.832 118.547 127.652 118.567 127.652C118.587 127.652 119.467 129.792 120.566 132.471C121.666 135.15 122.466 137.309 122.426 137.329C122.386 137.349 121.506 135.17 120.446 132.511Z" fill="#263238"/>
<path id="Vector_12" d="M100.734 136.729C100.614 133.85 100.534 131.531 100.554 131.531C100.574 131.531 100.714 133.85 100.834 136.729C100.954 139.608 101.054 141.927 101.034 141.927C101.014 141.927 100.874 139.608 100.734 136.729Z" fill="#263238"/>
<path id="Vector_13" d="M80.7214 134.309C81.5211 131.55 82.1809 129.331 82.2209 129.331C82.2609 129.331 81.6211 131.59 80.8214 134.349C80.0217 137.108 79.3419 139.327 79.3019 139.327C79.262 139.327 79.9017 137.068 80.7214 134.309Z" fill="#263238"/>
<path id="Vector_14" d="M62.5482 125.554C64.2076 123.194 65.5671 121.315 65.6071 121.335C65.6471 121.355 64.2876 123.334 62.6282 125.614C60.9689 127.893 59.6893 129.772 59.6893 129.772C59.6893 129.772 60.8889 127.893 62.5482 125.554Z" fill="#263238"/>
<path id="Vector_15" d="M48.2535 111.358C50.5727 109.659 52.4719 108.319 52.4919 108.339C52.5119 108.359 50.6326 109.739 48.2935 111.438C45.9544 113.137 44.0751 114.457 44.0551 114.437C44.0351 114.417 45.9144 113.037 48.2535 111.358Z" fill="#263238"/>
<path id="Vector_16" d="M39.2969 93.2846C42.0559 92.4449 44.2951 91.7851 44.2951 91.8051C44.2951 91.8251 42.0759 92.5449 39.3169 93.3845C36.558 94.2242 34.3388 94.864 34.3388 94.844C34.3388 94.824 36.558 94.1243 39.2969 93.2846Z" fill="#263238"/>
<path id="Vector_17" d="M36.7178 73.2933C39.5967 73.2933 41.9159 73.4932 41.9159 73.5332C41.9159 73.5732 39.5767 73.5332 36.7178 73.3933C33.8589 73.2533 31.4998 73.1733 31.5198 73.1533C31.5398 73.1334 33.8389 73.1733 36.7178 73.2933Z" fill="#263238"/>
<path id="Vector_18" d="M40.7563 53.5205C43.4553 54.5602 45.6145 55.3998 45.6145 55.5198C45.6145 55.6398 43.4153 54.7201 40.7163 53.7005C38.0173 52.6809 35.8781 51.8212 35.8781 51.8012C35.8781 51.7812 38.0773 52.5009 40.7563 53.5205Z" fill="#263238"/>
<path id="Vector_19" d="M51.0126 36.1466C53.2118 38.0059 55.0111 39.5254 55.0111 39.5453C55.0111 39.5653 53.1918 38.0859 51.0126 36.2266C48.8334 34.3673 47.0141 32.8678 47.0141 32.8479C47.0141 32.8279 48.7934 34.3073 51.0126 36.1466Z" fill="#263238"/>
<path id="Vector_20" d="M66.3268 23.0713C67.8062 25.5304 69.0057 27.5296 68.9857 27.5496C68.9658 27.5696 67.7262 25.5504 66.2468 23.1113C64.7673 20.6722 63.5678 18.653 63.5878 18.633C63.6078 18.613 64.8473 20.6122 66.3268 23.0713Z" fill="#263238"/>
<path id="Vector_21" d="M85.0599 15.6339C85.6596 18.4528 86.1394 20.732 86.1195 20.732C86.0995 20.732 85.5797 18.4728 84.9599 15.6539C84.3401 12.8349 83.8803 10.5758 83.9203 10.5558C83.9603 10.5358 84.4601 12.8349 85.0599 15.6339Z" fill="#263238"/>
<path id="Vector_22" d="M105.192 14.7152C104.852 17.5741 104.552 19.8732 104.532 19.8732C104.512 19.8732 104.752 17.5541 105.112 14.6952C105.472 11.8362 105.752 9.53711 105.772 9.53711C105.792 9.53711 105.552 11.8163 105.192 14.7152Z" fill="#263238"/>
<path id="Vector_23" d="M124.565 20.3717C123.326 22.9507 122.286 25.05 122.266 25.03C122.246 25.01 123.226 22.9108 124.465 20.3117C125.705 17.7127 126.744 15.6335 126.784 15.6535C126.824 15.6735 125.805 17.8127 124.565 20.3717Z" fill="#263238"/>
<path id="Vector_24" d="M141.019 32.0073C139.02 34.0066 137.34 35.686 137.32 35.666C137.3 35.646 138.94 33.9666 140.959 31.9274C142.978 29.8881 144.638 28.2487 144.658 28.2687C144.678 28.2887 143.058 29.9681 141.019 32.0073Z" fill="#263238"/>
<path id="Vector_25" d="M152.814 48.3418C150.235 49.6214 148.136 50.641 148.136 50.621C148.136 50.601 150.135 49.5414 152.774 48.2619C155.413 46.9823 157.453 45.9627 157.453 45.9827C157.453 46.0027 155.393 47.0623 152.814 48.3418Z" fill="#263238"/>
<path id="Vector_26" d="M158.692 67.6342L153.514 68.254C153.514 68.254 155.813 67.8941 158.672 67.5343C161.531 67.1744 163.83 66.8745 163.83 66.8945C163.83 66.9145 161.531 67.2544 158.692 67.6342Z" fill="#263238"/>
<path id="Vector_27" d="M195.638 60.7383C194.529 64.1141 193.097 67.3747 191.36 70.4746L191.24 70.6945L190.84 71.5142L190.34 70.7545C188.329 67.9469 186.601 64.9467 185.182 61.7979C187.488 64.378 189.537 67.1769 191.3 70.1548H190.4L190.52 69.9148C191.925 66.6976 193.639 63.6243 195.638 60.7383Z" fill="#263238"/>
</g>
</svg>
