<svg width="96" height="118" viewBox="0 0 96 118" fill="none" xmlns="http://www.w3.org/2000/svg">
<g id="Document">
<path id="Vector" d="M61.9242 116.63L5.48534 92.7792C3.64089 91.9704 2.18812 90.4693 1.44016 88.5994C0.692194 86.7295 0.708941 84.6406 1.48683 82.7829L34.5944 4.65213C35.3991 2.80417 36.8999 1.34797 38.7712 0.599423C40.6426 -0.149125 42.7336 -0.129651 44.5907 0.653625L80.3973 15.808L95.9915 56.1129L72.0005 112.752C71.1698 114.595 69.6458 116.035 67.7593 116.762C65.8729 117.488 63.7761 117.44 61.9242 116.63Z" fill="#00B562"/>
<path id="Vector_2" d="M80.3773 15.6084L71.0608 37.6002C70.6921 38.4623 70.4974 39.3888 70.4879 40.3264C70.4783 41.2641 70.6542 42.1943 71.0054 43.0638C71.3565 43.9332 71.8759 44.7247 72.5339 45.3928C73.1919 46.0609 73.9753 46.5923 74.8393 46.9567L95.9714 55.9133L80.3773 15.6084Z" fill="#00B562"/>
<g id="Group" opacity="0.2">
<path id="Vector_3" d="M70.521 39.6602C69.8432 41.3324 69.751 43.1847 70.2591 44.916C70.7672 46.6473 71.8459 48.1559 73.3199 49.1966C73.518 49.361 73.725 49.5145 73.9397 49.6564C76.4988 51.3158 93.2925 62.2517 93.4724 61.8319L95.9715 55.8341L74.8394 46.8775C74.8394 46.8775 69.6013 44.5383 70.521 39.6602Z" fill="black"/>
</g>
<g id="Group_2" opacity="0.3">
<path id="Vector_4" d="M80.3773 15.6084L71.0608 37.6002C70.6921 38.4623 70.4974 39.3888 70.4879 40.3264C70.4783 41.2641 70.6542 42.1943 71.0054 43.0638C71.3565 43.9332 71.8759 44.7247 72.5339 45.3928C73.1919 46.0609 73.9753 46.5923 74.8393 46.9567L95.9714 55.9133L80.3773 15.6084Z" fill="white"/>
</g>
<path id="Vector_5" d="M66.7025 34.801C62.1535 33.4768 57.715 31.799 53.4275 29.7829C48.9974 28.1104 44.7001 26.1055 40.5723 23.7852C45.1321 25.0966 49.5782 26.7748 53.8673 28.8033C58.2963 30.463 62.5879 32.4685 66.7025 34.801Z" fill="#FAFAFA"/>
<path id="Vector_6" d="M78.2982 54.2734C78.1783 54.5533 68.4619 50.7148 56.5863 45.6766C44.7107 40.6385 35.1943 36.3601 35.3143 36.0602C35.4342 35.7603 45.1506 39.6389 57.0261 44.657C68.9017 49.6751 78.4182 53.9935 78.2982 54.2734Z" fill="#FAFAFA"/>
<path id="Vector_7" d="M77.7782 66.3088C77.6582 66.5887 67.0622 62.3103 54.127 56.8923C41.1919 51.4743 30.7957 46.7961 30.9157 46.4562C31.0357 46.1163 41.6117 50.4547 54.5669 55.8727C67.522 61.2906 77.8981 66.0089 77.7782 66.3088Z" fill="#FAFAFA"/>
<path id="Vector_8" d="M73.5998 76.1048C73.4798 76.3847 62.9037 72.1063 49.9686 66.6883C37.0334 61.2704 26.6373 56.5321 26.7373 56.2522C26.8372 55.9724 37.4533 60.2508 50.3885 65.6687C63.3236 71.0867 73.7397 75.8049 73.5998 76.1048Z" fill="#FAFAFA"/>
<path id="Vector_9" d="M69.4813 85.8827C69.3613 86.1826 58.7653 81.8842 45.8301 76.4862C32.895 71.0882 22.4989 66.33 22.6188 66.0501C22.7388 65.7702 33.3148 70.0486 46.27 75.4666C59.2251 80.8846 69.6013 85.6028 69.4813 85.8827Z" fill="#FAFAFA"/>
<path id="Vector_10" d="M65.3229 95.6776C65.2029 95.9775 54.6069 91.6791 41.6717 86.2811C28.7366 80.8831 18.3405 76.1249 18.4604 75.845C18.5804 75.5651 29.1764 79.8435 42.1116 85.2415C55.0467 90.6395 65.4428 95.3977 65.3229 95.6776Z" fill="#FAFAFA"/>
</g>
</svg>
