<svg width="18" height="19" viewBox="0 0 18 19" fill="none" xmlns="http://www.w3.org/2000/svg">
<g id="twemoji:flag-egypt" clip-path="url(#clip0_3604_2433)">
<path id="Vector" d="M18 14C18 14.5304 17.7893 15.0391 17.4142 15.4142C17.0391 15.7893 16.5304 16 16 16H2C1.46957 16 0.960859 15.7893 0.585786 15.4142C0.210714 15.0391 0 14.5304 0 14V5C0 4.46957 0.210714 3.96086 0.585786 3.58579C0.960859 3.21071 1.46957 3 2 3H16C16.5304 3 17.0391 3.21071 17.4142 3.58579C17.7893 3.96086 18 4.46957 18 5V14Z" fill="#242424"/>
<path id="Vector_2" d="M0 7H18V12H0V7Z" fill="#EEEEEE"/>
<path id="Vector_3" d="M16 3H2C1.46957 3 0.960859 3.21071 0.585786 3.58579C0.210714 3.96086 0 4.46957 0 5L0 7H18V5C18 4.46957 17.7893 3.96086 17.4142 3.58579C17.0391 3.21071 16.5304 3 16 3Z" fill="#CE1225"/>
<path id="Vector_4" d="M7.375 11.2809C7.375 11.2809 7.383 11.4059 7.492 11.4684C7.492 11.4684 7.461 11.5624 7.578 11.6169C7.695 11.6714 8.117 11.7574 8.8515 11.7574C9.586 11.7574 10 11.6794 10.1095 11.6244C10.219 11.5699 10.2265 11.4449 10.2265 11.4449C10.2265 11.4449 10.3435 11.3824 10.336 11.3044C10.328 11.2264 10.172 11.1404 10.172 11.1404C10.172 11.1404 10.133 11.0389 10.0235 10.9999C9.914 10.9609 9.5625 11.1719 8.8905 11.1404C8.2185 11.1094 7.836 11.0074 7.711 11.0154C7.586 11.0234 7.5315 11.1484 7.5315 11.1484C7.5315 11.1484 7.3905 11.2109 7.375 11.2809Z" fill="#BF9300"/>
<path id="Vector_5" d="M7.46124 11.2737C7.45474 11.3202 7.55524 11.4222 7.55524 11.4222C7.55524 11.4222 7.55524 11.5392 7.65674 11.5707C7.75824 11.6022 8.17224 11.6802 8.84424 11.6722C9.51624 11.6642 9.99274 11.6252 10.0472 11.5782C10.1017 11.5312 10.1487 11.4297 10.1487 11.4297C10.1487 11.4297 10.2582 11.3517 10.2502 11.2892C10.2422 11.2267 10.0862 11.1877 10.0862 11.1877C10.0862 11.1877 10.0422 11.0937 9.99024 11.0547C9.93824 11.0157 9.60224 11.2107 8.88324 11.2107C8.17974 11.2107 7.77374 11.0387 7.70374 11.0467C7.63324 11.0547 7.58674 11.1872 7.58674 11.1872C7.58674 11.1872 7.46924 11.2192 7.46124 11.2737Z" fill="#EEEEEE"/>
<path id="Vector_6" d="M10.4291 8.24186C10.4291 8.24186 10.4136 7.87486 10.0776 7.92136C9.74165 7.96836 9.71815 8.13236 9.35865 8.17136L9.28465 8.17836C9.22468 8.0158 9.19158 7.84456 9.18665 7.67136C9.18665 7.43686 9.25715 7.33536 9.01465 7.21836C8.77265 7.10136 8.72565 7.21036 8.72565 7.21036C8.72565 7.21036 8.53815 7.11636 8.45215 7.18686C8.36615 7.25736 8.41315 7.43686 8.45215 7.38236C8.49115 7.32786 8.64765 7.48386 8.64765 7.48386C8.70065 7.74336 8.55015 8.02436 8.44715 8.18086C8.41165 8.17736 8.38315 8.17586 8.34315 8.17136C7.98365 8.13236 7.96015 7.96836 7.62415 7.92136C7.28815 7.87436 7.27265 8.24186 7.27265 8.24186L7.13965 11.0779L7.41315 10.8669L7.41465 10.8334L7.98365 10.3279L8.07865 10.2329L7.84315 10.9214C7.84315 10.9214 7.48365 10.8979 7.58515 11.1869C7.58515 11.1869 7.63965 11.0229 7.73365 11.0539C7.82765 11.0849 8.10065 11.1554 8.10065 11.1554L8.19465 11.3039L8.31165 11.1944L8.67865 11.1789C8.67865 11.1789 8.79565 11.2099 8.78815 11.3119C8.80965 11.268 8.81615 11.2183 8.80665 11.1704L8.91715 11.1629C8.90528 11.2132 8.91129 11.266 8.93415 11.3124C8.92615 11.2109 9.04365 11.1794 9.04365 11.1794L9.41065 11.1949L9.52815 11.3044L9.62215 11.1559C9.62215 11.1559 9.89515 11.0854 9.98865 11.0544C10.0821 11.0234 10.1371 11.1874 10.1371 11.1874C10.2386 10.8984 9.87915 10.9219 9.87915 10.9219L9.65465 10.2654L9.71765 10.3284L10.2866 10.8339L10.2881 10.8674L10.5616 11.0784L10.4291 8.24186ZM8.87565 9.96086C8.31215 9.61286 8.26565 8.73436 8.26565 8.73436C8.26565 8.73436 8.61415 8.71636 8.86715 8.53886C9.09515 8.74136 9.48415 8.71836 9.48415 8.71836C9.48415 8.71836 9.45765 9.60036 8.87565 9.96086ZM10.1636 8.13286L9.68715 8.58586L9.60715 8.61786C9.52515 8.62086 9.12615 8.62186 8.87465 8.39836C8.56215 8.61736 8.13265 8.63286 8.13265 8.63286L8.06615 8.60636L7.53865 8.13286L7.40015 8.18986C7.40615 8.13336 7.43715 8.00636 7.60915 8.03136C7.89115 8.07186 8.00765 8.22686 8.30465 8.25786L8.38865 8.26636L8.35915 8.30436C8.40515 8.30436 8.47315 8.29086 8.52315 8.27986L8.57965 8.28536L8.55415 8.37436C8.59415 8.36236 8.65215 8.32786 8.69965 8.29736L8.82965 8.30986L8.85915 8.35086L8.95815 8.30136L9.02465 8.29486C9.08215 8.32836 9.16415 8.35836 9.16415 8.35836L9.17965 8.28036C9.25015 8.32736 9.36715 8.32736 9.36715 8.32736C9.35365 8.31636 9.34015 8.28836 9.32615 8.26436L9.39815 8.25686C9.69515 8.22586 9.81115 8.07086 10.0936 8.03036C10.2656 8.00586 10.2966 8.13236 10.3026 8.18886L10.1636 8.13286Z" fill="#BF9300"/>
<path id="Vector_7" d="M8.6875 9.94538L8.406 11.0154L7.9375 10.9219L8.422 9.54688L8.6875 9.94538ZM9.037 9.94538L9.318 11.0154L9.787 10.9219L9.3025 9.54688L9.037 9.94538Z" fill="#EEEEEE"/>
<path id="Vector_8" d="M8.38281 8.82074C8.38281 8.82074 8.42181 9.27374 8.62481 9.62524V8.71924C8.62481 8.71924 8.49181 8.79724 8.38281 8.82074ZM9.35931 8.83624C9.35931 8.83624 9.32031 9.28924 9.11731 9.64074V8.73474C9.11681 8.73474 9.24981 8.81274 9.35931 8.83624Z" fill="#BF9300"/>
<path id="Vector_9" d="M8.47656 7.28902C8.47656 7.28902 8.53106 7.23452 8.68756 7.34352C8.78906 7.41452 8.87906 7.46852 8.87906 7.46852C8.87906 7.46852 8.94306 7.40102 9.03706 7.41652C9.13106 7.43202 9.07856 7.56252 9.09406 7.83552C9.10956 8.10902 9.21906 8.22602 9.21906 8.22602L9.08606 8.14802L9.09406 8.23402L8.94556 8.16352L8.87506 8.26502L8.80456 8.15552L8.69056 8.22502L8.65606 8.13202L8.52306 8.20252C8.52306 8.20252 8.71856 7.96052 8.73406 7.69452C8.73856 7.61502 8.71856 7.43652 8.71856 7.43652C8.71856 7.43652 8.59406 7.28102 8.47656 7.28902Z" fill="#EEEEEE"/>
<path id="Vector_10" d="M7.77353 11.3279C7.68403 11.3814 7.71903 11.4139 7.77353 11.4374C7.82803 11.4609 8.15603 11.5004 8.82053 11.5154C9.50003 11.5309 9.92202 11.4529 9.97653 11.4214C10.031 11.3904 10.039 11.3354 9.94553 11.3199C9.85153 11.3044 9.38303 11.3824 8.81253 11.3824C8.10953 11.3829 7.81253 11.3044 7.77353 11.3279Z" fill="#BF9300"/>
</g>
<defs>
<clipPath id="clip0_3604_2433">
<rect width="18" height="18" fill="white" transform="translate(0 0.5)"/>
</clipPath>
</defs>
</svg>
