<svg width="22" height="22" viewBox="0 0 22 22" fill="none" xmlns="http://www.w3.org/2000/svg">
<g id="elements">
<path id="Vector" d="M7 12.5H15M7 7.5H11" stroke="#F5F5F5" stroke-width="1.5" stroke-linecap="round" stroke-linejoin="round"/>
<path id="Vector_2" d="M5.09881 18C3.7987 17.8721 2.82475 17.4816 2.17157 16.8284C1 15.6569 1 13.7712 1 10V9.5C1 5.72876 1 3.84315 2.17157 2.67157C3.34315 1.5 5.22876 1.5 9 1.5H13C16.7712 1.5 18.6569 1.5 19.8284 2.67157C21 3.84315 21 5.72876 21 9.5V10C21 13.7712 21 15.6569 19.8284 16.8284C18.6569 18 16.7712 18 13 18C12.4395 18.0125 11.9931 18.0551 11.5546 18.155C10.3562 18.4309 9.24652 19.0441 8.14987 19.5789C6.58729 20.3408 5.806 20.7218 5.31569 20.3651C4.37769 19.6665 5.29454 17.5019 5.5 16.5" stroke="#F5F5F5" stroke-width="1.5" stroke-linecap="round"/>
</g>
</svg>
