<svg width="22" height="22" viewBox="0 0 22 22" fill="none" xmlns="http://www.w3.org/2000/svg">
<g id="elements">
<path id="Rectangle 2400" d="M1 18.5C1 17.3215 1 16.7322 1.43934 16.3661C1.87868 16 2.58579 16 4 16C5.41421 16 6.12132 16 6.56066 16.3661C7 16.7322 7 17.3215 7 18.5C7 19.6785 7 20.2678 6.56066 20.6339C6.12132 21 5.41421 21 4 21C2.58579 21 1.87868 21 1.43934 20.6339C1 20.2678 1 19.6785 1 18.5Z" stroke="#F5F5F5" stroke-width="1.5"/>
<path id="Rectangle 2401" d="M15 18.5C15 17.3215 15 16.7322 15.4393 16.3661C15.8787 16 16.5858 16 18 16C19.4142 16 20.1213 16 20.5607 16.3661C21 16.7322 21 17.3215 21 18.5C21 19.6785 21 20.2678 20.5607 20.6339C20.1213 21 19.4142 21 18 21C16.5858 21 15.8787 21 15.4393 20.6339C15 20.2678 15 19.6785 15 18.5Z" stroke="#F5F5F5" stroke-width="1.5"/>
<path id="Rectangle 2402" d="M18 16C18 13.518 17.2562 13 13.6923 13H8.30769C4.74379 13 4 13.518 4 16" stroke="#F5F5F5" stroke-width="1.5" stroke-linecap="round" stroke-linejoin="round"/>
<path id="Vector" d="M11 5.5L12 4M15.5 5.5C15.5 7.98528 13.4853 10 11 10C8.51472 10 6.5 7.98528 6.5 5.5C6.5 3.01472 8.51472 1 11 1C13.4853 1 15.5 3.01472 15.5 5.5Z" stroke="#F5F5F5" stroke-width="1.5" stroke-linecap="round"/>
</g>
</svg>
