<svg width="22" height="22" viewBox="0 0 22 22" fill="none" xmlns="http://www.w3.org/2000/svg">
<g id="elements">
<path id="Vector" d="M13 1.20004C12.3538 1.06886 11.6849 1 11 1C5.47715 1 1 5.47715 1 11C1 16.5228 5.47715 21 11 21C16.5228 21 21 16.5228 21 11C21 10.3151 20.9311 9.64622 20.8 9" stroke="#F5F5F5" stroke-width="1.5" stroke-linecap="round"/>
<path id="Vector_2" d="M11 8C9.89543 8 9 8.67157 9 9.5C9 10.3284 9.89543 11 11 11C12.1046 11 13 11.6716 13 12.5C13 13.3284 12.1046 14 11 14M11 8C11.8708 8 12.6116 8.4174 12.8862 9M11 8V7M11 14C10.1292 14 9.38836 13.5826 9.1138 13M11 14V15" stroke="#F5F5F5" stroke-width="1.5" stroke-linecap="round"/>
<path id="Vector_3" d="M21.0699 2.03275C21.3641 1.74122 21.3663 1.26635 21.0748 0.972098C20.7832 0.677849 20.3084 0.675646 20.0141 0.967177L21.0699 2.03275ZM15.4721 5.46722C15.1779 5.75875 15.1757 6.23361 15.4672 6.52786C15.7587 6.82211 16.2336 6.82432 16.5279 6.53278L15.4721 5.46722ZM20.0283 1.22702L19.8975 1.96553L20.0283 1.22702ZM20.7728 1.97171L21.5113 1.84105V1.84105L20.7728 1.97171ZM16.5101 0.254221C16.0959 0.248552 15.7556 0.579712 15.7499 0.993887C15.7442 1.40806 16.0754 1.74841 16.4896 1.75408L16.5101 0.254221ZM20.2457 5.51028C20.2514 5.92445 20.5918 6.25559 21.0059 6.24989C21.4201 6.24419 21.7512 5.90382 21.7455 5.48965L20.2457 5.51028ZM20.0141 0.967177L15.4721 5.46722L16.5279 6.53278L21.0699 2.03275L20.0141 0.967177ZM19.8975 1.96553C19.948 1.97447 19.9755 1.99338 19.9909 2.00883C20.0064 2.02428 20.0253 2.05178 20.0343 2.10237L21.5113 1.84105C21.3872 1.13968 20.8607 0.612765 20.1591 0.488517L19.8975 1.96553ZM20.1591 0.488517C19.1444 0.308813 17.3469 0.265674 16.5101 0.254221L16.4896 1.75408C17.3571 1.76595 19.0255 1.8111 19.8975 1.96553L20.1591 0.488517ZM21.7455 5.48965C21.734 4.65283 21.6908 2.85561 21.5113 1.84105L20.0343 2.10237C20.1885 2.97444 20.2338 4.6428 20.2457 5.51028L21.7455 5.48965Z" fill="#F5F5F5"/>
</g>
</svg>
