<svg width="20" height="20" viewBox="0 0 20 20" fill="none" xmlns="http://www.w3.org/2000/svg">
<g id="elements">
<path id="Rectangle 2077" d="M19 15.4C19 17.0971 19 17.9456 18.3491 18.4728C17.6983 19 16.6507 19 14.5556 19H13.4444C11.3493 19 10.3017 19 9.65087 18.4728C9 17.9456 9 17.0971 9 15.4L9 4.6C9 2.90294 9 2.05442 9.65088 1.52721C10.3017 1 11.3493 1 13.4444 1L14.5556 1C16.6507 1 17.6983 1 18.3491 1.52721C19 2.05442 19 2.90294 19 4.6L19 15.4Z" stroke="#F5F5F5" stroke-width="1.5" stroke-linejoin="round"/>
<path id="Rectangle 2078" d="M1 3.04096C1 2.07884 1 1.59778 1.29289 1.29889C1.58579 1 2.05719 1 3 1C3.94281 1 4.41421 1 4.70711 1.29889C5 1.59778 5 2.07884 5 3.04096L5 13.8877C5 14.7952 5 15.2489 4.92429 15.6878C4.855 16.0895 4.73877 16.4813 4.57807 16.8547C4.40249 17.2628 4.15585 17.6403 3.66258 18.3954C3.44279 18.7318 3.33289 18.9 3.19487 18.9597C3.0703 19.0134 2.9297 19.0134 2.80513 18.9597C2.66711 18.9 2.55721 18.7318 2.33742 18.3954C1.84415 17.6403 1.59751 17.2628 1.42193 16.8548C1.26123 16.4813 1.14499 16.0895 1.07571 15.6878C1 15.2489 1 14.7952 1 13.8877L1 3.04096Z" stroke="#F5F5F5" stroke-width="1.5" stroke-linejoin="round"/>
<path id="Vector 4594" d="M9.5 14.5L11.5 14.5" stroke="#F5F5F5" stroke-width="1.5" stroke-linecap="round" stroke-linejoin="round"/>
<path id="Vector 4595" d="M9.5 10L11.5 10" stroke="#F5F5F5" stroke-width="1.5" stroke-linecap="round" stroke-linejoin="round"/>
<path id="Vector 4597" d="M9.5 5.5L11.5 5.5" stroke="#F5F5F5" stroke-width="1.5" stroke-linecap="round" stroke-linejoin="round"/>
<path id="Ellipse 1590" d="M5 5C5 5.55228 4.10457 6 3 6C1.89543 6 1 5.55228 1 5" stroke="#F5F5F5" stroke-width="1.5"/>
</g>
</svg>
