<svg width="104" height="101" viewBox="0 0 104 101" fill="none" xmlns="http://www.w3.org/2000/svg">
<g id="Group 427318933">
<g id="Group">
<g id="Group_2">
<g id="Group_3">
<g id="Group_4">
<g id="Group_5">
<path id="Vector" d="M50.8457 9.11902L15.2825 38.0432L92.7666 37.1345L56.3641 9.03901C54.7304 7.77735 52.4421 7.81086 50.8457 9.11902Z" fill="#00B562"/>
</g>
<g id="Group_6">
<path id="Vector_2" d="M92.663 82.4271L16.7169 83.3177C16.2174 83.3233 15.8078 82.9237 15.8022 82.4241L15.2856 38.4208C15.283 38.2125 15.4501 38.0414 15.6594 38.0385L92.6576 37.1353C92.866 37.1326 93.037 37.2997 93.0399 37.509L93.5565 81.5124C93.5621 82.0119 93.1625 82.4215 92.663 82.4271Z" fill="#00B562"/>
</g>
<g id="Group_7">
<path id="Vector_3" d="M87.9994 38.2427L56.4166 58.2298L19.9938 40.4897L20.4112 19.0526C20.421 16.7442 22.2814 14.8707 24.5901 14.8437L83.488 14.153C85.823 14.1259 87.7379 15.9961 87.766 18.3308L87.9994 38.2427Z" fill="white"/>
</g>
</g>
<g id="Group_8">
<path id="Vector_4" d="M53.407 55.3599L15.7371 79.8C15.7602 81.7107 17.3272 83.2407 19.2371 83.2188L90.1542 82.3788C92.0649 82.3557 93.5949 80.7887 93.573 78.8788L93.5699 78.6128L57.3531 55.3515C56.1498 54.5789 54.6059 54.5816 53.407 55.3599Z" fill="#00B562"/>
</g>
<g id="Group_9">
<path id="Vector_5" d="M50.5768 24.1538L27.5332 24.4272L27.5611 26.7812L50.6048 26.5077L50.5768 24.1538Z" fill="#00B562"/>
</g>
<g id="Group_10">
<path id="Vector_6" d="M78.7301 29.782L27.6045 30.3887L27.636 33.0455L78.7616 32.4388L78.7301 29.782Z" fill="#E0E0E0"/>
</g>
<g id="Group_11">
<path id="Vector_7" d="M78.8082 36.2786L27.6826 36.8853L27.7141 39.5421L78.8398 38.9354L78.8082 36.2786Z" fill="#E0E0E0"/>
</g>
<g id="Group_12">
<path id="Vector_8" d="M77.9129 44.6532L76.0431 45.8098L33.0019 46.8346L27.9982 44.3431L27.9333 43.7216L78.894 43.1175L78.9048 43.999L77.9129 44.6532Z" fill="#E0E0E0"/>
</g>
<g id="Group_13">
<path id="Vector_9" d="M65.0486 52.767L45.7122 52.9962L40.4312 50.4014L69.328 50.0592L65.0486 52.767Z" fill="#E0E0E0"/>
</g>
</g>
<g id="Group_14">
<g id="Group_15">
<path id="Vector_10" d="M52.0323 56.2513C52.0525 56.2821 51.5591 56.639 50.6487 57.2575C49.657 57.9169 48.349 58.7859 46.7673 59.8364C43.478 61.9943 38.9124 64.9442 33.8537 68.1754C28.7931 71.407 24.1956 74.308 20.8548 76.384C19.2367 77.3761 17.8991 78.1968 16.8838 78.8199C15.9403 79.3846 15.4094 79.6824 15.3902 79.6514C15.3711 79.6204 15.8655 79.2632 16.7756 78.6437C17.7673 77.9844 19.0762 77.1151 20.657 76.0649C23.9473 73.9067 28.5109 70.9573 33.5696 67.7261C38.6275 64.4962 43.2223 61.5969 46.5631 59.5209C48.1811 58.5288 49.5198 57.7079 50.535 57.0847C51.4812 56.5184 52.0122 56.2205 52.0323 56.2513Z" fill="white"/>
</g>
</g>
<g id="Group_16">
<g id="Group_17">
<path id="Vector_11" d="M93.5683 78.6111C93.4892 78.7343 85.7102 73.8901 76.1955 67.7923C66.6781 61.692 59.029 56.649 59.108 56.5257C59.1871 56.4024 66.9646 61.2449 76.482 67.3452C85.9967 73.443 93.6473 78.4878 93.5683 78.6111Z" fill="white"/>
</g>
</g>
<g id="Group_18">
<g id="Group_19">
<path id="Vector_12" d="M89.5055 37.2782C89.5256 37.309 89.1302 37.6157 88.3967 38.1458C87.6642 38.6756 86.5918 39.4261 85.2582 40.3403C82.5918 42.1684 78.8747 44.6463 74.7214 47.3074C70.5662 49.969 66.7597 52.309 63.9829 53.9646C62.5945 54.7924 61.464 55.4511 60.6755 55.8939C59.8871 56.3366 59.4426 56.5671 59.4234 56.5361C59.4043 56.505 59.8133 56.215 60.5684 55.7174C61.4148 55.1723 62.4952 54.4765 63.7862 53.6452C66.599 51.8537 70.3201 49.4821 74.4358 46.8606C78.5374 44.2205 82.2472 41.8327 85.0515 40.0276C86.3483 39.2032 87.4325 38.5139 88.2823 37.9742C89.0507 37.4965 89.4854 37.2474 89.5055 37.2782Z" fill="white"/>
</g>
</g>
<g id="Group_20">
<g id="Group_21">
<path id="Vector_13" d="M52.0321 56.2513C52.0149 56.2839 51.4906 56.0467 50.5583 55.5921C49.5419 55.0941 48.2133 54.4446 46.6122 53.66C43.1847 52.0149 38.6054 49.8165 33.5435 47.3876C28.4316 44.9478 23.8249 42.689 20.5325 40.9698C18.8854 40.1126 17.5623 39.3997 16.6595 38.8854C15.7552 38.3736 15.2644 38.0758 15.2816 38.0432C15.2989 38.0106 15.8231 38.2478 16.7554 38.7024C17.7719 39.2004 19.1005 39.8499 20.7015 40.6345C24.1291 42.2797 28.7083 44.478 33.7728 46.9084C38.8832 49.3464 43.4889 51.6055 46.7812 53.3247C48.4284 54.182 49.7514 54.8948 50.6542 55.4091C51.5585 55.9209 52.0493 56.2188 52.0321 56.2513Z" fill="white"/>
</g>
</g>
</g>
<g id="Group_22">
<g id="Group_23">
<path id="Vector_14" d="M87.9993 38.2423C87.9898 38.2425 87.9802 38.143 87.9686 37.9495C87.9591 37.726 87.9475 37.4422 87.9317 37.0901C87.9108 36.2961 87.8808 35.1904 87.8428 33.7853C87.7885 30.8752 87.7108 26.7318 87.6158 21.6286C87.6047 20.9866 87.5943 20.3297 87.5834 19.6582C87.5576 18.9904 87.603 18.2831 87.4866 17.6395C87.2549 16.3269 86.2745 15.105 84.9184 14.6218C84.2404 14.3529 83.5215 14.3628 82.7265 14.3881C81.9469 14.3992 81.1549 14.4112 80.3511 14.422C78.7427 14.4446 77.0893 14.4678 75.3928 14.491C68.602 14.5766 61.1437 14.6721 53.3133 14.7704C45.4806 14.8546 38.0196 14.935 31.2279 15.0082C29.5317 15.024 27.8766 15.0403 26.2685 15.0555C25.4747 15.0816 24.6448 15.0242 23.9337 15.135C23.206 15.2552 22.5294 15.5929 21.9934 16.0632C21.4519 16.5327 21.0547 17.1412 20.8324 17.7951C20.5903 18.4497 20.6214 19.1393 20.5987 19.8495C20.565 21.249 20.5336 22.5935 20.5033 23.8777C20.3682 28.9805 20.2589 33.1234 20.1818 36.0331C20.1335 37.4372 20.0952 38.5429 20.0679 39.3371C20.0502 39.69 20.0364 39.9727 20.0249 40.1961C20.0123 40.3892 20.0009 40.4886 19.9924 40.4886C19.983 40.4888 19.9764 40.3885 19.9712 40.1955C19.9689 39.9714 19.9659 39.6886 19.9615 39.3358C19.9646 38.5412 19.9703 37.4352 19.9762 36.0298C20.0122 33.1197 20.0649 28.9769 20.1283 23.8728C20.1482 22.589 20.168 21.2443 20.189 19.8447C20.2049 19.1624 20.1661 18.3896 20.4288 17.6607C20.6703 16.9349 21.1052 16.2573 21.7026 15.7332C22.2946 15.2083 23.0447 14.8274 23.8551 14.6891C24.6877 14.56 25.4529 14.6228 26.2637 14.5894C27.8721 14.5667 29.5265 14.5433 31.223 14.5201C38.0148 14.4343 45.4753 14.3393 53.3077 14.2405C61.1382 14.1558 68.5972 14.0758 75.3877 14.0019C77.0839 13.9861 78.738 13.9701 80.3461 13.9549C81.1496 13.9474 81.9418 13.9405 82.7214 13.9337C83.4785 13.9123 84.3303 13.9046 85.0704 14.2087C86.5725 14.756 87.6441 16.1152 87.8895 17.5652C88.0116 18.305 87.9545 18.9816 87.976 19.6536C87.9807 20.3255 87.9857 20.9816 87.9906 21.6241C88.0156 26.7286 88.0346 30.8728 88.0491 33.7831C88.0441 35.1883 88.0407 36.2948 88.0376 37.0894C88.0306 37.4429 88.0252 37.7256 88.021 37.9493C88.0161 38.1437 88.0087 38.2421 87.9993 38.2423Z" fill="#00B562"/>
</g>
</g>
</g>
</g>
</svg>
