<svg width="24" height="25" viewBox="0 0 24 25" fill="none" xmlns="http://www.w3.org/2000/svg">
<g id="Outline / Security / Eye">
<g id="Vector">
<path fill-rule="evenodd" clip-rule="evenodd" d="M12 8.75C9.92893 8.75 8.25 10.4289 8.25 12.5C8.25 14.5711 9.92893 16.25 12 16.25C14.0711 16.25 15.75 14.5711 15.75 12.5C15.75 10.4289 14.0711 8.75 12 8.75ZM9.75 12.5C9.75 11.2574 10.7574 10.25 12 10.25C13.2426 10.25 14.25 11.2574 14.25 12.5C14.25 13.7426 13.2426 14.75 12 14.75C10.7574 14.75 9.75 13.7426 9.75 12.5Z" fill="#9C9C9C"/>
<path fill-rule="evenodd" clip-rule="evenodd" d="M12 3.75C7.48587 3.75 4.44529 6.4542 2.68057 8.74686L2.64874 8.7882C2.24964 9.30653 1.88206 9.78392 1.63269 10.3484C1.36564 10.9529 1.25 11.6117 1.25 12.5C1.25 13.3883 1.36564 14.0471 1.63269 14.6516C1.88206 15.2161 2.24964 15.6935 2.64875 16.2118L2.68057 16.2531C4.44529 18.5458 7.48587 21.25 12 21.25C16.5141 21.25 19.5547 18.5458 21.3194 16.2531L21.3512 16.2118C21.7504 15.6935 22.1179 15.2161 22.3673 14.6516C22.6344 14.0471 22.75 13.3883 22.75 12.5C22.75 11.6117 22.6344 10.9529 22.3673 10.3484C22.1179 9.78391 21.7504 9.30652 21.3512 8.78818L21.3194 8.74686C19.5547 6.4542 16.5141 3.75 12 3.75ZM3.86922 9.6618C5.49864 7.54492 8.15036 5.25 12 5.25C15.8496 5.25 18.5014 7.54492 20.1308 9.6618C20.5694 10.2316 20.8263 10.5721 20.9952 10.9545C21.1532 11.312 21.25 11.7489 21.25 12.5C21.25 13.2511 21.1532 13.688 20.9952 14.0455C20.8263 14.4279 20.5694 14.7684 20.1308 15.3382C18.5014 17.4551 15.8496 19.75 12 19.75C8.15036 19.75 5.49864 17.4551 3.86922 15.3382C3.43064 14.7684 3.17374 14.4279 3.00476 14.0455C2.84684 13.688 2.75 13.2511 2.75 12.5C2.75 11.7489 2.84684 11.312 3.00476 10.9545C3.17374 10.5721 3.43063 10.2316 3.86922 9.6618Z" fill="#9C9C9C"/>
</g>
</g>
</svg>
