<svg width="20" height="21" viewBox="0 0 20 21" fill="none" xmlns="http://www.w3.org/2000/svg">
<g id="Outline / Sports / Football">
<path id="Vector" fill-rule="evenodd" clip-rule="evenodd" d="M2.31865 9.85375L2.64875 9.63554C3.14403 9.30816 3.47117 9.09078 3.703 8.89638C3.92248 8.71234 4.00578 8.58925 4.04946 8.47402C4.09316 8.35875 4.11242 8.21119 4.07015 7.92753C4.0255 7.62801 3.92477 7.24798 3.77117 6.67408L3.63177 6.15324C2.90052 7.22363 2.43182 8.48811 2.31865 9.85375ZM4.61003 4.98673C4.61779 5.00702 4.62458 5.0279 4.63032 5.04935L4.98763 6.38437C5.12989 6.91585 5.2501 7.36493 5.30649 7.74327C5.33542 7.93737 5.35012 8.12724 5.34105 8.31535L7.42427 9.19328C7.47103 9.146 7.52142 9.10154 7.57529 9.06034L9.10571 7.88985C9.18785 7.82703 9.27505 7.77408 9.3657 7.73101V5.47304C9.19206 5.41319 9.02501 5.33184 8.8592 5.23643C8.52787 5.04578 8.15404 4.76982 7.71175 4.44331L6.56336 3.59562C5.84029 3.95616 5.18181 4.42722 4.61003 4.98673ZM7.94973 3.06532L8.42619 3.41701C8.90388 3.76963 9.22046 4.00214 9.48263 4.153C9.73087 4.29584 9.87479 4.33155 9.99747 4.33288C10.1201 4.33421 10.2648 4.30162 10.5161 4.16418C10.7814 4.01903 11.1029 3.79342 11.5881 3.45122L12.1058 3.08609C11.4338 2.89422 10.7242 2.7915 9.9907 2.7915C9.28413 2.7915 8.59976 2.88682 7.94973 3.06532ZM13.4878 3.63083C13.4637 3.65453 13.4374 3.67659 13.4089 3.6967L12.2802 4.49272C11.831 4.80958 11.4513 5.0774 11.1159 5.26084C10.9517 5.35066 10.7866 5.427 10.6157 5.48278V7.73101C10.7064 7.77408 10.7936 7.82703 10.8757 7.88985L12.4061 9.06034C12.4609 9.10227 12.5122 9.14757 12.5596 9.19578L14.6936 8.31208C14.6848 8.12507 14.6995 7.93629 14.7283 7.74334C14.7847 7.36501 14.9049 6.91592 15.0472 6.38444L15.4045 5.04943C15.4066 5.04154 15.4088 5.03373 15.4112 5.026C14.8486 4.46741 14.2002 3.99519 13.4878 3.63083ZM16.3879 6.20979L16.2636 6.67416C16.11 7.24806 16.0093 7.62809 15.9646 7.92761C15.9224 8.21127 15.9416 8.35882 15.9853 8.4741C16.029 8.58933 16.1123 8.71242 16.3318 8.89646C16.5636 9.09086 16.8908 9.30824 17.386 9.63562L17.6596 9.81643C17.5431 8.48902 17.0907 7.25824 16.3879 6.20979ZM18.9333 10.8349C18.9374 10.7237 18.9394 10.612 18.9394 10.4998C18.9394 5.55297 14.9336 1.5415 9.9907 1.5415C5.04779 1.5415 1.04199 5.55297 1.04199 10.4998C1.04199 15.4467 5.04779 19.4582 9.9907 19.4582C14.6783 19.4582 18.5231 15.8504 18.9078 11.2585C18.9668 11.1219 18.9735 10.9719 18.9333 10.8349ZM17.6477 11.307L16.6678 10.6593C16.2092 10.3561 15.8216 10.0999 15.5286 9.85429C15.388 9.73639 15.2592 9.61299 15.1466 9.4774L12.9698 10.3789C12.9598 10.4695 12.9412 10.56 12.9136 10.6494L12.3125 12.5969C12.2915 12.6647 12.266 12.7301 12.2361 12.7929L13.4596 14.208C13.6467 14.1455 13.8424 14.1082 14.0466 14.0849C14.4263 14.0415 14.8908 14.0415 15.4403 14.0415H16.8209C16.8241 14.0415 16.8273 14.0415 16.8305 14.0416C17.2622 13.2075 17.5461 12.2844 17.6477 11.307ZM16.0216 15.2915H15.475C14.8815 15.2915 14.4889 15.2925 14.1885 15.3268C13.9042 15.3593 13.7671 15.416 13.6675 15.4879C13.5678 15.5599 13.4706 15.6722 13.3497 15.9323C13.2221 16.2068 13.0971 16.5795 12.9094 17.1432L12.7209 17.7094C14.0287 17.2126 15.1662 16.3694 16.0216 15.2915ZM11.2728 18.1018L11.7343 16.7154C11.9081 16.1934 12.055 15.7524 12.2161 15.4055C12.2887 15.2494 12.3686 15.102 12.4621 14.9656L11.2669 13.583C11.1551 13.6104 11.0388 13.6248 10.92 13.6248H9.06139C8.95118 13.6248 8.84316 13.6124 8.73891 13.5888L7.67518 14.9434C7.7754 15.086 7.86006 15.2409 7.93654 15.4055C8.0977 15.7524 8.24454 16.1934 8.41832 16.7154L8.88926 18.1299C9.24899 18.1815 9.61674 18.2082 9.9907 18.2082C10.4275 18.2082 10.8558 18.1717 11.2728 18.1018ZM7.45545 17.7804L7.24328 17.1432C7.05561 16.5795 6.93053 16.2068 6.80294 15.9323C6.68212 15.6722 6.5849 15.5599 6.4852 15.4879C6.38556 15.416 6.24852 15.3593 5.96414 15.3268C5.66375 15.2925 5.27116 15.2915 4.67765 15.2915H3.95977C4.85741 16.4226 6.06574 17.2953 7.45545 17.7804ZM3.16288 14.0646C3.21659 14.0495 3.27322 14.0415 3.33173 14.0415H4.71235C5.26186 14.0415 5.72636 14.0415 6.10609 14.0849C6.3017 14.1072 6.48951 14.1424 6.66942 14.2002L7.75644 12.8159C7.7218 12.7462 7.69243 12.673 7.66893 12.5969L7.06781 10.6494C7.03992 10.559 7.0212 10.4674 7.01129 10.3757L4.88591 9.48001C4.77389 9.61454 4.64583 9.73709 4.50616 9.85421C4.21319 10.0999 3.82558 10.3561 3.36696 10.6592L2.33718 11.3399C2.44263 12.3141 2.72936 13.2339 3.16288 14.0646ZM9.9907 8.84018C9.94615 8.84018 9.90231 8.85428 9.86509 8.88275L8.33467 10.0532C8.29954 10.0801 8.27482 10.1164 8.26221 10.1573C8.25 10.1969 8.24949 10.2395 8.26221 10.2807L8.86333 12.2282C8.8762 12.2699 8.9009 12.3048 8.93342 12.3304C8.96944 12.3588 9.01385 12.3748 9.06139 12.3748H10.92C10.9676 12.3748 11.012 12.3588 11.048 12.3304C11.0805 12.3048 11.1052 12.2699 11.1181 12.2282L11.7192 10.2807C11.7319 10.2395 11.7314 10.1969 11.7192 10.1573C11.7066 10.1164 11.6819 10.0801 11.6467 10.0532L10.1163 8.88275C10.0791 8.85428 10.0353 8.84018 9.9907 8.84018Z" fill="#5E5D5D"/>
</g>
</svg>
