<svg width="57" height="56" viewBox="0 0 57 56" fill="none" xmlns="http://www.w3.org/2000/svg">
<g id="Outline / Sports / Football">
<path id="Vector" fill-rule="evenodd" clip-rule="evenodd" d="M6.99114 26.1909L7.91543 25.58C9.3022 24.6633 10.2182 24.0546 10.8673 23.5103C11.4819 22.995 11.7151 22.6504 11.8374 22.3277C11.9598 22.0049 12.0137 21.5918 11.8953 20.7976C11.7703 19.9589 11.4883 18.8948 11.0582 17.2879L10.6679 15.8295C8.62038 18.8266 7.30803 22.3672 6.99114 26.1909ZM13.407 12.5633C13.4287 12.6201 13.4478 12.6786 13.4638 12.7386L14.4643 16.4767C14.8626 17.9648 15.1992 19.2223 15.3571 20.2816C15.4381 20.8251 15.4793 21.3567 15.4539 21.8834L21.2869 24.3416C21.4178 24.2093 21.5589 24.0848 21.7097 23.9694L25.9949 20.692C26.2249 20.5161 26.4691 20.3679 26.7229 20.2473V13.925C26.2367 13.7574 25.7689 13.5296 25.3047 13.2625C24.377 12.7286 23.3303 11.9559 22.0918 11.0417L18.8763 8.66819C16.8517 9.6777 15.008 10.9967 13.407 12.5633ZM22.7582 7.18334L24.0923 8.1681C25.4298 9.15541 26.3162 9.80645 27.0503 10.2288C27.7454 10.6288 28.1483 10.7288 28.4918 10.7325C28.8353 10.7362 29.2403 10.645 29.9439 10.2602C30.6869 9.85374 31.5871 9.22204 32.9457 8.26388L34.3953 7.2415C32.5135 6.70428 30.5267 6.41667 28.4729 6.41667C26.4945 6.41667 24.5783 6.68355 22.7582 7.18334ZM38.2647 8.76678C38.1973 8.83315 38.1236 8.89491 38.0438 8.95122L34.8835 11.1801C33.6257 12.0673 32.5625 12.8172 31.6235 13.3308C31.1637 13.5823 30.7014 13.7961 30.2229 13.9523V20.2473C30.4767 20.3679 30.7209 20.5161 30.9509 20.692L35.2361 23.9694C35.3896 24.0868 35.533 24.2137 35.6658 24.3486L41.6409 21.8743C41.6165 21.3506 41.6576 20.8221 41.7382 20.2818C41.8961 19.2225 42.2326 17.965 42.631 16.4769L43.6314 12.7389C43.6374 12.7168 43.6437 12.6949 43.6504 12.6733C42.0749 11.1092 40.2596 9.78698 38.2647 8.76678ZM46.3851 15.9879L46.0371 17.2881C45.607 18.895 45.3249 19.9591 45.1999 20.7978C45.0816 21.592 45.1355 22.0052 45.2579 22.3279C45.3802 22.6506 45.6134 22.9952 46.228 23.5105C46.8771 24.0549 47.7931 24.6635 49.1798 25.5802L49.9457 26.0865C49.6197 22.3697 48.3528 18.9235 46.3851 15.9879ZM53.5121 28.938C53.5235 28.6268 53.5293 28.3141 53.5293 28C53.5293 14.1488 42.3131 2.91667 28.4729 2.91667C14.6327 2.91667 3.4165 14.1488 3.4165 28C3.4165 41.8512 14.6327 53.0833 28.4729 53.0833C41.5982 53.0833 52.3636 42.9816 53.4407 30.1242C53.606 29.7418 53.6247 29.3217 53.5121 28.938ZM49.9125 30.2601L47.1688 28.4464C45.8847 27.5977 44.7994 26.8803 43.9791 26.1925C43.5854 25.8623 43.2247 25.5168 42.9095 25.1372L36.8143 27.6613C36.7863 27.915 36.7342 28.1686 36.657 28.4187L34.9739 33.8717C34.9153 34.0616 34.8436 34.2448 34.7601 34.4206L38.1857 38.3829C38.7096 38.2078 39.2576 38.1035 39.8293 38.0381C40.8926 37.9166 42.1932 37.9166 43.7318 37.9167H47.5975C47.6065 37.9167 47.6154 37.9167 47.6243 37.9169C48.833 35.5815 49.6281 32.9969 49.9125 30.2601ZM45.3595 41.4167H43.829C42.1672 41.4167 41.0679 41.4193 40.2268 41.5155C39.4305 41.6065 39.0468 41.7653 38.7679 41.9666C38.4887 42.1681 38.2165 42.4827 37.8782 43.2108C37.5209 43.9796 37.1707 45.0231 36.6452 46.6014L36.1174 48.1868C39.7792 46.7958 42.9644 44.4347 45.3595 41.4167ZM32.0627 49.2854L33.3551 45.4037C33.8417 43.9421 34.2528 42.7071 34.7041 41.7359C34.9072 41.2988 35.1309 40.8861 35.3929 40.504L32.0461 36.6329C31.7332 36.7096 31.4077 36.75 31.075 36.75H25.8708C25.5622 36.75 25.2598 36.7152 24.9679 36.649L21.9894 40.442C22.27 40.8414 22.5071 41.275 22.7212 41.7359C23.1725 42.707 23.5837 43.9421 24.0702 45.4036L25.3889 49.3641C26.3961 49.5086 27.4258 49.5833 28.4729 49.5833C29.6959 49.5833 30.8952 49.4813 32.0627 49.2854ZM21.3742 48.3856L20.7801 46.6014C20.2546 45.0231 19.9044 43.9796 19.5472 43.2108C19.2088 42.4827 18.9366 42.1681 18.6575 41.9666C18.3785 41.7653 17.9948 41.6065 17.1985 41.5155C16.3574 41.4193 15.2582 41.4167 13.5963 41.4167H11.5863C14.0997 44.5837 17.483 47.0273 21.3742 48.3856ZM9.355 37.9813C9.50539 37.9392 9.66396 37.9167 9.82778 37.9167H13.6935C15.2321 37.9166 16.5327 37.9166 17.596 38.0381C18.1437 38.1007 18.6696 38.1991 19.1733 38.3612L22.217 34.4851C22.12 34.2898 22.0377 34.0849 21.9719 33.8717L20.2888 28.4187C20.2107 28.1657 20.1583 27.9091 20.1306 27.6524L14.1795 25.1445C13.8658 25.5212 13.5073 25.8643 13.1162 26.1922C12.2959 26.8801 11.2106 27.5974 9.92642 28.4462L7.04303 30.3522C7.33829 33.08 8.14113 35.6552 9.355 37.9813ZM28.4729 23.353C28.3481 23.353 28.2254 23.3925 28.1212 23.4721L23.836 26.7495C23.7376 26.8248 23.6684 26.9265 23.6331 27.0409C23.5989 27.1516 23.5975 27.271 23.6331 27.3864L25.3162 32.8394C25.3523 32.9562 25.4214 33.054 25.5125 33.1257C25.6133 33.2051 25.7377 33.25 25.8708 33.25H31.075C31.2081 33.25 31.3324 33.2051 31.4333 33.1257C31.5243 33.054 31.5935 32.9562 31.6296 32.8394L33.3127 27.3864C33.3483 27.271 33.3469 27.1516 33.3127 27.0409C33.2774 26.9265 33.2082 26.8248 33.1098 26.7495L28.8246 23.4721C28.7204 23.3925 28.5977 23.353 28.4729 23.353Z" fill="#F5F5F5"/>
</g>
</svg>
