<svg width="172" height="112" viewBox="0 0 172 112" fill="none" xmlns="http://www.w3.org/2000/svg">
<g id="Goal">
<g id="Group">
<g id="Group_2">
<g id="Group_3">
<path id="Vector" d="M171.591 111.342H167.401V7.9382C167.401 6.3536 166.111 5.0648 164.527 5.0648H7.73117C6.14657 5.0648 4.85777 6.3536 4.85777 7.9382V111.342H0.667969V7.9382C0.667969 4.0436 3.83657 0.875 7.73117 0.875H164.527C168.421 0.875 171.59 4.0436 171.59 7.9382L171.591 111.342Z" fill="#00B562"/>
</g>
</g>
<g id="Group_4">
<g id="Group_5">
<g id="Group_6">
<g id="Group_7">
<path id="Vector_2" d="M26.9295 94.5461C26.9427 94.5947 21.6273 96.1157 15.0585 97.9439C8.48732 99.7727 3.15092 101.215 3.13772 101.166C3.12452 101.118 8.43872 99.5969 15.0099 97.7687C21.5787 95.9411 26.9163 94.4981 26.9295 94.5461Z" fill="#242424"/>
</g>
</g>
</g>
<g id="Group_8">
<g id="Group_9">
<g id="Group_10">
<path id="Vector_3" d="M26.9295 86.8464C26.9427 86.8944 21.6273 88.416 15.0585 90.2442C8.48732 92.073 3.15092 93.5154 3.13772 93.4668C3.12452 93.4182 8.43872 91.8972 15.0099 90.069C21.5787 88.2408 26.9163 86.7978 26.9295 86.8464Z" fill="#242424"/>
</g>
</g>
</g>
<g id="Group_11">
<g id="Group_12">
<g id="Group_13">
<path id="Vector_4" d="M26.9295 79.1457C26.9427 79.1943 21.6273 80.7153 15.0585 82.5429C8.48732 84.3717 3.15092 85.8141 3.13772 85.7655C3.12452 85.7169 8.43872 84.1959 15.0099 82.3677C21.5787 80.5401 26.9163 79.0971 26.9295 79.1457Z" fill="#242424"/>
</g>
</g>
</g>
<g id="Group_14">
<g id="Group_15">
<g id="Group_16">
<path id="Vector_5" d="M26.9295 71.4455C26.9427 71.4941 21.6273 73.0151 15.0585 74.8433C8.48732 76.6721 3.15092 78.1145 3.13772 78.0659C3.12452 78.0173 8.43872 76.4963 15.0099 74.6681C21.5787 72.8399 26.9163 71.3975 26.9295 71.4455Z" fill="#242424"/>
</g>
</g>
</g>
<g id="Group_17">
<g id="Group_18">
<g id="Group_19">
<path id="Vector_6" d="M26.9295 63.7448C26.9427 63.7934 21.6273 65.3144 15.0585 67.142C8.48732 68.9708 3.15092 70.4132 3.13772 70.3646C3.12452 70.316 8.43872 68.795 15.0099 66.9668C21.5787 65.1392 26.9163 63.6968 26.9295 63.7448Z" fill="#242424"/>
</g>
</g>
</g>
<g id="Group_20">
<g id="Group_21">
<g id="Group_22">
<path id="Vector_7" d="M26.9295 56.0446C26.9427 56.0932 21.6273 57.6142 15.0585 59.4424C8.48732 61.2712 3.15092 62.7136 3.13772 62.665C3.12452 62.6164 8.43872 61.0954 15.0099 59.2672C21.5787 57.4396 26.9163 55.9966 26.9295 56.0446Z" fill="#242424"/>
</g>
</g>
</g>
<g id="Group_23">
<g id="Group_24">
<g id="Group_25">
<path id="Vector_8" d="M26.9295 48.3449C26.9427 48.3935 21.6273 49.9145 15.0585 51.7427C8.48732 53.5709 3.15092 55.0139 3.13772 54.9653C3.12452 54.9167 8.43872 53.3957 15.0099 51.5675C21.5787 49.7393 26.9163 48.2963 26.9295 48.3449Z" fill="#242424"/>
</g>
</g>
</g>
<g id="Group_26">
<g id="Group_27">
<g id="Group_28">
<path id="Vector_9" d="M26.9295 40.6438C26.9427 40.6924 21.6273 42.2134 15.0585 44.0416C8.48732 45.8704 3.15092 47.3128 3.13772 47.2642C3.12452 47.2156 8.43872 45.6946 15.0099 43.8664C21.5787 42.0382 26.9163 40.5952 26.9295 40.6438Z" fill="#242424"/>
</g>
</g>
</g>
<g id="Group_29">
<g id="Group_30">
<g id="Group_31">
<path id="Vector_10" d="M26.9295 32.9436C26.9427 32.9922 21.6273 34.5132 15.0585 36.3414C8.48732 38.1702 3.15092 39.6126 3.13772 39.564C3.12452 39.5154 8.43872 37.9944 15.0099 36.1662C21.5787 34.338 26.9163 32.895 26.9295 32.9436Z" fill="#242424"/>
</g>
</g>
</g>
<g id="Group_32">
<g id="Group_33">
<g id="Group_34">
<path id="Vector_11" d="M26.9295 25.2443C26.9427 25.2929 21.6273 26.8139 15.0585 28.6421C8.48732 30.4709 3.15092 31.9133 3.13772 31.8647C3.12452 31.8161 8.43872 30.2951 15.0099 28.4669C21.5787 26.6387 26.9163 25.1963 26.9295 25.2443Z" fill="#242424"/>
</g>
</g>
</g>
<g id="Group_35">
<g id="Group_36">
<g id="Group_37">
<path id="Vector_12" d="M21.4563 19.0665C21.4695 19.1151 17.3799 20.2953 12.3219 21.7029C7.26272 23.1105 3.15153 24.2127 3.13773 24.1641C3.12453 24.1155 7.21352 22.9353 12.2727 21.5277C17.3307 20.1201 21.4425 19.0179 21.4563 19.0665Z" fill="#242424"/>
</g>
</g>
</g>
<g id="Group_38">
<g id="Group_39">
<g id="Group_40">
<path id="Vector_13" d="M15.034 14.2473C15.0364 14.2593 14.8732 14.3061 14.575 14.3787C14.2414 14.4555 13.8172 14.5527 13.309 14.6697C12.2386 14.9061 10.7566 15.2187 9.11558 15.5433C5.83898 16.1913 3.13898 16.6413 3.13778 16.4631C3.12878 16.5015 3.80318 16.3899 4.87778 16.1865C5.98838 15.9693 7.45658 15.6825 9.08018 15.3651C10.7038 15.0477 12.1726 14.7609 13.2832 14.5437C13.7956 14.4495 14.224 14.3715 14.5606 14.3097C14.863 14.2581 15.0316 14.2353 15.034 14.2473Z" fill="#242424"/>
</g>
</g>
</g>
<g id="Group_41">
<g id="Group_42">
<g id="Group_43">
<path id="Vector_14" d="M9.08632 108.557C9.03592 108.557 8.99512 86.8132 8.99512 59.9968C8.99512 33.1708 9.03592 11.4316 9.08632 11.4316C9.13672 11.4316 9.17752 33.1708 9.17752 59.9968C9.17692 86.8126 9.13612 108.557 9.08632 108.557Z" fill="#242424"/>
</g>
</g>
</g>
<g id="Group_44">
<g id="Group_45">
<g id="Group_46">
<path id="Vector_15" d="M15.0346 106.481C14.9842 106.481 14.9434 85.8318 14.9434 60.3666C14.9434 34.8918 14.9842 14.2476 15.0346 14.2476C15.085 14.2476 15.1258 34.8918 15.1258 60.3666C15.1252 85.8324 15.085 106.481 15.0346 106.481Z" fill="#242424"/>
</g>
</g>
</g>
<g id="Group_47">
<g id="Group_48">
<g id="Group_49">
<path id="Vector_16" d="M21.3174 104.356C21.3174 104.356 21.3114 104.281 21.3078 104.134C21.3054 103.981 21.3024 103.766 21.2982 103.485C21.294 102.908 21.2874 102.067 21.2796 100.989C21.2688 98.8143 21.2538 95.6781 21.2352 91.8057C21.1896 84.0465 21.1272 73.3383 21.0582 61.5105C20.9826 49.6761 20.9376 38.9637 20.9346 31.2093C20.94 27.3369 20.9448 24.2013 20.9478 22.0269C20.9544 20.9481 20.9598 20.1075 20.9634 19.5303C20.967 19.2495 20.97 19.0335 20.9718 18.8811C20.9748 18.7347 20.9808 18.6597 20.9808 18.6597C20.9808 18.6597 20.9868 18.7347 20.9904 18.8811C20.9928 19.0335 20.9958 19.2495 21 19.5303C21.0042 20.1075 21.0108 20.9475 21.0186 22.0269C21.0294 24.2013 21.0444 27.3369 21.063 31.2093C21.108 38.9685 21.171 49.6779 21.24 61.5093C21.3156 73.3395 21.3606 84.0513 21.3636 91.8051C21.3582 95.6775 21.3534 98.8131 21.3504 100.988C21.3438 102.067 21.3384 102.907 21.3348 103.485C21.3312 103.765 21.3282 103.981 21.3264 104.134C21.324 104.281 21.3174 104.356 21.3174 104.356Z" fill="#242424"/>
</g>
</g>
</g>
</g>
<g id="Group_50">
<g id="Group_51">
<g id="Group_52">
<g id="Group_53">
<path id="Vector_17" d="M144.25 93.9074C144.263 93.8588 149.601 95.3018 156.17 97.13C162.741 98.9588 168.055 100.479 168.042 100.528C168.029 100.576 162.692 99.1334 156.121 97.3052C149.552 95.4776 144.236 93.956 144.25 93.9074Z" fill="#242424"/>
</g>
</g>
</g>
<g id="Group_54">
<g id="Group_55">
<g id="Group_56">
<path id="Vector_18" d="M144.25 86.2077C144.263 86.1591 149.601 87.6021 156.17 89.4297C162.741 91.2585 168.055 92.7795 168.042 92.8275C168.029 92.8761 162.692 91.4331 156.121 89.6049C149.552 87.7773 144.236 86.2557 144.25 86.2077Z" fill="#242424"/>
</g>
</g>
</g>
<g id="Group_57">
<g id="Group_58">
<g id="Group_59">
<path id="Vector_19" d="M144.25 78.5071C144.263 78.4585 149.601 79.9015 156.17 81.7291C162.741 83.5579 168.055 85.0789 168.042 85.1269C168.029 85.1755 162.692 83.7325 156.121 81.9043C149.552 80.0767 144.236 78.5551 144.25 78.5071Z" fill="#242424"/>
</g>
</g>
</g>
<g id="Group_60">
<g id="Group_61">
<g id="Group_62">
<path id="Vector_20" d="M144.25 70.8069C144.263 70.7583 149.601 72.2013 156.17 74.0295C162.741 75.8583 168.055 77.3787 168.042 77.4273C168.029 77.4759 162.692 76.0329 156.121 74.2047C149.552 72.3765 144.236 70.8549 144.25 70.8069Z" fill="#242424"/>
</g>
</g>
</g>
<g id="Group_63">
<g id="Group_64">
<g id="Group_65">
<path id="Vector_21" d="M144.25 63.1067C144.263 63.0581 149.601 64.5011 156.17 66.3293C162.741 68.1581 168.055 69.6785 168.042 69.7271C168.029 69.7757 162.692 68.3327 156.121 66.5045C149.552 64.6763 144.236 63.1553 144.25 63.1067Z" fill="#242424"/>
</g>
</g>
</g>
<g id="Group_66">
<g id="Group_67">
<g id="Group_68">
<path id="Vector_22" d="M144.25 55.406C144.263 55.3574 149.601 56.8004 156.17 58.6286C162.741 60.4574 168.055 61.9778 168.042 62.0264C168.029 62.075 162.692 60.632 156.121 58.8038C149.552 56.9756 144.236 55.4546 144.25 55.406Z" fill="#242424"/>
</g>
</g>
</g>
<g id="Group_69">
<g id="Group_70">
<g id="Group_71">
<path id="Vector_23" d="M144.25 47.7053C144.263 47.6567 149.601 49.0997 156.17 50.9279C162.741 52.7561 168.055 54.2777 168.042 54.3257C168.029 54.3743 162.692 52.9313 156.121 51.1031C149.552 49.2755 144.236 47.7539 144.25 47.7053Z" fill="#242424"/>
</g>
</g>
</g>
<g id="Group_72">
<g id="Group_73">
<g id="Group_74">
<path id="Vector_24" d="M144.25 40.0061C144.263 39.9575 149.601 41.4005 156.17 43.2287C162.741 45.0575 168.055 46.5785 168.042 46.6265C168.029 46.6751 162.692 45.2321 156.121 43.4039C149.552 41.5757 144.236 40.0541 144.25 40.0061Z" fill="#242424"/>
</g>
</g>
</g>
<g id="Group_75">
<g id="Group_76">
<g id="Group_77">
<path id="Vector_25" d="M144.25 32.3049C144.263 32.2563 149.601 33.6993 156.17 35.5269C162.741 37.3557 168.055 38.8767 168.042 38.9247C168.029 38.9727 162.692 37.5303 156.121 35.7021C149.552 33.8745 144.236 32.3535 144.25 32.3049Z" fill="#242424"/>
</g>
</g>
</g>
<g id="Group_78">
<g id="Group_79">
<g id="Group_80">
<path id="Vector_26" d="M144.25 24.6047C144.263 24.5561 149.601 25.9991 156.17 27.8273C162.741 29.6561 168.055 31.1765 168.042 31.2251C168.029 31.2731 162.692 29.8307 156.121 28.0025C149.552 26.1743 144.236 24.6533 144.25 24.6047Z" fill="#242424"/>
</g>
</g>
</g>
<g id="Group_81">
<g id="Group_82">
<g id="Group_83">
<path id="Vector_27" d="M149.724 18.4278C149.737 18.3792 153.849 19.4814 158.907 20.889C163.966 22.2966 168.055 23.4768 168.042 23.5254C168.028 23.574 163.917 22.4718 158.857 21.0642C153.801 19.656 149.71 18.4758 149.724 18.4278Z" fill="#242424"/>
</g>
</g>
</g>
<g id="Group_84">
<g id="Group_85">
<g id="Group_86">
<path id="Vector_28" d="M156.146 13.6083C156.148 13.5957 156.317 13.6191 156.619 13.6707C156.956 13.7325 157.384 13.8111 157.896 13.9047C159.008 14.1219 160.476 14.4087 162.099 14.7261C163.723 15.0435 165.191 15.3303 166.302 15.5475C167.376 15.7515 168.051 15.8625 168.042 15.8241C168.041 16.0029 165.341 15.5523 162.064 14.9043C160.423 14.5797 158.941 14.2671 157.87 14.0307C157.362 13.9143 156.938 13.8165 156.605 13.7397C156.307 13.6671 156.143 13.6209 156.146 13.6083Z" fill="#242424"/>
</g>
</g>
</g>
<g id="Group_87">
<g id="Group_88">
<g id="Group_89">
<path id="Vector_29" d="M162.094 107.918C162.043 107.918 162.003 86.1742 162.003 59.3572C162.003 32.5312 162.044 10.792 162.094 10.792C162.144 10.792 162.185 32.5312 162.185 59.3572C162.184 86.1736 162.143 107.918 162.094 107.918Z" fill="#242424"/>
</g>
</g>
</g>
<g id="Group_90">
<g id="Group_91">
<g id="Group_92">
<path id="Vector_30" d="M156.145 105.842C156.095 105.842 156.055 85.1931 156.055 59.7279C156.055 34.2531 156.095 13.6089 156.145 13.6089C156.196 13.6089 156.236 34.2531 156.236 59.7279C156.236 85.1937 156.196 105.842 156.145 105.842Z" fill="#242424"/>
</g>
</g>
</g>
<g id="Group_93">
<g id="Group_94">
<g id="Group_95">
<path id="Vector_31" d="M149.863 103.717C149.863 103.717 149.857 103.642 149.854 103.496C149.852 103.343 149.849 103.127 149.845 102.846C149.842 102.269 149.836 101.429 149.83 100.35C149.827 98.1749 149.822 95.0393 149.816 91.1669C149.819 83.4125 149.864 72.7013 149.94 60.8711C150.009 49.0397 150.071 38.3297 150.117 30.5711C150.136 26.6987 150.151 23.5631 150.161 21.3887C150.169 20.3099 150.176 19.4693 150.18 18.8921C150.184 18.6113 150.187 18.3959 150.19 18.2429C150.193 18.0965 150.199 18.0215 150.199 18.0215C150.199 18.0215 150.205 18.0965 150.208 18.2429C150.21 18.3959 150.213 18.6113 150.217 18.8921C150.22 19.4693 150.225 20.3093 150.232 21.3887C150.235 23.5631 150.24 26.6987 150.245 30.5711C150.243 38.3255 150.197 49.0379 150.122 60.8723C150.053 72.6995 149.99 83.4083 149.945 91.1675C149.927 95.0399 149.912 98.1755 149.901 100.35C149.893 101.43 149.887 102.27 149.882 102.847C149.878 103.128 149.875 103.344 149.873 103.496C149.869 103.642 149.863 103.717 149.863 103.717Z" fill="#242424"/>
</g>
</g>
</g>
</g>
<g id="Group_96">
<g id="Group_97">
<g id="Group_98">
<path id="Vector_32" d="M161.495 10.4505C161.495 10.5009 127.35 10.5417 85.2396 10.5417C43.1142 10.5417 8.97656 10.5009 8.97656 10.4505C8.97656 10.4001 43.1148 10.3599 85.2396 10.3599C127.35 10.3593 161.495 10.4001 161.495 10.4505Z" fill="#242424"/>
</g>
</g>
</g>
<g id="Group_99">
<g id="Group_100">
<g id="Group_101">
<path id="Vector_33" d="M155.282 14.2473C155.282 14.2977 124.091 14.3385 85.6245 14.3385C47.1447 14.3385 15.9609 14.2977 15.9609 14.2473C15.9609 14.1969 47.1447 14.1567 85.6245 14.1567C124.091 14.1567 155.282 14.1975 155.282 14.2473Z" fill="#242424"/>
</g>
</g>
</g>
<g id="Group_102">
<g id="Group_103">
<g id="Group_104">
<path id="Vector_34" d="M147.92 19.0668C147.92 19.1172 119.537 19.158 84.5326 19.158C49.5166 19.158 21.1396 19.1172 21.1396 19.0668C21.1396 19.0164 49.5166 18.9756 84.5326 18.9756C119.537 18.9756 147.92 19.0164 147.92 19.0668Z" fill="#242424"/>
</g>
</g>
</g>
<g id="Group_105">
<g id="Group_106">
<g id="Group_107">
<path id="Vector_35" d="M20.1953 4.53906C20.1953 4.53906 20.2853 4.62486 20.4521 4.79826C20.6219 4.97646 20.8679 5.23506 21.1883 5.57106C21.8345 6.25686 22.7789 7.25886 23.9879 8.54166C26.4077 11.1229 29.8847 14.8315 34.1291 19.3591L34.1483 19.3801V19.4089C34.1531 27.9679 34.1597 38.8357 34.1669 50.6275C34.1567 64.8667 34.1471 77.7559 34.1405 87.0913C34.1285 91.7533 34.1183 95.5267 34.1117 98.1415C34.1045 99.4423 34.0985 100.453 34.0949 101.146C34.0907 101.485 34.0877 101.745 34.0859 101.927C34.0829 102.103 34.0769 102.193 34.0769 102.193C34.0769 102.193 34.0709 102.103 34.0673 101.927C34.0649 101.745 34.0619 101.485 34.0583 101.146C34.0547 100.453 34.0487 99.4423 34.0415 98.1415C34.0349 95.5273 34.0247 91.7539 34.0127 87.0913C34.0061 77.7559 33.9965 64.8667 33.9863 50.6275C33.9935 38.8351 34.0001 27.9679 34.0049 19.4089L34.0241 19.4581C29.7989 14.9125 26.3375 11.1895 23.9285 8.59806C22.7315 7.30386 21.7973 6.29286 21.1577 5.60106C20.8439 5.25846 20.6033 4.99566 20.4371 4.81386C20.2745 4.63446 20.1953 4.53906 20.1953 4.53906Z" fill="#242424"/>
</g>
</g>
</g>
<g id="Group_108">
<g id="Group_109">
<g id="Group_110">
<path id="Vector_36" d="M35.8281 4.53857C35.8281 4.53857 35.8749 4.62197 35.9577 4.78937C36.0423 4.96217 36.1629 5.20997 36.3213 5.53277C36.6393 6.19337 37.1037 7.15817 37.7013 8.39837C38.8941 10.895 40.6149 14.4974 42.7389 18.9434L42.7455 18.9572V18.9722C42.7515 27.6806 42.7605 39.4472 42.7695 52.3736C42.7593 66.0098 42.7497 78.3536 42.7431 87.2942C42.7311 91.7588 42.7209 95.372 42.7143 97.8764C42.7071 99.1214 42.7011 100.09 42.6975 100.753C42.6933 101.078 42.6903 101.328 42.6885 101.502C42.6855 101.67 42.6795 101.757 42.6795 101.757C42.6795 101.757 42.6735 101.67 42.6705 101.502C42.6681 101.328 42.6657 101.078 42.6615 100.753C42.6573 100.09 42.6519 99.1214 42.6441 97.8764C42.6375 95.372 42.6273 91.7588 42.6153 87.2942C42.6087 78.3536 42.5991 66.0104 42.5889 52.3736C42.5985 39.4472 42.6069 27.6806 42.6129 18.9722L42.6195 19.001C40.5183 14.5442 38.8155 10.9334 37.6353 8.43017C37.0521 7.18337 36.5985 6.21317 36.2877 5.54897C36.1371 5.22257 36.0219 4.97177 35.9415 4.79717C35.8635 4.62737 35.8281 4.53857 35.8281 4.53857Z" fill="#242424"/>
</g>
</g>
</g>
<g id="Group_111">
<g id="Group_112">
<g id="Group_113">
<path id="Vector_37" d="M47.8369 4.23633C47.8369 4.23633 47.8633 4.32033 47.9071 4.48593C47.9509 4.65753 48.0127 4.90353 48.0943 5.22333C48.2563 5.87853 48.4927 6.83433 48.7963 8.06373C49.3999 10.5381 50.2699 14.1087 51.3457 18.5199L51.3475 18.5271V18.5349C51.3541 27.2937 51.3631 39.3141 51.3733 52.5699C51.3631 66.0315 51.3535 78.2163 51.3469 87.0423C51.3349 91.4493 51.3247 95.0163 51.3181 97.4889C51.3109 98.7183 51.3049 99.6735 51.3013 100.329C51.2971 100.65 51.2941 100.896 51.2923 101.068C51.2893 101.234 51.2827 101.319 51.2827 101.319C51.2827 101.319 51.2767 101.234 51.2731 101.068C51.2713 100.896 51.2683 100.65 51.2641 100.329C51.2599 99.6741 51.2545 98.7183 51.2473 97.4889C51.2407 95.0169 51.2305 91.4493 51.2185 87.0423C51.2119 78.2163 51.2023 66.0315 51.1921 52.5699C51.2023 39.3141 51.2113 27.2937 51.2179 18.5349L51.2197 18.5499C50.1679 14.1327 49.3171 10.5579 48.7267 8.07993C48.4375 6.84693 48.2125 5.88813 48.0583 5.23113C47.9851 4.90893 47.9281 4.66173 47.8891 4.48893C47.8513 4.32333 47.8369 4.23633 47.8369 4.23633Z" fill="#242424"/>
</g>
</g>
</g>
<g id="Group_114">
<g id="Group_115">
<g id="Group_116">
<path id="Vector_38" d="M58.1084 4.23682C58.1084 4.23682 58.1252 4.32682 58.1492 4.50322C58.1726 4.68562 58.2062 4.94662 58.2506 5.28742C58.3364 5.98282 58.4612 6.99802 58.6214 8.30422C58.9358 10.9304 59.39 14.72 59.951 19.4012L59.9516 19.4048V19.409C59.9582 28.145 59.9672 40.0526 59.9768 53.1608C59.9666 66.7004 59.957 78.956 59.9504 87.833C59.9384 92.2658 59.9282 95.8532 59.9216 98.3402C59.9144 99.5768 59.9084 100.538 59.9042 101.197C59.9 101.519 59.897 101.767 59.8952 101.94C59.8922 102.107 59.8862 102.193 59.8862 102.193C59.8862 102.193 59.8802 102.107 59.8772 101.94C59.8748 101.767 59.8718 101.519 59.8682 101.197C59.864 100.538 59.8586 99.5762 59.8514 98.3402C59.8448 95.8538 59.8346 92.2658 59.8226 87.833C59.816 78.956 59.8064 66.7004 59.7962 53.1608C59.8058 40.0526 59.8148 28.145 59.8214 19.409L59.822 19.4168C59.2856 14.7332 58.8518 10.9412 58.5506 8.31322C58.4048 7.00582 58.292 5.98882 58.2146 5.29222C58.1786 4.95082 58.151 4.68862 58.1318 4.50622C58.1126 4.32862 58.1084 4.23682 58.1084 4.23682Z" fill="#242424"/>
</g>
</g>
</g>
<g id="Group_117">
<g id="Group_118">
<g id="Group_119">
<path id="Vector_39" d="M67.7815 5.07227C67.7815 5.07227 67.7917 5.15687 67.8031 5.32247C67.8139 5.49407 67.8289 5.73886 67.8481 6.05746C67.8841 6.71026 67.9363 7.66186 68.0041 8.88586C68.1319 11.3483 68.3161 14.9009 68.5441 19.2893C68.5531 28.0895 68.5657 40.2371 68.5801 53.6543C68.5699 67.0763 68.5603 79.2257 68.5537 88.0259C68.5417 92.4203 68.5315 95.9765 68.5249 98.4419C68.5177 99.6677 68.5117 100.62 68.5081 101.274C68.5039 101.594 68.5009 101.838 68.4991 102.01C68.4961 102.176 68.4895 102.261 68.4895 102.261C68.4895 102.261 68.4835 102.176 68.4799 102.01C68.4781 101.838 68.4751 101.593 68.4709 101.274C68.4667 100.62 68.4613 99.6677 68.4535 98.4419C68.4469 95.9771 68.4367 92.4202 68.4247 88.0265C68.4181 79.2269 68.4085 67.0781 68.3983 53.6567C68.4049 40.2401 68.4115 28.0925 68.4157 19.2923C68.2123 14.9033 68.0479 11.3507 67.9339 8.88827C67.8811 7.66367 67.8403 6.71146 67.8121 6.05866C67.8001 5.73946 67.7911 5.49407 67.7851 5.32247C67.7797 5.15747 67.7815 5.07227 67.7815 5.07227Z" fill="#242424"/>
</g>
</g>
</g>
<g id="Group_120">
<g id="Group_121">
<g id="Group_122">
<path id="Vector_40" d="M77.0926 5.07275C77.143 5.07275 77.1838 27.0898 77.1838 54.2434C77.1838 81.406 77.143 103.418 77.0926 103.418C77.0422 103.418 77.002 81.406 77.002 54.2434C77.002 27.0898 77.0428 5.07275 77.0926 5.07275Z" fill="#242424"/>
</g>
</g>
</g>
<g id="Group_123">
<g id="Group_124">
<g id="Group_125">
<path id="Vector_41" d="M85.6961 5.07275C85.7465 5.07275 85.7873 27.0898 85.7873 54.2434C85.7873 81.406 85.7465 103.418 85.6961 103.418C85.6457 103.418 85.6055 81.406 85.6055 54.2434C85.6055 27.0898 85.6463 5.07275 85.6961 5.07275Z" fill="#242424"/>
</g>
</g>
</g>
<g id="Group_126">
<g id="Group_127">
<g id="Group_128">
<path id="Vector_42" d="M94.8176 5.07324C94.868 5.07384 94.7924 27.0908 94.6496 54.2438C94.5068 81.4064 94.3502 103.419 94.2998 103.419C94.2494 103.419 94.325 81.4058 94.4678 54.2432C94.6106 27.0896 94.7672 5.07264 94.8176 5.07324Z" fill="#242424"/>
</g>
</g>
</g>
<g id="Group_129">
<g id="Group_130">
<g id="Group_131">
<path id="Vector_43" d="M105.78 5.07275C105.78 5.07275 105.773 5.15915 105.752 5.32715C105.728 5.49995 105.695 5.74775 105.651 6.06995C105.558 6.72815 105.423 7.68875 105.248 8.92415C104.889 11.4076 104.371 14.9908 103.731 19.4176L103.732 19.408C103.739 28.2562 103.748 40.4481 103.758 53.9067C103.748 67.4355 103.739 79.6815 103.732 88.5519C103.72 92.9811 103.71 96.5662 103.703 99.0508C103.696 100.286 103.69 101.247 103.686 101.905C103.682 102.227 103.679 102.474 103.677 102.647C103.674 102.815 103.668 102.9 103.668 102.9C103.668 102.9 103.661 102.814 103.658 102.647C103.656 102.474 103.653 102.227 103.649 101.905C103.645 101.246 103.64 100.286 103.632 99.0508C103.626 96.5662 103.616 92.9811 103.604 88.5519C103.597 79.6815 103.587 67.4355 103.577 53.9067C103.587 40.4481 103.597 28.2568 103.604 19.408V19.4032L103.604 19.3984C104.268 14.9752 104.806 11.395 105.179 8.91335C105.368 7.68035 105.515 6.72155 105.616 6.06395C105.668 5.74235 105.707 5.49635 105.734 5.32355C105.761 5.15735 105.78 5.07275 105.78 5.07275Z" fill="#242424"/>
</g>
</g>
</g>
<g id="Group_132">
<g id="Group_133">
<g id="Group_134">
<path id="Vector_44" d="M117.489 5.07275C117.489 5.07275 117.459 5.16515 117.392 5.34215C117.322 5.52395 117.222 5.78495 117.091 6.12515C116.82 6.81695 116.425 7.82795 115.917 9.12695C114.887 11.7352 113.402 15.4978 111.569 20.1406L111.574 20.116C111.58 28.816 111.588 40.54 111.598 53.4112C111.588 67.0768 111.578 79.4469 111.571 88.4067C111.559 92.8809 111.549 96.502 111.543 99.0117C111.535 100.26 111.529 101.23 111.526 101.895C111.522 102.221 111.519 102.47 111.517 102.645C111.514 102.814 111.507 102.9 111.507 102.9C111.507 102.9 111.501 102.814 111.498 102.645C111.495 102.47 111.492 102.221 111.489 101.895C111.484 101.23 111.479 100.26 111.471 99.0117C111.465 96.502 111.454 92.8809 111.442 88.4067C111.436 79.4469 111.426 67.0774 111.416 53.4112C111.425 40.54 111.433 28.816 111.44 20.116V20.1027L111.445 20.0908C113.301 15.457 114.805 11.7022 115.848 9.09875C116.37 7.80515 116.777 6.79895 117.055 6.11015C117.194 5.77295 117.3 5.51435 117.374 5.33435C117.447 5.16035 117.489 5.07275 117.489 5.07275Z" fill="#242424"/>
</g>
</g>
</g>
<g id="Group_135">
<g id="Group_136">
<g id="Group_137">
<path id="Vector_45" d="M126.748 5.07227C126.748 5.07227 126.714 5.15807 126.639 5.32127C126.561 5.48927 126.449 5.73046 126.304 6.04486C126.002 6.68446 125.563 7.61746 124.999 8.81806C123.856 11.2283 122.206 14.7053 120.169 19.0001L120.175 18.9719C120.182 27.7025 120.19 39.5849 120.2 52.6601C120.19 66.2171 120.181 78.4889 120.174 87.3779C120.162 91.8161 120.152 95.4089 120.145 97.8989C120.138 99.1367 120.132 100.1 120.128 100.759C120.124 101.082 120.121 101.33 120.119 101.503C120.116 101.67 120.109 101.756 120.109 101.756C120.109 101.756 120.103 101.67 120.1 101.503C120.098 101.33 120.095 101.082 120.091 100.759C120.086 100.099 120.081 99.1367 120.074 97.8989C120.067 95.4089 120.057 91.8167 120.045 87.3779C120.038 78.4895 120.029 66.2177 120.019 52.6601C120.028 39.5849 120.037 27.7025 120.043 18.9719V18.9569L120.05 18.9437C122.11 14.6597 123.777 11.1911 124.933 8.78747C125.512 7.59347 125.962 6.66527 126.27 6.02927C126.423 5.71847 126.54 5.48027 126.622 5.31407C126.702 5.15267 126.748 5.07227 126.748 5.07227Z" fill="#242424"/>
</g>
</g>
</g>
<g id="Group_138">
<g id="Group_139">
<g id="Group_140">
<path id="Vector_46" d="M137.316 5.07227C137.316 5.07227 137.27 5.16167 137.172 5.33087C137.071 5.50427 136.924 5.75387 136.734 6.07907C136.342 6.73967 135.771 7.70446 135.036 8.94466C133.551 11.4323 131.41 15.0197 128.77 19.4423L128.78 19.4075C128.786 28.0877 128.794 39.7043 128.803 52.4375C128.793 66.1763 128.784 78.6125 128.777 87.6203C128.765 92.1185 128.755 95.7587 128.748 98.2823C128.741 99.5369 128.735 100.512 128.731 101.181C128.727 101.508 128.724 101.759 128.722 101.934C128.719 102.104 128.712 102.191 128.712 102.191C128.712 102.191 128.706 102.104 128.703 101.934C128.7 101.759 128.697 101.508 128.694 101.181C128.689 100.512 128.684 99.5369 128.676 98.2823C128.67 95.7593 128.659 92.1185 128.647 87.6203C128.641 78.6125 128.631 66.1763 128.621 52.4375C128.63 39.7043 128.638 28.0871 128.644 19.4075V19.3889L128.654 19.3727C131.316 14.9627 133.474 11.3861 134.971 8.90567C135.72 7.67387 136.302 6.71506 136.701 6.05866C136.898 5.73766 137.05 5.49166 137.155 5.32006C137.259 5.15446 137.316 5.07227 137.316 5.07227Z" fill="#242424"/>
</g>
</g>
</g>
<g id="Group_141">
<g id="Group_142">
<g id="Group_143">
<path id="Vector_47" d="M150.697 5.07275C150.697 5.07275 150.622 5.16155 150.466 5.32835C150.306 5.49815 150.076 5.74235 149.774 6.06155C149.159 6.70655 148.262 7.64915 147.11 8.85695C144.791 11.2768 141.455 14.7574 137.368 19.021L137.388 18.9718C137.393 27.5632 137.401 38.65 137.408 50.7148C137.398 64.8094 137.388 77.5672 137.381 86.8078C137.369 91.4224 137.359 95.1574 137.353 97.7452C137.345 99.0328 137.339 100.034 137.336 100.719C137.332 101.055 137.329 101.312 137.327 101.492C137.324 101.666 137.317 101.756 137.317 101.756C137.317 101.756 137.311 101.666 137.308 101.492C137.306 101.312 137.303 101.055 137.299 100.719C137.294 100.033 137.289 99.0322 137.282 97.7452C137.275 95.1574 137.265 91.4224 137.253 86.8078C137.246 77.5672 137.237 64.8094 137.227 50.7148C137.234 38.65 137.241 27.5632 137.246 18.9718V18.943L137.266 18.9226C141.371 14.6764 144.722 11.2108 147.052 8.80115C148.216 7.60475 149.123 6.67115 149.744 6.03215C150.052 5.71895 150.287 5.47895 150.451 5.31275C150.611 5.15195 150.697 5.07275 150.697 5.07275Z" fill="#242424"/>
</g>
</g>
</g>
<g id="Group_144">
<g id="Group_145">
<g id="Group_146">
<path id="Vector_48" d="M143.554 26.0248C143.554 26.0752 117.267 26.1154 84.8475 26.1154C52.4169 26.1154 26.1357 26.0746 26.1357 26.0248C26.1357 25.9744 52.4169 25.9336 84.8475 25.9336C117.267 25.9336 143.554 25.9744 143.554 26.0248Z" fill="#242424"/>
</g>
</g>
</g>
<g id="Group_147">
<g id="Group_148">
<g id="Group_149">
<path id="Vector_49" d="M143.554 33.512C143.554 33.5624 117.267 33.6032 84.8475 33.6032C52.4169 33.6032 26.1357 33.5624 26.1357 33.512C26.1357 33.4616 52.4169 33.4214 84.8475 33.4214C117.267 33.4214 143.554 33.4622 143.554 33.512Z" fill="#242424"/>
</g>
</g>
</g>
<g id="Group_150">
<g id="Group_151">
<g id="Group_152">
<path id="Vector_50" d="M143.554 41.0003C143.554 41.0507 117.267 41.0915 84.8475 41.0915C52.4169 41.0915 26.1357 41.0507 26.1357 41.0003C26.1357 40.9499 52.4169 40.9097 84.8475 40.9097C117.267 40.9091 143.554 40.9499 143.554 41.0003Z" fill="#242424"/>
</g>
</g>
</g>
<g id="Group_153">
<g id="Group_154">
<g id="Group_155">
<path id="Vector_51" d="M143.554 48.4876C143.554 48.538 117.267 48.5788 84.8475 48.5788C52.4169 48.5788 26.1357 48.538 26.1357 48.4876C26.1357 48.4372 52.4169 48.397 84.8475 48.397C117.267 48.397 143.554 48.4378 143.554 48.4876Z" fill="#242424"/>
</g>
</g>
</g>
<g id="Group_156">
<g id="Group_157">
<g id="Group_158">
<path id="Vector_52" d="M143.554 55.9755C143.554 56.0259 117.267 56.0667 84.8475 56.0667C52.4169 56.0667 26.1357 56.0259 26.1357 55.9755C26.1357 55.9251 52.4169 55.8843 84.8475 55.8843C117.267 55.8843 143.554 55.9251 143.554 55.9755Z" fill="#242424"/>
</g>
</g>
</g>
<g id="Group_159">
<g id="Group_160">
<g id="Group_161">
<path id="Vector_53" d="M143.554 63.4632C143.554 63.5136 117.267 63.5544 84.8475 63.5544C52.4169 63.5544 26.1357 63.5136 26.1357 63.4632C26.1357 63.4128 52.4169 63.3726 84.8475 63.3726C117.267 63.3726 143.554 63.4134 143.554 63.4632Z" fill="#242424"/>
</g>
</g>
</g>
<g id="Group_162">
<g id="Group_163">
<g id="Group_164">
<path id="Vector_54" d="M143.554 70.9511C143.554 71.0015 117.267 71.0417 84.8475 71.0417C52.4169 71.0417 26.1357 71.0009 26.1357 70.9511C26.1357 70.9007 52.4169 70.8599 84.8475 70.8599C117.267 70.8605 143.554 70.9007 143.554 70.9511Z" fill="#242424"/>
</g>
</g>
</g>
<g id="Group_165">
<g id="Group_166">
<g id="Group_167">
<path id="Vector_55" d="M143.554 78.4384C143.554 78.4888 117.267 78.5296 84.8475 78.5296C52.4169 78.5296 26.1357 78.4888 26.1357 78.4384C26.1357 78.388 52.4169 78.3472 84.8475 78.3472C117.267 78.3478 143.554 78.3886 143.554 78.4384Z" fill="#242424"/>
</g>
</g>
</g>
<g id="Group_168">
<g id="Group_169">
<g id="Group_170">
<path id="Vector_56" d="M143.554 85.9262C143.554 85.9766 117.267 86.0168 84.8475 86.0168C52.4169 86.0168 26.1357 85.976 26.1357 85.9262C26.1357 85.8758 52.4169 85.835 84.8475 85.835C117.267 85.8356 143.554 85.8758 143.554 85.9262Z" fill="#242424"/>
</g>
</g>
</g>
<g id="Group_171">
<g id="Group_172">
<g id="Group_173">
<path id="Vector_57" d="M143.554 93.4139C143.554 93.4643 117.267 93.5052 84.8475 93.5052C52.4169 93.5052 26.1357 93.4643 26.1357 93.4139C26.1357 93.3635 52.4169 93.3228 84.8475 93.3228C117.267 93.3234 143.554 93.3641 143.554 93.4139Z" fill="#242424"/>
</g>
</g>
</g>
<g id="Group_174">
<g id="Group_175">
<g id="Group_176">
<path id="Vector_58" d="M143.554 100.902C143.554 100.952 117.267 100.993 84.8475 100.993C52.4169 100.993 26.1357 100.952 26.1357 100.902C26.1357 100.851 52.4169 100.811 84.8475 100.811C117.267 100.811 143.554 100.851 143.554 100.902Z" fill="#242424"/>
</g>
</g>
</g>
<g id="Group_177">
<path id="Vector_59" d="M4.15059 111.349L3.90039 108.957L27.1036 101.359L27.3538 103.752L4.15059 111.349Z" fill="#00B562"/>
</g>
<g id="Group_178">
<path id="Vector_60" d="M168.837 111.016L142.139 104.286L143.052 101.852L169.751 108.583L168.837 111.016Z" fill="#00B562"/>
</g>
<g id="Group_179">
<g id="Group_180">
<path id="Vector_61" d="M143.845 103.915H25.9661V31.4768C25.9661 26.2448 23.3651 21.3914 19.0085 18.4946L3.99414 8.51001L5.15394 6.76581L20.1683 16.7504C25.1105 20.0372 28.0607 25.5422 28.0607 31.4774V101.821H141.75V31.4774C141.75 25.5428 144.7 20.0372 149.642 16.7504L167.994 4.20801L169.176 5.93781L150.814 18.4874C146.446 21.392 143.845 26.2454 143.845 31.4774V103.915H143.845Z" fill="#00B562"/>
</g>
</g>
</g>
</g>
</svg>
