<svg width="135" height="40" viewBox="0 0 135 40" fill="none" xmlns="http://www.w3.org/2000/svg">
<g id="Badge" clip-path="url(#clip0_2036_1020)">
<path id="Vector" d="M130 0H5C2.23858 0 0 2.23858 0 5V35C0 37.7614 2.23858 40 5 40H130C132.761 40 135 37.7614 135 35V5C135 2.23858 132.761 0 130 0Z" fill="black"/>
<path id="Vector_2" d="M130 0.8C131.114 0.8 132.182 1.2425 132.97 2.03015C133.758 2.8178 134.2 3.88609 134.2 5V35C134.2 36.1139 133.758 37.1822 132.97 37.9698C132.182 38.7575 131.114 39.2 130 39.2H5C3.88609 39.2 2.8178 38.7575 2.03015 37.9698C1.2425 37.1822 0.8 36.1139 0.8 35V5C0.8 3.88609 1.2425 2.8178 2.03015 2.03015C2.8178 1.2425 3.88609 0.8 5 0.8H130ZM130 0H5C3.67392 0 2.40215 0.526784 1.46447 1.46447C0.526784 2.40215 0 3.67392 0 5V35C0 36.3261 0.526784 37.5979 1.46447 38.5355C2.40215 39.4732 3.67392 40 5 40H130C131.326 40 132.598 39.4732 133.536 38.5355C134.473 37.5979 135 36.3261 135 35V5C135 3.67392 134.473 2.40215 133.536 1.46447C132.598 0.526784 131.326 0 130 0Z" fill="#A6A6A6"/>
<path id="Vector_3" d="M47.42 10.24C47.4364 10.6067 47.3785 10.973 47.2496 11.3167C47.1207 11.6604 46.9235 11.9745 46.67 12.24C46.3859 12.5333 46.0431 12.7633 45.664 12.9149C45.2849 13.0666 44.878 13.1365 44.47 13.12C44.0597 13.1291 43.6518 13.054 43.2717 12.8992C42.8916 12.7444 42.5472 12.5132 42.26 12.22C41.6773 11.624 41.3511 10.8235 41.3511 9.99C41.3511 9.15646 41.6773 8.35603 42.26 7.76C42.7055 7.32468 43.2697 7.03073 43.8818 6.91508C44.4938 6.79944 45.1264 6.86725 45.7 7.11C46.0606 7.25823 46.3823 7.48748 46.64 7.78L46.11 8.30999C45.9114 8.07077 45.6598 7.88113 45.3751 7.75615C45.0904 7.63116 44.7805 7.57428 44.47 7.59C44.078 7.59271 43.6927 7.69139 43.3477 7.87741C43.0026 8.06343 42.7084 8.33114 42.4907 8.65712C42.273 8.98311 42.1385 9.35745 42.0989 9.74743C42.0593 10.1374 42.1158 10.5312 42.2635 10.8943C42.4112 11.2573 42.6456 11.5787 42.9462 11.8303C43.2468 12.0819 43.6044 12.2561 43.9878 12.3375C44.3713 12.419 44.7688 12.4053 45.1457 12.2977C45.5226 12.19 45.8675 11.9917 46.15 11.72C46.4555 11.3851 46.6326 10.9529 46.65 10.5H44.47V9.78H47.38C47.4028 9.93236 47.4161 10.086 47.42 10.24Z" fill="white" stroke="white" stroke-width="0.2" stroke-miterlimit="10"/>
<path id="Vector_4" d="M52 7.74H49.3V9.64H51.76V10.36H49.3V12.26H52V13H48.52V7H52V7.74Z" fill="white" stroke="white" stroke-width="0.2" stroke-miterlimit="10"/>
<path id="Vector_5" d="M55.2801 13H54.5101V7.74H52.8301V7H57.0001V7.74H55.2801V13Z" fill="white" stroke="white" stroke-width="0.2" stroke-miterlimit="10"/>
<path id="Vector_6" d="M59.9399 13V7H60.7099V13H59.9399Z" fill="white" stroke="white" stroke-width="0.2" stroke-miterlimit="10"/>
<path id="Vector_7" d="M64.1302 13H63.3602V7.74H61.6802V7H65.8002V7.74H64.1302V13Z" fill="white" stroke="white" stroke-width="0.2" stroke-miterlimit="10"/>
<path id="Vector_8" d="M73.6102 12.22C73.3213 12.5091 72.9784 12.7384 72.6009 12.8948C72.2234 13.0513 71.8188 13.1318 71.4102 13.1318C71.0015 13.1318 70.5969 13.0513 70.2194 12.8948C69.8419 12.7384 69.499 12.5091 69.2102 12.22C68.6448 11.6191 68.3301 10.8251 68.3301 10C68.3301 9.17496 68.6448 8.38097 69.2102 7.78002C69.4928 7.48282 69.8346 7.24825 70.2136 7.0915C70.5925 6.93474 71.0002 6.85929 71.4102 6.87002C71.8196 6.86355 72.2259 6.94094 72.6043 7.09744C72.9826 7.25394 73.325 7.48624 73.6102 7.78002C73.8977 8.07251 74.1237 8.41965 74.2749 8.80095C74.426 9.18224 74.4992 9.58996 74.4902 10C74.5033 10.4106 74.4319 10.8195 74.2806 11.2014C74.1292 11.5832 73.901 11.9299 73.6102 12.22ZM69.7802 11.72C69.9932 11.9359 70.247 12.1073 70.5268 12.2243C70.8066 12.3413 71.1069 12.4015 71.4102 12.4015C71.7135 12.4015 72.0137 12.3413 72.2935 12.2243C72.5733 12.1073 72.8271 11.9359 73.0402 11.72C73.4717 11.2511 73.7112 10.6372 73.7112 10C73.7112 9.36282 73.4717 8.74889 73.0402 8.28002C72.8271 8.06414 72.5733 7.89273 72.2935 7.77574C72.0137 7.65874 71.7135 7.5985 71.4102 7.5985C71.1069 7.5985 70.8066 7.65874 70.5268 7.77574C70.247 7.89273 69.9932 8.06414 69.7802 8.28002C69.3487 8.74889 69.1092 9.36282 69.1092 10C69.1092 10.6372 69.3487 11.2511 69.7802 11.72Z" fill="white" stroke="white" stroke-width="0.2" stroke-miterlimit="10"/>
<path id="Vector_9" d="M75.5801 13V7H76.5101L79.4301 11.67V10.51V7H80.2001V13H79.4001L76.3501 8.11V9.26V13H75.5801Z" fill="white" stroke="white" stroke-width="0.2" stroke-miterlimit="10"/>
<path id="Vector_10" d="M68.1401 21.75C67.2976 21.752 66.4745 22.0037 65.7751 22.4735C65.0756 22.9432 64.5312 23.6098 64.2106 24.389C63.89 25.1682 63.8076 26.0249 63.9739 26.8509C64.1402 27.6768 64.5477 28.4349 65.1449 29.0293C65.7421 29.6237 66.5021 30.0276 67.3288 30.1901C68.1556 30.3525 69.0119 30.2661 69.7896 29.9419C70.5672 29.6176 71.2313 29.07 71.6977 28.3684C72.1642 27.6667 72.4121 26.8425 72.4101 26C72.4183 25.4379 72.3132 24.88 72.1013 24.3593C71.8893 23.8387 71.5748 23.366 71.1764 22.9695C70.7779 22.5729 70.3038 22.2606 69.7822 22.0511C69.2606 21.8416 68.7021 21.7392 68.1401 21.75ZM68.1401 28.58C67.6237 28.6161 67.1083 28.496 66.6611 28.2354C66.2138 27.9747 65.8553 27.5855 65.6321 27.1184C65.409 26.6513 65.3315 26.1279 65.4098 25.6161C65.4881 25.1044 65.7185 24.6281 66.0711 24.249C66.4237 23.87 66.8821 23.6058 67.3869 23.4908C67.8916 23.3757 68.4193 23.4152 68.9013 23.6041C69.3833 23.7929 69.7973 24.1224 70.0896 24.5497C70.3819 24.977 70.5388 25.4823 70.5401 26C70.5562 26.328 70.5065 26.6559 70.3938 26.9644C70.2812 27.2729 70.1079 27.5557 69.8842 27.7962C69.6606 28.0366 69.391 28.2299 69.0914 28.3645C68.7919 28.4991 68.4684 28.5724 68.1401 28.58ZM58.8201 21.75C57.9776 21.752 57.1545 22.0037 56.4551 22.4735C55.7556 22.9432 55.2112 23.6098 54.8906 24.389C54.57 25.1682 54.4876 26.0249 54.6539 26.8509C54.8202 27.6768 55.2277 28.4349 55.8249 29.0293C56.4221 29.6237 57.1821 30.0276 58.0088 30.1901C58.8356 30.3525 59.6919 30.2661 60.4696 29.9419C61.2472 29.6176 61.9113 29.07 62.3777 28.3684C62.8442 27.6667 63.0921 26.8425 63.0901 26C63.0982 25.4379 62.9932 24.88 62.7813 24.3593C62.5693 23.8387 62.2548 23.366 61.8564 22.9695C61.4579 22.5729 60.9838 22.2606 60.4622 22.0511C59.9406 21.8416 59.3821 21.7392 58.8201 21.75ZM58.8201 28.58C58.3037 28.6161 57.7883 28.496 57.3411 28.2354C56.8938 27.9747 56.5353 27.5855 56.3121 27.1184C56.089 26.6513 56.0115 26.1279 56.0898 25.6161C56.1681 25.1044 56.3985 24.6281 56.7511 24.249C57.1037 23.87 57.5621 23.6058 58.0669 23.4908C58.5716 23.3757 59.0993 23.4152 59.5813 23.6041C60.0633 23.7929 60.4773 24.1224 60.7696 24.5497C61.0619 24.977 61.2188 25.4823 61.2201 26C61.2362 26.328 61.1865 26.6559 61.0738 26.9644C60.9612 27.2729 60.7879 27.5557 60.5642 27.7962C60.3406 28.0366 60.071 28.2299 59.7714 28.3645C59.4719 28.4991 59.1484 28.5724 58.8201 28.58ZM47.7401 23.06V24.86H52.0601C51.9924 25.7078 51.6399 26.5078 51.0601 27.13C50.6268 27.5715 50.1056 27.9171 49.5302 28.1445C48.9549 28.3719 48.3382 28.476 47.7201 28.45C46.4471 28.45 45.2262 27.9443 44.326 27.0441C43.4258 26.1439 42.9201 24.923 42.9201 23.65C42.9201 22.3769 43.4258 21.156 44.326 20.2559C45.2262 19.3557 46.4471 18.85 47.7201 18.85C48.9405 18.8318 50.119 19.2953 51.0001 20.14L52.2701 18.87C51.6741 18.2805 50.9664 17.8159 50.1886 17.5034C49.4107 17.1908 48.5783 17.0367 47.7401 17.05C46.8511 17.0154 45.9643 17.1606 45.1327 17.477C44.3012 17.7933 43.5421 18.2743 42.9009 18.891C42.2596 19.5077 41.7495 20.2476 41.4011 21.0662C41.0527 21.8848 40.873 22.7653 40.873 23.655C40.873 24.5447 41.0527 25.4252 41.4011 26.2438C41.7495 27.0624 42.2596 27.8022 42.9009 28.419C43.5421 29.0357 44.3012 29.5167 45.1327 29.833C45.9643 30.1494 46.8511 30.2946 47.7401 30.26C48.5955 30.2941 49.4485 30.147 50.243 29.8281C51.0375 29.5093 51.7556 29.026 52.3501 28.41C53.4002 27.2564 53.9598 25.7392 53.9101 24.18C53.9137 23.8047 53.8836 23.4299 53.8201 23.06H47.7401ZM93.0501 24.46C92.7893 23.6927 92.3016 23.0228 91.6516 22.5388C91.0016 22.0549 90.2199 21.7798 89.4101 21.75C88.8631 21.7489 88.3217 21.86 87.8193 22.0765C87.317 22.293 86.8644 22.6102 86.4895 23.0085C86.1146 23.4068 85.8254 23.8778 85.6397 24.3924C85.4541 24.9069 85.3759 25.454 85.4101 26C85.4016 26.9128 85.6885 27.804 86.2282 28.5402C86.7679 29.2765 87.5313 29.8185 88.4044 30.0851C89.2774 30.3518 90.2134 30.3288 91.0723 30.0197C91.9313 29.7106 92.6672 29.1318 93.1701 28.37L91.7201 27.37C91.5039 27.7303 91.1974 28.0278 90.8307 28.233C90.4641 28.4382 90.0502 28.5441 89.6301 28.54C89.1967 28.5579 88.768 28.4442 88.4003 28.214C88.0327 27.9838 87.7432 27.6477 87.5701 27.25L93.2601 24.9L93.0501 24.46ZM87.2501 25.88C87.2298 25.5694 87.2717 25.2578 87.3734 24.9636C87.475 24.6694 87.6343 24.3984 87.842 24.1665C88.0497 23.9346 88.3015 23.7465 88.5828 23.6132C88.8641 23.4798 89.1691 23.404 89.4801 23.39C89.8023 23.3703 90.1231 23.4462 90.4024 23.6081C90.6817 23.7699 90.907 24.0106 91.0501 24.3L87.2501 25.88ZM82.6301 30H84.5001V17.5H82.6301V30ZM79.5701 22.7H79.5001C79.2207 22.3818 78.876 22.1278 78.4894 21.9552C78.1028 21.7826 77.6835 21.6956 77.2601 21.7C76.1673 21.753 75.1367 22.2244 74.3821 23.0166C73.6274 23.8087 73.2064 24.8609 73.2064 25.955C73.2064 27.0491 73.6274 28.1012 74.3821 28.8934C75.1367 29.6856 76.1673 30.157 77.2601 30.21C77.6841 30.2185 78.1047 30.1333 78.4919 29.9604C78.8791 29.7875 79.2234 29.5313 79.5001 29.21H79.5701V29.82C79.5701 31.45 78.7001 32.32 77.3001 32.32C76.8324 32.3097 76.3783 32.1607 75.9955 31.8918C75.6127 31.623 75.3185 31.2464 75.1501 30.81L73.5301 31.48C73.8296 32.2322 74.3504 32.8759 75.0235 33.3258C75.6966 33.7758 76.4905 34.0109 77.3001 34C79.4901 34 81.3001 32.71 81.3001 29.57V22H79.5701V22.7ZM77.4201 28.58C76.7649 28.5391 76.1499 28.2501 75.7004 27.7716C75.2509 27.2932 75.0006 26.6615 75.0006 26.005C75.0006 25.3485 75.2509 24.7167 75.7004 24.2383C76.1499 23.7599 76.7649 23.4708 77.4201 23.43C77.7403 23.4438 78.0545 23.5219 78.344 23.6596C78.6334 23.7973 78.8922 23.9919 79.1049 24.2317C79.3176 24.4714 79.4799 24.7516 79.5822 25.0553C79.6844 25.3591 79.7245 25.6804 79.7001 26C79.7274 26.3207 79.6893 26.6436 79.5883 26.9491C79.4872 27.2547 79.3252 27.5366 79.1121 27.7778C78.8989 28.0189 78.6391 28.2144 78.3483 28.3523C78.0575 28.4902 77.7417 28.5676 77.4201 28.58ZM101.81 17.5H97.3301V30H99.2001V25.26H101.81C102.343 25.2983 102.878 25.2264 103.382 25.0487C103.886 24.8711 104.348 24.5915 104.739 24.2275C105.13 23.8634 105.442 23.4227 105.655 22.9328C105.869 22.4429 105.979 21.9143 105.979 21.38C105.979 20.8457 105.869 20.3171 105.655 19.8272C105.442 19.3372 105.13 18.8965 104.739 18.5325C104.348 18.1685 103.886 17.8889 103.382 17.7113C102.878 17.5336 102.343 17.4617 101.81 17.5ZM101.81 23.5H99.2001V19.24H101.85C102.131 19.24 102.409 19.2953 102.669 19.4029C102.929 19.5104 103.165 19.6681 103.363 19.8668C103.562 20.0655 103.72 20.3014 103.827 20.561C103.935 20.8207 103.99 21.099 103.99 21.38C103.99 21.661 103.935 21.9393 103.827 22.1989C103.72 22.4586 103.562 22.6945 103.363 22.8932C103.165 23.0919 102.929 23.2495 102.669 23.3571C102.409 23.4646 102.131 23.52 101.85 23.52L101.81 23.5ZM113.35 21.71C112.669 21.668 111.991 21.8265 111.399 22.166C110.807 22.5055 110.328 23.011 110.02 23.62L111.67 24.31C111.837 24.0094 112.087 23.7635 112.39 23.602C112.694 23.4405 113.038 23.3704 113.38 23.4C113.617 23.3723 113.858 23.3921 114.088 23.4583C114.317 23.5245 114.531 23.6358 114.718 23.7857C114.904 23.9356 115.058 24.121 115.172 24.3312C115.286 24.5414 115.356 24.7722 115.38 25.01V25.13C114.779 24.8139 114.109 24.6491 113.43 24.65C111.65 24.65 109.83 25.65 109.83 27.47C109.848 27.8568 109.943 28.2362 110.11 28.5855C110.277 28.9349 110.513 29.2471 110.803 29.5036C111.093 29.7601 111.432 29.9557 111.799 30.0788C112.166 30.2018 112.554 30.2499 112.94 30.22C113.409 30.2459 113.877 30.1466 114.295 29.9323C114.714 29.7179 115.067 29.3961 115.32 29H115.38V30H117.18V25.19C117.18 23 115.52 21.73 113.39 21.73L113.35 21.71ZM113.12 28.56C112.51 28.56 111.66 28.25 111.66 27.5C111.66 26.5 112.72 26.16 113.66 26.16C114.254 26.1453 114.841 26.2904 115.36 26.58C115.297 27.1231 115.04 27.625 114.635 27.9927C114.231 28.3604 113.707 28.5691 113.16 28.58L113.12 28.56ZM123.74 22L121.6 27.42H121.54L119.32 22H117.32L120.65 29.58L118.75 33.79H120.7L125.82 22H123.74ZM106.94 30H108.8V17.5H106.94V30Z" fill="white"/>
<path id="Vector_11" d="M10.4401 7.54C10.1106 7.92962 9.94245 8.43047 9.97012 8.94V31.06C9.93609 31.5704 10.105 32.0735 10.4401 32.46L10.5101 32.54L22.9001 20.15V19.85L10.5101 7.47L10.4401 7.54Z" fill="url(#paint0_linear_2036_1020)"/>
<path id="Vector_12" d="M26.9999 24.28L22.8999 20.15V19.85L26.9999 15.72L27.0899 15.78L31.9999 18.56C33.3999 19.35 33.3999 20.65 31.9999 21.45L27.1099 24.23L26.9999 24.28Z" fill="url(#paint1_linear_2036_1020)"/>
<path id="Vector_13" d="M27.1199 24.22L22.8999 20L10.4399 32.46C10.7225 32.7115 11.0842 32.8562 11.4623 32.869C11.8404 32.8818 12.211 32.7619 12.5099 32.53L27.1199 24.22Z" fill="url(#paint2_linear_2036_1020)"/>
<path id="Vector_14" d="M27.1199 15.78L12.5099 7.48C12.213 7.24491 11.8426 7.12206 11.464 7.13303C11.0854 7.14401 10.7228 7.28811 10.4399 7.54L22.8999 20L27.1199 15.78Z" fill="url(#paint3_linear_2036_1020)"/>
<path id="Vector_15" opacity="0.2" d="M26.9999 24.13L12.5099 32.38C12.2219 32.5974 11.8708 32.715 11.5099 32.715C11.1491 32.715 10.798 32.5974 10.5099 32.38L10.4399 32.45L10.5099 32.53C10.798 32.7474 11.1491 32.865 11.5099 32.865C11.8708 32.865 12.2219 32.7474 12.5099 32.53L27.1199 24.22L26.9999 24.13Z" fill="black"/>
<path id="Vector_16" opacity="0.12" d="M10.4399 32.32C10.1187 31.9234 9.96126 31.4189 9.99988 30.91V31.06C9.96585 31.5704 10.1348 32.0735 10.4699 32.46L10.5399 32.39L10.4399 32.32Z" fill="black"/>
<path id="Vector_17" opacity="0.12" d="M32 21.3L27 24.13L27.09 24.22L32 21.44C32.2898 21.3174 32.5413 21.119 32.7278 20.8656C32.9143 20.6122 33.0291 20.3132 33.06 20C32.9975 20.2846 32.869 20.5505 32.6849 20.7763C32.5007 21.0021 32.2662 21.1815 32 21.3Z" fill="black"/>
<path id="Vector_18" opacity="0.25" d="M12.5102 7.61998L32.0002 18.7C32.2664 18.8185 32.501 18.9979 32.6851 19.2237C32.8692 19.4495 32.9977 19.7154 33.0602 20C33.0293 19.6868 32.9146 19.3878 32.728 19.1344C32.5415 18.881 32.29 18.6825 32.0002 18.56L12.5102 7.47998C11.1202 6.67998 9.97021 7.33998 9.97021 8.93998V9.08998C10.0002 7.48998 11.1202 6.82998 12.5102 7.61998Z" fill="white"/>
</g>
<defs>
<linearGradient id="paint0_linear_2036_1020" x1="21.8001" y1="8.71" x2="5.02012" y2="25.49" gradientUnits="userSpaceOnUse">
<stop stop-color="#00A0FF"/>
<stop offset="0.01" stop-color="#00A1FF"/>
<stop offset="0.26" stop-color="#00BEFF"/>
<stop offset="0.51" stop-color="#00D2FF"/>
<stop offset="0.76" stop-color="#00DFFF"/>
<stop offset="1" stop-color="#00E3FF"/>
</linearGradient>
<linearGradient id="paint1_linear_2036_1020" x1="33.8299" y1="20" x2="9.6399" y2="20" gradientUnits="userSpaceOnUse">
<stop stop-color="#FFE000"/>
<stop offset="0.41" stop-color="#FFBD00"/>
<stop offset="0.78" stop-color="#FFA500"/>
<stop offset="1" stop-color="#FF9C00"/>
</linearGradient>
<linearGradient id="paint2_linear_2036_1020" x1="24.8299" y1="22.3" x2="2.06994" y2="45.05" gradientUnits="userSpaceOnUse">
<stop stop-color="#FF3A44"/>
<stop offset="1" stop-color="#C31162"/>
</linearGradient>
<linearGradient id="paint3_linear_2036_1020" x1="7.29994" y1="0.18" x2="17.4599" y2="10.34" gradientUnits="userSpaceOnUse">
<stop stop-color="#32A071"/>
<stop offset="0.07" stop-color="#2DA771"/>
<stop offset="0.48" stop-color="#15CF74"/>
<stop offset="0.8" stop-color="#06E775"/>
<stop offset="1" stop-color="#00F076"/>
</linearGradient>
<clipPath id="clip0_2036_1020">
<rect width="135" height="40" fill="white"/>
</clipPath>
</defs>
</svg>
