<svg width="33" height="33" viewBox="0 0 33 33" fill="none" xmlns="http://www.w3.org/2000/svg">
<g id="Google">
<g id="super-g">
<path id="Shape" d="M16.5002 11.5933C18.0024 11.5933 19.0157 12.2422 19.5935 12.7844L21.8513 10.58C20.4646 9.29111 18.6602 8.5 16.5002 8.5C13.3713 8.5 10.6691 10.2956 9.35352 12.9089L11.9402 14.9178C12.5891 12.9889 14.3846 11.5933 16.5002 11.5933Z" fill="#EA4335"/>
<path id="Shape_2" d="M24.18 16.6775C24.18 16.0198 24.1267 15.5398 24.0111 15.042H16.5V18.0109H20.9089C20.82 18.7487 20.34 19.8598 19.2733 20.6064L21.7978 22.562C23.3089 21.1664 24.18 19.1131 24.18 16.6775Z" fill="#4285F4"/>
<path id="Shape_3" d="M11.9489 18.082C11.78 17.5842 11.6822 17.0509 11.6822 16.4998C11.6822 15.9487 11.78 15.4154 11.94 14.9176L9.35333 12.9087C8.81111 13.9931 8.5 15.2109 8.5 16.4998C8.5 17.7887 8.81111 19.0065 9.35333 20.0909L11.9489 18.082Z" fill="#FBBC05"/>
<path id="Shape_4" d="M16.5001 24.4998C18.6601 24.4998 20.4734 23.7887 21.7979 22.562L19.2734 20.6065C18.5979 21.0776 17.6912 21.4065 16.5001 21.4065C14.3845 21.4065 12.589 20.0109 11.949 18.082L9.3623 20.0909C10.6779 22.7043 13.3712 24.4998 16.5001 24.4998Z" fill="#34A853"/>
</g>
</g>
</svg>
