<svg width="241" height="97" viewBox="0 0 241 97" fill="none" xmlns="http://www.w3.org/2000/svg">
<g id="Grass">
<g id="Group">
<g id="Group_2">
<g id="Group_3">
<g id="Group_4">
<path id="Vector" d="M0.868192 34.8021C0.889192 34.7751 1.31399 35.0535 1.87499 35.6493C2.43539 36.2409 3.09959 37.1793 3.56099 38.3445C4.01819 39.5121 4.17059 40.6515 4.16399 41.4663C4.15979 42.2841 4.03799 42.7773 4.00439 42.7719C3.89939 42.7779 4.18679 40.7343 3.26999 38.4585C2.38979 36.1695 0.787192 34.8693 0.868192 34.8021Z" fill="#242424"/>
</g>
</g>
<g id="Group_5">
<g id="Group_6">
<path id="Vector_2" d="M6.32587 36.1958C6.41467 36.2378 5.74507 37.3814 5.68747 38.957C5.60347 40.532 6.16807 41.7308 6.07567 41.7644C6.04267 41.7812 5.85428 41.5064 5.67248 41.003C5.49008 40.502 5.33947 39.7634 5.37547 38.9426C5.41387 38.1224 5.62928 37.4 5.85608 36.9176C6.08168 36.4328 6.29407 36.1766 6.32587 36.1958Z" fill="#242424"/>
</g>
</g>
<g id="Group_7">
<g id="Group_8">
<path id="Vector_3" d="M9.11724 34.68C9.21264 34.707 8.68224 36.3078 8.67744 38.3538C8.65224 40.4004 9.15865 42.0084 9.06325 42.0342C9.02665 42.0462 8.85205 41.6598 8.68045 40.9986C8.50825 40.3386 8.35885 39.3978 8.36545 38.3514C8.37445 37.3056 8.53764 36.3672 8.72004 35.7096C8.90064 35.0514 9.08064 34.668 9.11724 34.68Z" fill="#242424"/>
</g>
</g>
</g>
<g id="Group_9">
<g id="Group_10">
<g id="Group_11">
<path id="Vector_4" d="M68.6117 21.2545C68.6903 21.2191 69.4955 22.8313 70.4099 24.8557C71.3243 26.8807 72.0023 28.5499 71.9237 28.5859C71.8451 28.6213 71.0399 27.0091 70.1255 24.9847C69.2105 22.9603 68.5331 21.2899 68.6117 21.2545Z" fill="#242424"/>
</g>
</g>
<g id="Group_12">
<g id="Group_13">
<path id="Vector_5" d="M72.4041 21.0098C72.5001 21.0116 72.4695 22.3826 72.8757 24.0002C73.2675 25.622 73.9311 26.8215 73.8471 26.8677C73.7859 26.9145 72.9783 25.7498 72.5727 24.0746C72.1539 22.403 72.3279 20.9972 72.4041 21.0098Z" fill="#242424"/>
</g>
</g>
<g id="Group_14">
<g id="Group_15">
<path id="Vector_6" d="M75.5323 20.5044C75.6187 20.5038 75.6997 21.8064 75.7129 23.4138C75.7261 25.0218 75.6673 26.325 75.5809 26.3256C75.4945 26.3262 75.4135 25.0242 75.4003 23.4162C75.3871 21.8088 75.4459 20.505 75.5323 20.5044Z" fill="#242424"/>
</g>
</g>
</g>
<g id="Group_16">
<g id="Group_17">
<path id="Vector_7" d="M220.397 17.7111C220.492 17.7207 220.36 19.1031 220.601 20.7795C220.829 22.4583 221.334 23.7513 221.246 23.7867C221.178 23.8239 220.527 22.5507 220.291 20.8233C220.044 19.0971 220.321 17.6937 220.397 17.7111Z" fill="#242424"/>
</g>
</g>
<g id="Group_18">
<g id="Group_19">
<g id="Group_20">
<path id="Vector_8" d="M189.69 44.502C189.768 44.4654 190.281 45.4014 190.835 46.5912C191.39 47.7816 191.776 48.7764 191.697 48.813C191.619 48.8496 191.106 47.9142 190.552 46.7232C189.998 45.5334 189.612 44.5386 189.69 44.502Z" fill="#242424"/>
</g>
</g>
<g id="Group_21">
<g id="Group_22">
<path id="Vector_9" d="M192.594 43.027C192.687 43.0396 192.507 44.5678 192.594 46.4512C192.671 48.3358 192.983 49.8418 192.891 49.8628C192.815 49.8856 192.36 48.3856 192.282 46.465C192.194 44.5456 192.516 43.0108 192.594 43.027Z" fill="#242424"/>
</g>
</g>
</g>
<g id="Group_23">
<g id="Group_24">
<path id="Vector_10" d="M240.57 76.9507C240.657 76.9501 240.735 78.1963 240.744 79.7335C240.754 81.2713 240.692 82.5181 240.606 82.5187C240.519 82.5193 240.441 81.2731 240.432 79.7353C240.422 78.1987 240.484 76.9513 240.57 76.9507Z" fill="#242424"/>
</g>
</g>
<g id="Group_25">
<g id="Group_26">
<g id="Group_27">
<path id="Vector_11" d="M22.281 90.3538C22.3086 90.2836 23.7258 91.2022 24.6738 92.9896C25.641 94.768 25.6242 96.4564 25.5504 96.4402C25.4514 96.457 25.3296 94.843 24.3984 93.1372C23.4906 91.42 22.2126 90.427 22.281 90.3538Z" fill="#242424"/>
</g>
</g>
<g id="Group_28">
<g id="Group_29">
<path id="Vector_12" d="M25.0579 89.3526C25.1497 89.3406 25.3669 90.6888 25.8583 92.2896C26.3419 93.8928 26.9125 95.1336 26.8297 95.175C26.7601 95.2146 26.0533 94.0158 25.5595 92.3808C25.0591 90.7488 24.9781 89.3592 25.0579 89.3526Z" fill="#242424"/>
</g>
</g>
<g id="Group_30">
<g id="Group_31">
<path id="Vector_13" d="M29.6135 90.1117C29.7035 90.1321 29.5061 91.1953 29.5103 92.5165C29.5055 93.8377 29.7035 94.9009 29.6135 94.9213C29.5367 94.9447 29.1941 93.8815 29.1983 92.5165C29.1941 91.1521 29.5367 90.0883 29.6135 90.1117Z" fill="#242424"/>
</g>
</g>
</g>
<g id="Group_32">
<g id="Group_33">
<g id="Group_34">
<path id="Vector_14" d="M42.713 0.400813C42.7706 0.348013 43.715 1.40762 44.402 2.99822C45.0992 4.58522 45.2318 5.99823 45.1538 6.00423C45.0608 6.02163 44.7944 4.66682 44.1152 3.12302C43.448 1.57502 42.6368 0.457213 42.713 0.400813Z" fill="#242424"/>
</g>
</g>
<g id="Group_35">
<g id="Group_36">
<path id="Vector_15" d="M45.1983 0.631284C45.2817 0.609084 45.5829 1.45929 45.8703 2.53089C46.1583 3.60249 46.3239 4.48929 46.2405 4.51149C46.1571 4.53369 45.8565 3.6835 45.5685 2.6119C45.2811 1.5409 45.1149 0.654084 45.1983 0.631284Z" fill="#242424"/>
</g>
</g>
<g id="Group_37">
<g id="Group_38">
<path id="Vector_16" d="M48.6927 1.09544C48.7809 1.12424 48.4905 2.13643 48.4023 3.41683C48.3039 4.69723 48.4437 5.74004 48.3519 5.75564C48.2745 5.77544 47.9895 4.72183 48.0909 3.39403C48.1833 2.06563 48.6189 1.06424 48.6927 1.09544Z" fill="#242424"/>
</g>
</g>
</g>
<g id="Group_39">
<g id="Group_40">
<path id="Vector_17" d="M216.935 18.9778C216.992 18.9292 218.007 20.323 218.555 22.3474C219.118 24.3676 218.958 26.0842 218.884 26.0716C218.786 26.0734 218.803 24.3964 218.254 22.4302C217.721 20.4598 216.85 19.0264 216.935 18.9778Z" fill="#242424"/>
</g>
</g>
<g id="Group_41">
<g id="Group_42">
<path id="Vector_18" d="M224.515 19.2356C224.592 19.2902 224.038 20.0768 223.767 21.2006C223.48 22.3208 223.602 23.2754 223.508 23.2874C223.433 23.3138 223.16 22.3214 223.463 21.125C223.756 19.9262 224.461 19.1774 224.515 19.2356Z" fill="#242424"/>
</g>
</g>
<g id="Group_43">
<g id="Group_44">
<path id="Vector_19" d="M236.473 76.4251C236.555 76.3993 237.083 77.8495 237.652 79.6633C238.221 81.4783 238.615 82.9694 238.533 82.9952C238.45 83.021 237.922 81.5713 237.354 79.7563C236.785 77.9425 236.391 76.4509 236.473 76.4251Z" fill="#242424"/>
</g>
</g>
</g>
</g>
</svg>
