<svg width="100" height="112" viewBox="0 0 100 112" fill="none" xmlns="http://www.w3.org/2000/svg">
<g id="Group 427318934">
<path id="Vector" d="M22.5635 35.667C22.5635 35.667 21.4511 56.0467 29.5384 61.8091C33.2984 64.4789 50.2517 64.4233 50.2517 64.4233L42.1756 36.6904L22.5635 35.667Z" fill="#FFCCB3"/>
<path id="Vector_2" d="M5.61256 14.7837L94.545 13.7592C97.1867 13.7288 99.3035 11.5626 99.273 8.92098L99.2254 4.78301C99.1949 2.14136 97.0288 0.0245484 94.3871 0.0549794L5.45469 1.07946C2.81306 1.10989 0.696251 3.27604 0.726681 5.91769L0.774349 10.0557C0.80478 12.6973 2.97092 14.8141 5.61256 14.7837Z" fill="#00B562"/>
<path id="Vector_3" d="M91.3782 12.3282L80.9993 104.894C80.8534 106.157 80.2588 107.325 79.3237 108.187C78.3886 109.049 77.1752 109.546 75.9044 109.588L23.1199 111.279C21.7798 111.322 20.4734 110.854 19.4654 109.97C18.4574 109.086 17.8232 107.852 17.6912 106.518L8.39137 12.7287C8.07989 9.63616 10.505 6.94408 12.9634 6.92183L85.4379 6.44349C89.2535 6.42124 91.7342 9.18006 91.3782 12.3282Z" fill="#00B562"/>
<path id="Vector_4" d="M31.618 49.2832C31.618 49.2832 29.0483 51.8307 30.2274 54.5562C31.698 57.3344 33.3829 59.9937 35.2667 62.51C35.92 59.2889 37.3224 56.2669 39.3605 53.6885L41.6632 54.9566L39.1936 45.2451L29.8604 48.0151L31.618 49.2832Z" fill="white"/>
<path id="Vector_5" d="M36.4014 64.5467C36.8024 65.2015 37.34 65.762 37.9773 66.1901C38.6147 66.6182 39.3369 66.9038 40.0946 67.0275C42.8684 67.2834 45.6578 67.3243 48.4378 67.1498L48.3377 58.4951L38.3259 58.6175C37.1324 60.3701 36.4647 62.4273 36.4014 64.5467Z" fill="white"/>
<path id="Vector_6" d="M60.208 35.9336C60.208 35.9336 59.4182 32.4072 56.4814 31.9511C53.3493 31.7025 50.2024 31.7025 47.0703 31.9511C49.4454 34.2182 51.2553 37.0111 52.3543 40.1052L50.0516 41.429L59.5962 44.4993L62.2215 35.1215L60.208 35.9336Z" fill="white"/>
<path id="Vector_7" d="M44.7338 31.8743C43.9674 31.8664 43.2083 32.0232 42.5078 32.3341C41.8072 32.645 41.1817 33.1028 40.6735 33.6764C38.9814 35.8915 37.464 38.2347 36.1348 40.6848L43.5101 45.2012L48.7497 36.6355C47.8917 34.6984 46.4985 33.0466 44.7338 31.8743Z" fill="white"/>
<path id="Vector_8" d="M58.9504 67.0714C58.9504 67.0714 62.4656 67.928 64.1676 65.4918C65.7693 62.788 67.1531 59.9609 68.3058 57.0373C65.2197 58.1634 61.9113 58.5445 58.65 58.1497L58.5276 55.5244L51.5527 62.7107L58.7835 69.2184L58.9504 67.0714Z" fill="white"/>
<path id="Vector_9" d="M69.3965 55.0009C69.7493 54.3174 69.949 53.5653 69.9816 52.7969C70.0143 52.0284 69.8791 51.2621 69.5856 50.5511C68.3489 48.0528 66.9207 45.6539 65.3139 43.376L57.9941 48.0148L63.356 56.5027C65.4714 56.587 67.5669 56.066 69.3965 55.0009Z" fill="white"/>
<path id="Vector_10" d="M78.6739 70.0192C78.5071 70.0192 79.6084 57.4376 81.1102 41.9415C82.6119 26.4453 84.1137 13.7636 84.1248 13.9194C84.136 14.0751 83.1904 26.501 81.6886 41.9971C80.1869 57.4933 78.8297 70.0415 78.6739 70.0192Z" fill="#263238"/>
<path id="Vector_11" d="M92.6576 13.7861C92.6576 13.953 73.7463 14.2867 50.3854 14.5426C27.0245 14.7984 8.11328 14.8763 8.11328 14.7206C8.11328 14.5648 27.0245 14.22 50.3854 13.9641C73.7463 13.7083 92.6576 13.6304 92.6576 13.7861Z" fill="#263238"/>
</g>
</svg>
