<svg width="45" height="7" viewBox="0 0 45 7" fill="none" xmlns="http://www.w3.org/2000/svg">
<g id="Group">
<g id="Group_2">
<g id="Group_3">
<path id="Vector" d="M21.8278 4.83326C21.8278 4.91966 17.0962 4.98925 11.2612 4.98925C5.42376 4.98925 0.693359 4.91906 0.693359 4.83326C0.693359 4.74746 5.42376 4.67725 11.2612 4.67725C17.0962 4.67665 21.8278 4.74686 21.8278 4.83326Z" fill="#242424"/>
</g>
</g>
<g id="Group_4">
<g id="Group_5">
<path id="Vector_2" d="M23.127 1.28323C23.2212 1.27603 23.337 2.54024 23.8248 4.00844C24.3012 5.48144 24.9558 6.56863 24.8754 6.61843C24.8136 6.66703 24.0198 5.62483 23.5278 4.10563C23.0256 2.59063 23.0484 1.28083 23.127 1.28323Z" fill="#242424"/>
</g>
</g>
<g id="Group_6">
<g id="Group_7">
<path id="Vector_3" d="M25.7001 0.800341C25.7919 0.805141 25.7697 2.04414 25.9515 3.55134C26.1249 5.05974 26.4339 6.25974 26.3457 6.28554C26.2695 6.31254 25.8189 5.12994 25.6413 3.58794C25.4565 2.04714 25.6203 0.791341 25.7001 0.800341Z" fill="#242424"/>
</g>
</g>
<g id="Group_8">
<g id="Group_9">
<path id="Vector_4" d="M28.5539 1.43391C28.6379 1.45251 28.5221 2.2979 28.2941 3.3209C28.0661 4.3445 27.8135 5.1593 27.7295 5.1407C27.6455 5.1221 27.7613 4.2773 27.9893 3.2531C28.2167 2.2301 28.4699 1.41531 28.5539 1.43391Z" fill="#242424"/>
</g>
</g>
<g id="Group_10">
<g id="Group_11">
<path id="Vector_5" d="M44.0501 4.28736C44.0501 4.37376 40.9349 4.44335 37.0937 4.44335C33.2507 4.44335 30.1367 4.37316 30.1367 4.28736C30.1367 4.20096 33.2507 4.13135 37.0937 4.13135C40.9349 4.13075 44.0501 4.20096 44.0501 4.28736Z" fill="#242424"/>
</g>
</g>
</g>
</svg>
