<svg width="24" height="25" viewBox="0 0 24 25" fill="none" xmlns="http://www.w3.org/2000/svg">
<g id="icon-dashboard">
<g id="Shape">
<path fill-rule="evenodd" clip-rule="evenodd" d="M7.29289 9.79289C7.68342 9.40237 8.31658 9.40237 8.70711 9.79289L10.7066 11.7924C11.0982 11.605 11.5369 11.5 12 11.5C13.6569 11.5 15 12.8431 15 14.5C15 16.1569 13.6569 17.5 12 17.5C10.3431 17.5 9 16.1569 9 14.5C9 14.0369 9.10495 13.5982 9.29237 13.2066L7.29289 11.2071C6.90237 10.8166 6.90237 10.1834 7.29289 9.79289ZM12 13.5C11.4477 13.5 11 13.9477 11 14.5C11 15.0523 11.4477 15.5 12 15.5C12.5523 15.5 13 15.0523 13 14.5C13 13.9477 12.5523 13.5 12 13.5Z" fill="#5E5D5D"/>
<path fill-rule="evenodd" clip-rule="evenodd" d="M0 14.5C0 7.87272 5.37272 2.5 12 2.5C18.6273 2.5 24 7.87272 24 14.5C24 17.4 22.9695 20.0623 21.256 22.1368L20.956 22.5H3.04396L2.744 22.1368C1.0305 20.0623 0 17.4 0 14.5ZM11 4.54938V5.5C11 6.05228 11.4477 6.5 12 6.5C12.5523 6.5 13 6.05228 13 5.5V4.54938C15.0116 4.74912 16.8479 5.54502 18.3297 6.75791C18.3172 6.7692 18.3049 6.78086 18.2929 6.79289L17.2929 7.79289C16.9024 8.18342 16.9024 8.81658 17.2929 9.20711C17.6834 9.59763 18.3166 9.59763 18.7071 9.20711L19.7071 8.20711C19.7191 8.19507 19.7308 8.18281 19.7421 8.17033C20.955 9.65209 21.7509 11.4884 21.9506 13.5H21C20.4477 13.5 20 13.9477 20 14.5C20 15.0523 20.4477 15.5 21 15.5H21.9507C21.7655 17.3653 21.068 19.0789 20.0002 20.5H3.99982C2.93202 19.0789 2.23446 17.3653 2.04935 15.5H3C3.55228 15.5 4 15.0523 4 14.5C4 13.9477 3.55228 13.5 3 13.5H2.04938C2.51847 8.77569 6.27569 5.01847 11 4.54938Z" fill="#5E5D5D"/>
</g>
</g>
</svg>
