<svg width="20" height="21" viewBox="0 0 20 21" fill="none" xmlns="http://www.w3.org/2000/svg">
<g id="Outline / Messages, Conversation  /  Letter">
<path id="Vector" fill-rule="evenodd" clip-rule="evenodd" d="M8.28616 3.20837H11.7135C13.245 3.20836 14.458 3.20835 15.4074 3.33599C16.3844 3.46734 17.1752 3.74411 17.7988 4.36774C18.4224 4.99138 18.6992 5.78217 18.8306 6.75919C18.9582 7.70853 18.9582 8.92156 18.9582 10.453V10.5471C18.9582 12.0785 18.9582 13.2915 18.8306 14.2409C18.6992 15.2179 18.4224 16.0087 17.7988 16.6323C17.1752 17.256 16.3844 17.5327 15.4074 17.6641C14.458 17.7917 13.245 17.7917 11.7135 17.7917H8.28616C6.75469 17.7917 5.54166 17.7917 4.59232 17.6641C3.6153 17.5327 2.82451 17.256 2.20087 16.6323C1.57724 16.0087 1.30047 15.2179 1.16912 14.2409C1.04148 13.2915 1.04149 12.0785 1.0415 10.5471V10.453C1.04149 8.92156 1.04148 7.70853 1.16912 6.75919C1.30047 5.78217 1.57724 4.99138 2.20087 4.36774C2.82451 3.74411 3.6153 3.46734 4.59232 3.33599C5.54166 3.20835 6.75469 3.20836 8.28616 3.20837ZM4.75888 4.57484C3.92047 4.68756 3.43743 4.89895 3.08476 5.25163C2.73208 5.6043 2.52069 6.08734 2.40797 6.92575C2.29283 7.78214 2.2915 8.91102 2.2915 10.5C2.2915 12.0891 2.29283 13.2179 2.40797 14.0743C2.52069 14.9127 2.73208 15.3958 3.08476 15.7485C3.43743 16.1011 3.92047 16.3125 4.75888 16.4252C5.61526 16.5404 6.74415 16.5417 8.33317 16.5417H11.6665C13.2555 16.5417 14.3844 16.5404 15.2408 16.4252C16.0792 16.3125 16.5622 16.1011 16.9149 15.7485C17.2676 15.3958 17.479 14.9127 17.5917 14.0743C17.7068 13.2179 17.7082 12.0891 17.7082 10.5C17.7082 8.91102 17.7068 7.78214 17.5917 6.92575C17.479 6.08734 17.2676 5.6043 16.9149 5.25163C16.5622 4.89895 16.0792 4.68756 15.2408 4.57484C14.3844 4.4597 13.2555 4.45837 11.6665 4.45837H8.33317C6.74415 4.45837 5.61527 4.4597 4.75888 4.57484ZM4.5197 6.76659C4.74068 6.50142 5.13478 6.46559 5.39995 6.68657L7.19903 8.1858C7.9765 8.83369 8.51628 9.28205 8.97199 9.57515C9.41312 9.85887 9.71228 9.9541 9.99984 9.9541C10.2874 9.9541 10.5866 9.85887 11.0277 9.57515C11.4834 9.28205 12.0232 8.83369 12.8006 8.1858L14.5997 6.68657C14.8649 6.46559 15.259 6.50142 15.48 6.76659C15.701 7.03177 15.6651 7.42587 15.4 7.64685L13.5695 9.17219C12.8309 9.78773 12.2322 10.2866 11.7039 10.6265C11.1534 10.9805 10.6174 11.2041 9.99984 11.2041C9.38227 11.2041 8.84623 10.9805 8.29582 10.6265C7.76744 10.2866 7.16877 9.78774 6.43014 9.17219L4.59972 7.64685C4.33455 7.42587 4.29872 7.03177 4.5197 6.76659Z" fill="#5E5D5D"/>
</g>
</svg>
