<svg width="94" height="124" viewBox="0 0 94 124" fill="none" xmlns="http://www.w3.org/2000/svg">
<g id="Group">
<g id="Group_2">
<g id="Group_3">
<g id="Group_4">
<g id="Group_5">
<g id="Group_6">
<path id="Vector" d="M85.1167 14.155L46.9068 0L9.06777 13.9646C4.23754 16.3184 0 17.7275 0 22.3696V45.4827C0 61.5339 4.07687 77.4398 12.4649 91.4824C19.5232 103.299 30.4527 115.466 47.2782 123.2C62.7453 118.017 74.2899 104.201 81.3482 92.3842C89.7362 78.3416 93.8125 62.4362 93.8125 46.3845V25.5997C93.8125 18.9796 90.4121 15.7472 85.1167 14.155Z" fill="#00B562"/>
</g>
</g>
</g>
<g id="Group_7" opacity="0.8">
<g id="Group_8">
<g id="Group_9">
<path id="Vector_2" d="M85.1167 14.155L46.9068 0L9.06777 13.9646C4.23754 16.3184 0 17.7275 0 22.3696V45.4827C0 61.5339 4.07687 77.4398 12.4649 91.4824C19.5232 103.299 30.4527 115.466 47.2782 123.2C62.7453 118.017 74.2899 104.201 81.3482 92.3842C89.7362 78.3416 93.8125 62.4362 93.8125 46.3845V25.5997C93.8125 18.9796 90.4121 15.7472 85.1167 14.155Z" fill="#E0E0E0"/>
</g>
</g>
</g>
</g>
<g id="Group_10">
<g id="Group_11">
<g id="Group_12">
<g id="Group_13">
<path id="Vector_3" d="M68.1174 71.6644H61.7345V36.7246C61.7345 28.5007 55.0819 21.8101 46.9049 21.8101C38.7278 21.8101 32.0753 28.5007 32.0753 36.7246V71.6644H25.6929V36.7246C25.6929 24.9613 35.209 15.3906 46.9054 15.3906C58.6017 15.3906 68.1179 24.9613 68.1179 36.7246V71.6644H68.1174Z" fill="#00B562"/>
</g>
</g>
<g id="Group_14" opacity="0.4">
<g id="Group_15">
<path id="Vector_4" d="M68.1174 71.6644H61.7345V36.7246C61.7345 28.5007 55.0819 21.8101 46.9049 21.8101C38.7278 21.8101 32.0753 28.5007 32.0753 36.7246V71.6644H25.6929V36.7246C25.6929 24.9613 35.209 15.3906 46.9054 15.3906C58.6017 15.3906 68.1179 24.9613 68.1179 36.7246V71.6644H68.1174Z" fill="#242424"/>
</g>
</g>
<g id="Group_16">
<g id="Group_17">
<path id="Vector_5" d="M72.5245 93.0121H21.2861C19.6472 93.0121 18.3184 91.6757 18.3184 90.0274V59.1063C18.3184 57.4581 19.6472 56.1216 21.2861 56.1216H72.524C74.1629 56.1216 75.4918 57.4581 75.4918 59.1063V90.0274C75.4918 91.6762 74.1634 93.0121 72.5245 93.0121Z" fill="#00B562"/>
</g>
</g>
<g id="Group_18" opacity="0.5">
<path id="Vector_6" d="M51.684 69.7607C51.684 67.1062 49.5446 64.9546 46.9052 64.9546C44.2658 64.9546 42.1265 67.1062 42.1265 69.7607C42.1265 71.9575 43.6004 73.7892 45.6019 74.3629V81.5487H48.2091V74.3629C50.2095 73.7892 51.684 71.9575 51.684 69.7607Z" fill="#242424"/>
</g>
</g>
<g id="Group_19">
<g id="Group_20">
<g id="Group_21">
<path id="Vector_7" d="M21.3674 89.5154C21.2361 89.5154 21.1299 83.363 21.1299 75.7755C21.1299 68.1855 21.2361 62.0347 21.3674 62.0347C21.4986 62.0347 21.6048 68.1855 21.6048 75.7755C21.6048 83.3635 21.4986 89.5154 21.3674 89.5154Z" fill="white"/>
</g>
</g>
</g>
<g id="Group_22">
<g id="Group_23">
<g id="Group_24">
<path id="Vector_8" d="M43.1627 75.916C43.1474 75.9396 42.9385 75.841 42.6025 75.596C42.2654 75.353 41.817 74.938 41.3706 74.3335C40.4794 73.1578 39.6643 71.0226 40.1934 68.7168C40.7486 66.4162 42.4293 64.8753 43.75 64.2266C44.4185 63.8876 45.0038 63.7186 45.4139 63.6539C45.8235 63.5871 46.0539 63.5928 46.0574 63.621C46.0773 63.7114 45.1509 63.7987 43.9114 64.523C42.6913 65.2159 41.1668 66.7023 40.6556 68.8273C40.1653 70.9563 40.8655 72.9723 41.6469 74.1419C42.4314 75.3484 43.2204 75.8441 43.1627 75.916Z" fill="white"/>
</g>
</g>
</g>
</g>
</g>
</g>
</svg>
