<svg width="133" height="99" viewBox="0 0 133 99" fill="none" xmlns="http://www.w3.org/2000/svg">
<g id="Group 34285">
<g id="Group">
<path id="Vector" d="M106.409 64.2817C121.05 58.3204 128.047 41.5227 122.037 26.7629C116.028 12.0031 99.2871 4.87054 84.6463 10.8318C70.0055 16.7931 63.0085 33.5908 69.0181 48.3506C75.0278 63.1103 91.7683 70.2429 106.409 64.2817Z" fill="#74BC32"/>
<path id="Vector_2" d="M106.85 28.4653L104.298 17.6017L93.2497 16.6285L88.9749 26.891L97.3811 34.2066L106.85 28.4653Z" fill="#242424"/>
<path id="Vector_3" d="M88.1881 48.8852L90.3706 58.1686L100.805 61.2684L105.072 53.9018L97.2758 46.2483L88.1881 48.8852Z" fill="#242424"/>
<path id="Vector_4" d="M70.5574 29.5076L66.8802 38.6544L74.0092 46.9217L82.0911 42.8842L79.5703 32.2447L70.5574 29.5076Z" fill="#242424"/>
<g id="Group_2">
<path id="Vector_5" d="M89.763 26.579C89.8217 26.7012 87.6035 28.0604 84.7968 29.644C81.99 31.2211 79.654 32.3939 79.5693 32.2452C79.485 32.0976 81.6861 30.6838 84.4946 29.1047C87.2985 27.5236 89.6726 26.3943 89.763 26.579Z" fill="#242424"/>
</g>
<g id="Group_3">
<path id="Vector_6" d="M70.8488 29.8758C70.7006 29.7927 72.2583 26.7051 74.3271 22.9815C76.397 19.2575 78.1946 16.3067 78.3428 16.3898C78.4911 16.4729 76.9329 19.5594 74.8635 23.2845C72.7951 27.0092 70.9975 29.96 70.8488 29.8758Z" fill="#242424"/>
</g>
<g id="Group_4">
<path id="Vector_7" d="M94.9298 18.3053C94.8173 18.4472 92.8959 17.0209 90.327 15.6148C87.7649 14.1944 85.5374 13.3334 85.5945 13.1616C85.6376 13.0083 87.9981 13.6217 90.6191 15.0744C93.2458 16.5133 95.0338 18.1861 94.9298 18.3053Z" fill="#242424"/>
</g>
<g id="Group_5">
<path id="Vector_8" d="M110.298 12.942C110.407 13.0735 109.057 14.375 107.285 15.8472C105.513 17.3209 103.987 18.4084 103.878 18.2758C103.77 18.1444 105.119 16.8433 106.893 15.3702C108.665 13.898 110.19 12.8105 110.298 12.942Z" fill="#242424"/>
</g>
<g id="Group_6">
<path id="Vector_9" d="M119.801 33.8932C119.724 34.0449 116.661 32.6044 112.961 30.6763C109.259 28.7476 106.322 27.0621 106.399 26.9105C106.476 26.7599 109.539 28.1993 113.241 30.128C116.941 32.056 119.88 33.7422 119.801 33.8932Z" fill="#242424"/>
</g>
<g id="Group_7">
<path id="Vector_10" d="M96.1702 49.3751C96.0877 49.3754 95.997 48.4412 95.9678 46.9273C95.9374 45.4139 95.9804 43.3222 96.1578 41.0209C96.3374 38.7186 96.618 36.6455 96.8817 35.1584C97.145 33.6702 97.378 32.763 97.4589 32.7775C97.6342 32.8086 97.1184 36.4981 96.7687 41.0732C96.4088 45.6447 96.3485 49.373 96.1702 49.3751Z" fill="#242424"/>
</g>
<g id="Group_8">
<path id="Vector_11" d="M117.592 45.0429C117.692 45.1817 114.983 47.3018 111.535 49.7639C108.088 52.2229 105.188 54.1056 105.074 53.9013C105.037 53.8638 105.703 53.312 106.807 52.4717C107.911 51.6288 109.454 50.4906 111.178 49.2596C114.625 46.798 117.492 44.9041 117.592 45.0429Z" fill="#242424"/>
</g>
<g id="Group_9">
<path id="Vector_12" d="M90.3704 58.1684C90.4371 58.3257 88.4558 59.3118 85.9464 60.3707C83.4423 61.4274 81.3333 62.1683 81.2976 61.9996C81.2001 61.8536 83.2027 60.8575 85.7067 59.8008C88.2146 58.7413 90.3038 58.011 90.3704 58.1684Z" fill="#242424"/>
</g>
<g id="Group_10">
<path id="Vector_13" d="M90.9676 51.3701C90.8512 51.4931 88.5941 49.5232 85.9265 46.9697C83.2585 44.4151 81.19 42.2467 81.3064 42.1237C81.4228 42.0007 83.6799 43.9706 86.3475 46.5241C89.0161 49.0772 91.084 51.2471 90.9676 51.3701Z" fill="#242424"/>
</g>
<g id="Group_11">
<path id="Vector_14" d="M106.937 63.8841C106.842 64.0322 105.346 63.4872 103.596 62.6655C101.847 61.8437 100.505 61.0572 100.601 60.9091C100.696 60.761 102.191 61.3065 103.942 62.1278C105.691 62.9495 107.033 63.736 106.937 63.8841Z" fill="#242424"/>
</g>
<path id="Vector_15" d="M116.535 45.4727L118.518 33.5621L123.064 30.3863L123.103 30.4872C125.394 36.59 124.932 43.3787 121.836 49.0797L116.535 45.4727Z" fill="#242424"/>
<path id="Vector_16" d="M86.1998 13.3804L78.2702 16.4144C78.2702 16.4144 77.387 14.5948 81.581 12.3017C85.8632 9.95986 87.8304 9.75716 87.8304 9.75716L86.1998 13.3804Z" fill="#242424"/>
<g id="Group_12">
<path id="Vector_17" d="M75.0134 56.9926C74.8704 56.9758 74.6356 54.6358 74.3346 51.7565C74.037 48.8759 73.7849 46.5353 73.9255 46.5315C74.06 46.5276 74.5371 48.8784 74.8371 51.7797C75.1405 54.6796 75.149 57.0087 75.0134 56.9926Z" fill="#242424"/>
</g>
</g>
<g id="Group_13">
<path id="Vector_18" d="M67.138 47.6305C67.2046 47.7879 60.0268 50.9769 51.1098 54.7537C42.189 58.5307 34.9053 61.4656 34.8387 61.3083C34.7721 61.1509 41.9476 57.9628 50.869 54.1843C59.7861 50.4075 67.0713 47.4732 67.138 47.6305Z" fill="#242424"/>
</g>
<g id="Group_14">
<path id="Vector_19" d="M62.5187 55.0033C62.5831 55.1615 51.7847 59.7235 38.4025 65.1928C25.0159 70.6639 14.1154 74.969 14.051 74.8107C13.9866 74.6525 24.7827 70.0914 38.1698 64.6214C51.552 59.1521 62.4547 54.8461 62.5187 55.0033Z" fill="#242424"/>
</g>
<g id="Group_15">
<path id="Vector_20" d="M68.9342 56.7072C68.9986 56.8654 58.2003 61.4274 44.818 66.8967C31.4314 72.3678 20.5309 76.6728 20.4665 76.5146C20.4021 76.3563 31.1983 71.7952 44.5853 66.3252C57.9676 60.8559 68.8702 56.55 68.9342 56.7072Z" fill="#242424"/>
</g>
<g id="Group_16">
<path id="Vector_21" d="M64.1451 63.9498C64.2096 64.1081 53.4112 68.6701 40.0289 74.1394C26.6423 79.6105 15.7419 83.9155 15.6775 83.7573C15.613 83.599 26.4092 79.0379 39.7963 73.5679C53.1785 68.0986 64.0811 63.7927 64.1451 63.9498Z" fill="#242424"/>
</g>
</g>
</svg>
