<svg width="93" height="77" viewBox="0 0 93 77" fill="none" xmlns="http://www.w3.org/2000/svg">
<g id="Mail">
<path id="Vector" d="M75.8395 0.794882L0 25.0713L16.3651 76.1958L92.2046 51.9194L75.8395 0.794882Z" fill="#00B562"/>
<path id="Vector_2" d="M76.2897 1.29102C76.1511 1.61201 75.9838 1.91981 75.7898 2.21067C75.41 2.85043 74.9102 3.69011 74.2704 4.72972L68.5725 13.9663L49.4797 44.3349L49.3197 44.5748H49.0398L48.3801 44.3149L14.3928 31.2798L4.13666 27.2813L1.3577 26.1617C1.02528 26.0442 0.704112 25.897 0.398071 25.7219C0.740124 25.7896 1.07487 25.89 1.3977 26.0218L4.23663 27.0214L14.5728 30.84L48.56 43.6951L49.2398 43.9351L48.7999 44.095L68.0927 13.8263C70.5518 10.0277 72.5511 6.9289 73.9905 4.72972L75.6099 2.27064C75.8063 1.92414 76.0338 1.59624 76.2897 1.29102Z" fill="#263238"/>
<path id="Vector_3" d="M16.7521 76.7035C16.5721 76.7035 20.0309 67.7868 24.4692 56.9708C28.9075 46.1549 32.6861 37.4382 32.866 37.5181C33.046 37.5981 29.6073 46.4348 25.1489 57.2507C20.6906 68.0667 16.992 76.7834 16.7521 76.7035Z" fill="#263238"/>
<path id="Vector_4" d="M57.9366 28.8015C58.0565 28.6415 65.9336 33.7996 75.49 40.3172C85.0464 46.8347 92.7635 52.3127 92.6436 52.3127C92.5236 52.3127 84.6465 47.3345 75.0901 40.817C65.5337 34.2994 57.8166 28.9814 57.9366 28.8015Z" fill="#263238"/>
</g>
</svg>
