<svg width="16" height="16" viewBox="0 0 16 16" fill="none" xmlns="http://www.w3.org/2000/svg">
<g id="Outline / Messages, Conversation / Pen 2">
<path id="Vector" fill-rule="evenodd" clip-rule="evenodd" d="M9.39982 1.59374C10.4141 0.579432 12.0586 0.579432 13.0729 1.59374C14.0872 2.60804 14.0872 4.25255 13.0729 5.26686L8.01027 10.3295C7.72494 10.6149 7.55068 10.7892 7.35647 10.9407C7.12765 11.1191 6.88007 11.2721 6.6181 11.397C6.39576 11.503 6.16195 11.5809 5.77911 11.7085L3.99734 12.3024L3.56957 12.445C3.18667 12.5726 2.76452 12.473 2.47912 12.1876C2.19373 11.9022 2.09407 11.48 2.2217 11.0971L2.95821 8.88757C3.08581 8.50473 3.16373 8.27092 3.26969 8.04858C3.39454 7.78661 3.54755 7.53903 3.72603 7.31021C3.87751 7.11599 4.05179 6.94174 4.33716 6.6564L9.39982 1.59374ZM3.97428 11.256L3.4107 10.6924L3.89631 9.23556C4.0377 8.8114 4.0961 8.63893 4.17242 8.4788C4.26602 8.2824 4.38073 8.09678 4.51454 7.92523C4.62364 7.78535 4.75178 7.65599 5.06793 7.33984L8.99525 3.41252C9.15736 3.81918 9.43164 4.31 9.89416 4.77252C10.3567 5.23504 10.8475 5.50932 11.2542 5.67143L7.32684 9.59875C7.01069 9.9149 6.88133 10.043 6.74145 10.1521C6.5699 10.2859 6.38428 10.4007 6.18788 10.4943C6.02775 10.5706 5.85529 10.629 5.43112 10.7704L3.97428 11.256ZM12.051 4.87461C11.9684 4.85649 11.8652 4.82922 11.7479 4.78851C11.4252 4.67655 11.0007 4.46486 10.6013 4.06541C10.2018 3.66597 9.99013 3.24151 9.87818 2.91883C9.83746 2.80148 9.81019 2.69826 9.79207 2.6157L10.1069 2.30084C10.7307 1.67706 11.7421 1.67706 12.3658 2.30084C12.9896 2.92462 12.9896 3.93597 12.3658 4.55975L12.051 4.87461ZM2.16701 14.6663C2.16701 14.3902 2.39086 14.1663 2.66701 14.1663H13.3337V15.1663H2.66701C2.39086 15.1663 2.16701 14.9425 2.16701 14.6663Z" fill="#F5F5F5"/>
</g>
</svg>
