<svg width="20" height="21" viewBox="0 0 20 21" fill="none" xmlns="http://www.w3.org/2000/svg">
<g id="Outline / Map &#38; Location / People Nearby">
<path id="Vector" fill-rule="evenodd" clip-rule="evenodd" d="M10.0003 2.79199C9.42503 2.79199 8.95866 3.25836 8.95866 3.83366C8.95866 4.40896 9.42503 4.87533 10.0003 4.87533C10.5756 4.87533 11.042 4.40896 11.042 3.83366C11.042 3.25836 10.5756 2.79199 10.0003 2.79199ZM7.70866 3.83366C7.70866 2.56801 8.73467 1.54199 10.0003 1.54199C11.266 1.54199 12.292 2.56801 12.292 3.83366C12.292 5.09931 11.266 6.12533 10.0003 6.12533C8.73467 6.12533 7.70866 5.09931 7.70866 3.83366ZM14.1582 6.47017C15.3422 6.21646 16.4587 7.11905 16.4587 8.32993C16.4587 9.1486 15.9348 9.87542 15.1581 10.1343L13.3454 10.7386C13.2311 10.7766 13.1628 10.7995 13.1121 10.8187C13.0801 10.8308 13.0666 10.8373 13.0633 10.8389C12.9949 10.8821 12.9577 10.961 12.9678 11.0413C12.9686 11.0449 12.9722 11.0594 12.9832 11.0918C13.0007 11.1432 13.0264 11.2105 13.0697 11.3229L14.1086 14.0242C14.5754 15.2377 13.6796 16.542 12.3794 16.542C11.7146 16.542 11.1007 16.1857 10.7709 15.6085L10.0003 14.2601L9.22979 15.6085C8.89993 16.1857 8.28605 16.542 7.62121 16.542C6.32103 16.542 5.42527 15.2377 5.89201 14.0242L6.931 11.3229C6.97423 11.2105 6.99999 11.1432 7.01742 11.0918C7.02843 11.0594 7.03201 11.0449 7.03283 11.0413C7.043 10.961 7.00576 10.8821 6.93735 10.839C6.93409 10.8373 6.92061 10.8308 6.88852 10.8187C6.83783 10.7995 6.7695 10.7766 6.65526 10.7386L4.84251 10.1343C4.06585 9.87542 3.54199 9.1486 3.54199 8.32993C3.54199 7.11905 4.65849 6.21646 5.84249 6.47017L7.4238 6.80902C7.51255 6.82804 7.55402 6.83692 7.59493 6.84539C9.18173 7.17361 10.8189 7.17361 12.4057 6.84539C12.4466 6.83692 12.4881 6.82804 12.5769 6.80902L14.1582 6.47017ZM15.2087 8.32993C15.2087 7.91485 14.8259 7.60545 14.4201 7.69243L12.8365 8.03177C12.7508 8.05012 12.7048 8.05999 12.6589 8.06948C10.9051 8.43225 9.09556 8.43225 7.34173 8.06947C7.29591 8.06 7.24989 8.05013 7.16439 8.03181L5.58058 7.69243C5.17472 7.60545 4.79199 7.91485 4.79199 8.32993C4.79199 8.61056 4.97157 8.85971 5.2378 8.94845L7.05054 9.5527C7.06565 9.55774 7.08083 9.56277 7.09607 9.56782C7.2674 9.62459 7.4454 9.68358 7.59216 9.77417C8.08306 10.0772 8.34919 10.6411 8.27104 11.2127C8.24767 11.3836 8.18005 11.5585 8.11496 11.7268C8.10917 11.7418 8.1034 11.7567 8.09768 11.7716L7.05869 14.473C6.90686 14.8677 7.19825 15.292 7.62121 15.292C7.83748 15.292 8.03718 15.1761 8.14448 14.9883L9.45767 12.6902C9.56895 12.4955 9.77604 12.3753 10.0003 12.3753C10.2246 12.3753 10.4317 12.4955 10.543 12.6902L11.8562 14.9883C11.9635 15.1761 12.1632 15.292 12.3794 15.292C12.8024 15.292 13.0938 14.8677 12.942 14.473L11.903 11.7716C11.8973 11.7567 11.8915 11.7418 11.8857 11.7268C11.8206 11.5585 11.753 11.3836 11.7296 11.2127C11.6515 10.6411 11.9176 10.0772 12.4085 9.77417C12.5553 9.68358 12.7333 9.62459 12.9046 9.56782C12.9198 9.56277 12.935 9.55774 12.9501 9.5527L14.7629 8.94845C15.0291 8.85971 15.2087 8.61056 15.2087 8.32993ZM4.34731 12.3029C4.50237 12.6113 4.37806 12.987 4.06967 13.1421C2.80224 13.7793 2.29199 14.4961 2.29199 15.0837C2.29199 15.7201 2.89533 16.5043 4.36425 17.1654C5.77449 17.8 7.76659 18.2087 10.0003 18.2087C12.2341 18.2087 14.2262 17.8 15.6364 17.1654C17.1053 16.5043 17.7087 15.7201 17.7087 15.0837C17.7087 14.4961 17.1984 13.7793 15.931 13.1421C15.6226 12.987 15.4983 12.6113 15.6533 12.3029C15.8084 11.9945 16.1841 11.8702 16.4925 12.0253C17.8642 12.7149 18.9587 13.7503 18.9587 15.0837C18.9587 16.5183 17.6965 17.609 16.1494 18.3053C14.5435 19.0279 12.369 19.4587 10.0003 19.4587C7.63169 19.4587 5.45712 19.0279 3.85129 18.3053C2.30413 17.609 1.04199 16.5183 1.04199 15.0837C1.04199 13.7503 2.13649 12.7149 3.50817 12.0253C3.81656 11.8702 4.19226 11.9945 4.34731 12.3029Z" fill="#242424"/>
</g>
</svg>
