<svg width="20" height="21" viewBox="0 0 20 21" fill="none" xmlns="http://www.w3.org/2000/svg">
<g id="Phone" clip-path="url(#clip0_2053_16613)">
<path id="Vector" d="M12.843 11.8546C12.9295 11.797 13.0291 11.7619 13.1326 11.7525C13.2362 11.7431 13.3404 11.7597 13.4359 11.8007L17.1203 13.4515C17.2445 13.5046 17.3481 13.5964 17.4157 13.7133C17.4833 13.8302 17.5112 13.9658 17.4953 14.0999C17.3739 15.007 16.9273 15.8391 16.2383 16.4415C15.5494 17.0439 14.6652 17.3756 13.75 17.3749C10.9321 17.3749 8.22957 16.2555 6.23699 14.2629C4.24442 12.2704 3.125 9.56785 3.125 6.74992C3.1243 5.83477 3.456 4.95051 4.05841 4.26159C4.66082 3.57267 5.49293 3.12599 6.4 3.00461C6.53409 2.98868 6.66973 3.0166 6.78662 3.0842C6.90351 3.1518 6.99537 3.25544 7.04844 3.37961L8.69922 7.06711C8.73978 7.16182 8.7563 7.26509 8.7473 7.36772C8.7383 7.47036 8.70407 7.56918 8.64766 7.65539L6.97813 9.64055C6.9189 9.72991 6.88388 9.83311 6.87649 9.94006C6.86909 10.047 6.88958 10.154 6.93594 10.2507C7.58203 11.5734 8.94922 12.9241 10.2758 13.564C10.373 13.6101 10.4805 13.6302 10.5878 13.6221C10.695 13.614 10.7983 13.5781 10.8875 13.5179L12.843 11.8546Z" stroke="#5E5D5D" stroke-width="1.5" stroke-linecap="round" stroke-linejoin="round"/>
</g>
<defs>
<clipPath id="clip0_2053_16613">
<rect width="20" height="20" fill="white" transform="translate(0 0.5)"/>
</clipPath>
</defs>
</svg>
