<svg width="19" height="27" viewBox="0 0 19 27" fill="none" xmlns="http://www.w3.org/2000/svg">
<g id="Plant">
<g id="Group">
<g id="Group_2">
<g id="Group_3">
<g id="Group_4">
<g id="Group_5">
<path id="Vector" d="M8.61414 11.2583C7.92114 12.2477 6.57474 11.9201 5.95014 11.3165C5.32554 10.7123 5.06153 9.83686 4.82153 9.00226C4.27253 7.09486 3.71935 5.09387 4.12735 3.15107C4.24975 2.57027 4.46635 1.99127 4.87495 1.56047C5.28295 1.12967 5.91053 0.873464 6.48413 1.02466C7.16333 1.20406 7.58514 1.86887 7.88994 2.50187C8.78634 4.36127 9.26094 6.42286 9.26814 8.48746C9.27174 9.45166 9.15774 10.4627 8.61414 11.2583Z" fill="#00B562"/>
</g>
</g>
</g>
</g>
<g id="Group_6" opacity="0.2">
<g id="Group_7">
<g id="Group_8">
<g id="Group_9">
<path id="Vector_2" d="M8.61414 11.2583C7.92114 12.2477 6.57474 11.9201 5.95014 11.3165C5.32554 10.7123 5.06153 9.83686 4.82153 9.00226C4.27253 7.09486 3.71935 5.09387 4.12735 3.15107C4.24975 2.57027 4.46635 1.99127 4.87495 1.56047C5.28295 1.12967 5.91053 0.873464 6.48413 1.02466C7.16333 1.20406 7.58514 1.86887 7.88994 2.50187C8.78634 4.36127 9.26094 6.42286 9.26814 8.48746C9.27174 9.45166 9.15774 10.4627 8.61414 11.2583Z" fill="#202122"/>
</g>
</g>
</g>
</g>
<g id="Group_10">
<g id="Group_11">
<g id="Group_12">
<g id="Group_13">
<path id="Vector_3" d="M6.0189 16.2697C4.8855 15.6853 3.55169 15.6091 2.29349 15.8167C1.61789 15.9283 0.912898 16.1305 0.453298 16.6381C-0.00630218 17.1457 -0.09391 18.0391 0.43409 18.4753C0.74849 18.7351 1.18708 18.7747 1.59448 18.7699C2.57908 18.7585 3.67169 18.5851 4.45889 19.1779C4.90769 19.5157 5.20649 20.0779 5.74349 20.2441C6.26849 20.4067 6.86129 20.0971 7.13969 19.6231C7.41809 19.1491 7.42709 18.5569 7.29749 18.0229C7.29749 18.0229 7.1607 16.8589 6.0189 16.2697Z" fill="#00B562"/>
</g>
</g>
</g>
</g>
<g id="Group_14">
<g id="Group_15">
<g id="Group_16">
<g id="Group_17">
<path id="Vector_4" d="M10.5172 12.6788C9.76484 11.786 9.62205 10.484 9.95685 9.36498C10.2916 8.24658 11.0476 7.29499 11.9194 6.51799C12.9412 5.60719 14.1424 4.89859 15.4342 4.44439C15.9424 4.26559 16.4783 4.12459 17.0146 4.17559C17.5511 4.22659 18.091 4.50078 18.3412 4.97838C18.7108 5.68398 18.3562 6.53959 17.9728 7.23739C17.2972 8.46739 16.5244 9.64338 15.6646 10.7528C14.9728 11.645 14.1802 12.5246 13.126 12.9278C12.0718 13.331 10.9762 13.2836 10.417 12.5522" fill="#00B562"/>
</g>
</g>
</g>
</g>
<g id="Group_18">
<g id="Group_19">
<g id="Group_20">
<g id="Group_21">
<g id="Group_22">
<path id="Vector_5" d="M8.66165 26.1872C8.64845 26.1878 8.62744 26.0276 8.59864 25.7378C8.56684 25.4102 8.52664 24.9998 8.47924 24.5108C8.42224 23.9942 8.34664 23.3798 8.20324 22.7108C8.06044 22.043 7.83664 21.32 7.54924 20.5862C7.25164 19.8566 6.88863 19.1942 6.46443 18.6638C6.04323 18.131 5.55365 17.7458 5.09285 17.5238C4.63385 17.297 4.22224 17.2052 3.93784 17.1644C3.65104 17.135 3.49023 17.1122 3.49023 17.0996C3.49023 17.087 3.65104 17.0846 3.94564 17.0924C4.23784 17.1116 4.66625 17.186 5.14985 17.4056C5.63525 17.621 6.15484 18.0122 6.59644 18.5558C7.04164 19.097 7.41783 19.7744 7.72083 20.5166C8.01303 21.263 8.23384 21.9938 8.37064 22.676C8.50684 23.357 8.56925 23.978 8.61005 24.4988C8.64905 25.0202 8.66344 25.442 8.67064 25.7336C8.67784 26.0246 8.67425 26.186 8.66165 26.1872Z" fill="#242424"/>
</g>
</g>
</g>
</g>
</g>
<g id="Group_23">
<g id="Group_24">
<g id="Group_25">
<g id="Group_26">
<g id="Group_27">
<path id="Vector_6" d="M8.57716 25.2425C8.57056 25.2419 8.56697 25.1705 8.56517 25.0337C8.56577 24.8771 8.56577 24.6797 8.56697 24.4367C8.56877 23.9189 8.56816 23.1695 8.54056 22.2443C8.49496 20.3939 8.33537 17.8391 8.02757 15.0311C7.71737 12.2225 7.30696 9.69587 6.93196 7.88267C6.84316 7.42847 6.75438 7.01927 6.67038 6.66167C6.59058 6.30287 6.52216 5.99326 6.45616 5.74306C6.39916 5.50726 6.35358 5.31528 6.31638 5.16288C6.28638 5.02968 6.27378 4.95887 6.27978 4.95707C6.28578 4.95527 6.31098 5.02248 6.35238 5.15268C6.39798 5.30268 6.45498 5.49226 6.52578 5.72446C6.60258 5.97226 6.68118 6.28008 6.77118 6.63708C6.86478 6.99348 6.96317 7.40148 7.06037 7.85508C7.46897 9.66528 7.90158 12.1955 8.21178 15.0101C8.52018 17.8241 8.65937 20.3861 8.67137 22.2413C8.68217 23.1689 8.66296 23.9195 8.63896 24.4379C8.62396 24.6803 8.61198 24.8777 8.60238 25.0343C8.59218 25.1711 8.58376 25.2425 8.57716 25.2425Z" fill="#242424"/>
</g>
</g>
</g>
</g>
</g>
<g id="Group_28">
<g id="Group_29">
<g id="Group_30">
<g id="Group_31">
<g id="Group_32">
<path id="Vector_7" d="M8.56403 20.3007C8.55143 20.3001 8.55324 20.0787 8.56824 19.6773C8.59104 19.2765 8.64624 18.6975 8.75904 17.9889C8.87844 17.2815 9.04584 16.4415 9.30804 15.5283C9.55764 14.6121 9.90084 13.6233 10.337 12.6171C11.1902 10.5927 12.35 8.93732 13.3586 7.91252C13.595 7.64072 13.8584 7.44453 14.0696 7.25193C14.1788 7.15953 14.2748 7.06772 14.3732 6.99512C14.4722 6.92732 14.564 6.86373 14.6492 6.80493C14.981 6.57813 15.167 6.45813 15.1736 6.46893C15.2036 6.50913 14.4302 6.96452 13.4534 8.00312C12.4808 9.03992 11.354 10.6833 10.5074 12.6909C10.0748 13.6881 9.72984 14.6685 9.47244 15.5751C9.20244 16.4793 9.02364 17.3109 8.88804 18.0111C8.75964 18.7131 8.68464 19.2861 8.64024 19.6833C8.60364 20.0805 8.57723 20.3013 8.56403 20.3007Z" fill="#242424"/>
</g>
</g>
</g>
</g>
</g>
</g>
</g>
</svg>
