<svg width="16" height="16" viewBox="0 0 16 16" fill="none" xmlns="http://www.w3.org/2000/svg">
<g id="Star" clip-path="url(#clip0_3542_2075)">
<path id="Vector" d="M8.45853 1.80626L9.91041 5.26626C9.94555 5.35023 10.0029 5.42301 10.0764 5.47676C10.1499 5.53051 10.2366 5.56318 10.3273 5.57126L14.0435 5.89251C14.1421 5.90043 14.2362 5.93743 14.3137 5.99882C14.3913 6.0602 14.4489 6.14322 14.4793 6.23736C14.5097 6.3315 14.5115 6.43254 14.4844 6.52769C14.4573 6.62284 14.4027 6.70782 14.3273 6.77188L11.5079 9.23126C11.4394 9.29146 11.3884 9.36909 11.3605 9.45591C11.3325 9.54274 11.3286 9.63551 11.3492 9.72438L12.1942 13.3831C12.2165 13.4787 12.2102 13.5787 12.1761 13.6707C12.142 13.7627 12.0815 13.8427 12.0023 13.9006C11.9231 13.9585 11.8286 13.9918 11.7305 13.9964C11.6325 14.0009 11.5353 13.9766 11.451 13.9263L8.25728 11.9888C8.17968 11.9416 8.09061 11.9166 7.99978 11.9166C7.90896 11.9166 7.81989 11.9416 7.74228 11.9888L4.54853 13.9263C4.46427 13.9766 4.36706 14.0009 4.26903 13.9964C4.17101 13.9918 4.07649 13.9585 3.99726 13.9006C3.91803 13.8427 3.85759 13.7627 3.82348 13.6707C3.78936 13.5787 3.78308 13.4787 3.80541 13.3831L4.65041 9.72438C4.67095 9.63551 4.66704 9.54274 4.63908 9.45591C4.61113 9.36909 4.56019 9.29146 4.49166 9.23126L1.67228 6.77188C1.59691 6.70782 1.54223 6.62284 1.51517 6.52769C1.48811 6.43254 1.48988 6.3315 1.52025 6.23736C1.55063 6.14322 1.60825 6.0602 1.68582 5.99882C1.76339 5.93743 1.85743 5.90043 1.95603 5.89251L5.67228 5.57126C5.76295 5.56318 5.84969 5.53051 5.92316 5.47676C5.99662 5.42301 6.05402 5.35023 6.08916 5.26626L7.54103 1.80626C7.57981 1.7168 7.6439 1.64064 7.72541 1.58714C7.80691 1.53363 7.90229 1.50513 7.99978 1.50513C8.09728 1.50513 8.19266 1.53363 8.27416 1.58714C8.35567 1.64064 8.41976 1.7168 8.45853 1.80626Z" stroke="#FF9500" stroke-linecap="round" stroke-linejoin="round"/>
</g>
<defs>
<clipPath id="clip0_3542_2075">
<rect width="16" height="16" fill="white"/>
</clipPath>
</defs>
</svg>
