<svg width="20" height="21" viewBox="0 0 20 21" fill="none" xmlns="http://www.w3.org/2000/svg">
<g id="Outline / Settings, Fine Tuning / Settings">
<g id="Vector">
<path fill-rule="evenodd" clip-rule="evenodd" d="M9.99992 7.37484C8.27403 7.37484 6.87492 8.77395 6.87492 10.4998C6.87492 12.2257 8.27403 13.6248 9.99992 13.6248C11.7258 13.6248 13.1249 12.2257 13.1249 10.4998C13.1249 8.77395 11.7258 7.37484 9.99992 7.37484ZM8.12492 10.4998C8.12492 9.4643 8.96439 8.62484 9.99992 8.62484C11.0355 8.62484 11.8749 9.4643 11.8749 10.4998C11.8749 11.5354 11.0355 12.3748 9.99992 12.3748C8.96439 12.3748 8.12492 11.5354 8.12492 10.4998Z" fill="#5E5D5D"/>
<path fill-rule="evenodd" clip-rule="evenodd" d="M9.97887 1.5415C9.60849 1.5415 9.29929 1.54149 9.04544 1.55881C8.78119 1.57684 8.53159 1.61571 8.2896 1.71595C7.72807 1.94854 7.28194 2.39467 7.04935 2.95619C6.92827 3.24852 6.89547 3.5566 6.88295 3.89147C6.87289 4.16066 6.73703 4.38526 6.53654 4.50101C6.33606 4.61676 6.07363 4.62211 5.83547 4.49624C5.5392 4.33964 5.25599 4.214 4.94228 4.1727C4.33969 4.09337 3.73027 4.25666 3.24808 4.62666C3.04028 4.78611 2.88181 4.98284 2.73407 5.20267C2.59215 5.41385 2.43756 5.68162 2.25237 6.00239L2.23132 6.03884C2.04613 6.3596 1.89152 6.62737 1.7796 6.85586C1.66309 7.09373 1.57195 7.32933 1.53776 7.58901C1.45843 8.1916 1.62172 8.80102 1.99172 9.28321C2.18432 9.53421 2.43469 9.71664 2.71839 9.8949C2.94654 10.0383 3.07315 10.2683 3.07314 10.4998C3.07313 10.7314 2.94652 10.9613 2.7184 11.1047C2.43466 11.2829 2.18426 11.4654 1.99164 11.7164C1.62164 12.1986 1.45835 12.808 1.53768 13.4106C1.57187 13.6703 1.66301 13.9059 1.77952 14.1438C1.89144 14.3722 2.04604 14.64 2.23123 14.9608L2.25229 14.9972C2.43747 15.318 2.59207 15.5858 2.73399 15.7969C2.88173 16.0168 3.0402 16.2135 3.248 16.373C3.73019 16.743 4.33961 16.9063 4.9422 16.8269C5.25589 16.7856 5.53908 16.66 5.83534 16.5034C6.07353 16.3775 6.33599 16.3829 6.53651 16.4986C6.73702 16.6144 6.87288 16.839 6.88295 17.1082C6.89548 17.4431 6.92827 17.7512 7.04935 18.0435C7.28194 18.605 7.72807 19.0511 8.2896 19.2837C8.53159 19.384 8.78119 19.4228 9.04544 19.4409C9.29928 19.4582 9.60848 19.4582 9.97886 19.4582H10.021C10.3913 19.4582 10.7005 19.4582 10.9544 19.4409C11.2186 19.4228 11.4682 19.384 11.7102 19.2837C12.2718 19.0511 12.7179 18.605 12.9505 18.0435C13.0716 17.7511 13.1044 17.4431 13.1169 17.1082C13.1269 16.839 13.2628 16.6144 13.4633 16.4986C13.6638 16.3828 13.9262 16.3775 14.1644 16.5034C14.4607 16.6599 14.7439 16.7856 15.0575 16.8269C15.6601 16.9062 16.2696 16.7429 16.7517 16.3729C16.9595 16.2135 17.118 16.0167 17.2658 15.7969C17.4077 15.5857 17.5623 15.318 17.7474 14.9972L17.7685 14.9607C17.9537 14.64 18.1083 14.3722 18.2202 14.1437C18.3367 13.9058 18.4279 13.6702 18.4621 13.4105C18.5414 12.808 18.3781 12.1985 18.0081 11.7163C17.8155 11.4653 17.5651 11.2829 17.2814 11.1046C17.0533 10.9613 16.9267 10.7313 16.9267 10.4998C16.9267 10.2683 17.0533 10.0383 17.2814 9.89504C17.5651 9.71675 17.8156 9.53431 18.0082 9.28327C18.3782 8.80108 18.5415 8.19166 18.4621 7.58907C18.428 7.32938 18.3368 7.09378 18.2203 6.85592C18.1084 6.62744 17.9538 6.35969 17.7686 6.03897L17.7476 6.00248C17.5624 5.68172 17.4078 5.41391 17.2658 5.20273C17.1181 4.9829 16.9596 4.78617 16.7518 4.62672C16.2696 4.25672 15.6602 4.09342 15.0576 4.17276C14.7439 4.21405 14.4607 4.33969 14.1645 4.49627C13.9263 4.62216 13.6638 4.61681 13.4633 4.50104C13.2628 4.38527 13.1269 4.16065 13.1169 3.89143C13.1043 3.55657 13.0716 3.2485 12.9505 2.95619C12.7179 2.39467 12.2718 1.94854 11.7102 1.71595C11.4682 1.61571 11.2186 1.57684 10.9544 1.55881C10.7005 1.54149 10.3913 1.5415 10.021 1.5415H9.97887ZM8.76795 2.8708C8.83224 2.84416 8.92992 2.8196 9.13053 2.80591C9.33675 2.79184 9.60308 2.7915 9.99991 2.7915C10.3967 2.7915 10.6631 2.79184 10.8693 2.80591C11.0699 2.8196 11.1676 2.84416 11.2319 2.8708C11.4871 2.97652 11.6899 3.17931 11.7956 3.43454C11.829 3.51505 11.8566 3.64056 11.8677 3.93815C11.8924 4.59846 12.2333 5.23424 12.8383 5.58357C13.4434 5.9329 14.1644 5.91017 14.7486 5.6014C15.0119 5.46225 15.1344 5.42344 15.2208 5.41206C15.4947 5.376 15.7717 5.45023 15.9909 5.61841C16.0461 5.66077 16.1162 5.73308 16.2284 5.89997C16.3437 6.07153 16.4771 6.302 16.6755 6.64567C16.8739 6.98934 17.0068 7.22016 17.0977 7.40578C17.1862 7.58636 17.2138 7.68323 17.2228 7.75223C17.2589 8.02613 17.1847 8.30314 17.0165 8.52232C16.9634 8.59146 16.8686 8.67816 16.6164 8.83662C16.0569 9.18813 15.6767 9.80113 15.6767 10.4997C15.6767 11.1984 16.0568 11.8115 16.6164 12.163C16.8685 12.3215 16.9634 12.4082 17.0164 12.4773C17.1846 12.6965 17.2588 12.9735 17.2228 13.2474C17.2137 13.3164 17.1861 13.4133 17.0977 13.5938C17.0067 13.7795 16.8739 14.0103 16.6754 14.3539C16.477 14.6976 16.3436 14.9281 16.2283 15.0996C16.1161 15.2665 16.046 15.3388 15.9908 15.3812C15.7716 15.5494 15.4946 15.6236 15.2207 15.5876C15.1343 15.5762 15.0118 15.5374 14.7485 15.3982C14.1643 15.0895 13.4433 15.0667 12.8382 15.4161C12.2332 15.7655 11.8924 16.4012 11.8677 17.0615C11.8566 17.3591 11.829 17.4846 11.7956 17.5651C11.6899 17.8204 11.4871 18.0232 11.2319 18.1289C11.1676 18.1555 11.0699 18.1801 10.8693 18.1938C10.6631 18.2078 10.3967 18.2082 9.99991 18.2082C9.60308 18.2082 9.33675 18.2078 9.13053 18.1938C8.92992 18.1801 8.83224 18.1555 8.76795 18.1289C8.51271 18.0232 8.30993 17.8204 8.2042 17.5651C8.17086 17.4846 8.14321 17.3591 8.13208 17.0615C8.10738 16.4012 7.76656 15.7654 7.1615 15.4161C6.55645 15.0668 5.83543 15.0895 5.25124 15.3983C4.98796 15.5374 4.86544 15.5762 4.77904 15.5876C4.50514 15.6237 4.22813 15.5494 4.00895 15.3813C3.95374 15.3389 3.88362 15.2666 3.77147 15.0997C3.65617 14.9282 3.52272 14.6977 3.3243 14.354C3.12588 14.0103 2.99301 13.7795 2.90209 13.5939C2.81364 13.4133 2.78607 13.3164 2.77699 13.2474C2.74093 12.9735 2.81515 12.6965 2.98333 12.4774C3.03638 12.4082 3.13126 12.3215 3.38342 12.1631C3.94291 11.8116 4.3231 11.1985 4.32314 10.4999C4.32318 9.80117 3.94296 9.18806 3.38343 8.83649C3.13132 8.67808 3.03646 8.59139 2.98341 8.52226C2.81523 8.30308 2.74101 8.02607 2.77707 7.75217C2.78615 7.68317 2.81372 7.5863 2.90217 7.40573C2.99309 7.2201 3.12596 6.98928 3.32438 6.64561C3.5228 6.30194 3.65626 6.07147 3.77155 5.89991C3.88371 5.73303 3.95382 5.66071 4.00903 5.61835C4.22821 5.45017 4.50522 5.37594 4.77912 5.412C4.86553 5.42338 4.98805 5.4622 5.25136 5.60137C5.83553 5.91013 6.55651 5.93285 7.16154 5.58355C7.76657 5.23424 8.10739 4.59848 8.13208 3.93819C8.14321 3.64058 8.17085 3.51506 8.2042 3.43454C8.30993 3.17931 8.51271 2.97652 8.76795 2.8708Z" fill="#5E5D5D"/>
</g>
</g>
</svg>
