<svg width="20" height="20" viewBox="0 0 20 20" fill="none" xmlns="http://www.w3.org/2000/svg">
<g id="Soccer_Ball">
<g id="Group">
<g id="Group_2">
<path id="Vector" d="M18.4496 11.4941C19.2021 6.8984 16.0866 2.56276 11.4908 1.81022C6.89509 1.05769 2.55945 4.17324 1.80691 8.76899C1.05438 13.3647 4.16993 17.7004 8.76568 18.4529C13.3614 19.2054 17.6971 16.0899 18.4496 11.4941Z" fill="#00B562"/>
</g>
<g id="Group_3" opacity="0.5">
<g id="Group_4">
<path id="Vector_2" d="M4.97173 15.0693C4.17133 15.0795 3.51433 15.1281 3.52453 15.1785C3.51553 15.2277 4.17313 15.2601 4.97353 15.2499C5.77573 15.2397 6.42613 15.1911 6.42553 15.1413C6.42493 15.0915 5.77393 15.0591 4.97173 15.0693Z" fill="#202122"/>
</g>
<g id="Group_5">
<path id="Vector_3" d="M16.986 11.5508C16.7568 11.2412 16.3116 10.6934 15.7806 10.073C15.0384 9.20539 14.4072 8.52258 14.2944 8.46018L14.7114 5.82679C14.9208 5.78959 15.3036 5.68939 15.7422 5.55139C16.3896 5.34799 16.902 5.14459 16.887 5.09719C16.872 5.04979 16.335 5.17579 15.6876 5.37919C15.2832 5.50639 14.931 5.63298 14.7276 5.72238L14.7318 5.69719L11.8254 4.21638L11.8026 4.23918C11.6688 4.02138 11.4942 3.76578 11.2806 3.50598C10.8978 3.03498 10.509 2.69058 10.293 2.53218L11.1096 1.75999C11.1096 1.75999 10.5504 1.59799 9.12183 1.75999C7.72323 1.91839 7.76164 2.50818 7.76164 2.50818L10.2042 2.55978C10.3662 2.74818 10.7442 3.13279 11.1402 3.62059C11.3574 3.88519 11.5446 4.13779 11.6958 4.34599L9.54124 6.50059C9.24604 6.50299 8.68984 6.54798 8.05024 6.62898C7.10824 6.74658 6.35104 6.88639 6.35764 6.93619C6.36424 6.98599 7.13163 6.92599 8.07243 6.80839C8.71383 6.72739 9.26224 6.64458 9.55084 6.58758L10.9518 9.33678C10.8942 9.42078 10.8312 9.51618 10.7574 9.63198C10.5204 10.0058 10.2132 10.5356 9.90844 11.1392C9.62224 11.7062 9.39244 12.2312 9.23284 12.6356L6.99424 12.4034C6.88624 12.1466 6.76084 11.8574 6.62104 11.5478C6.31444 10.8686 6.03363 10.2926 5.87223 10.0034L6.35764 6.93619L4.30923 5.30778C4.52103 5.18958 5.23504 4.65799 6.06964 3.99319C7.04824 3.21319 7.81563 2.54958 7.78503 2.51058C7.75383 2.47158 6.93604 3.07219 5.95744 3.85219C5.11384 4.52419 4.42983 5.10799 4.27623 5.28199L4.17663 5.20278L2.13184 7.27339L3.16504 10.2782C3.06424 10.4876 2.86983 11.0228 2.63883 11.6504C2.33943 12.4688 2.09223 13.1324 2.13903 13.1522C2.18343 13.172 2.50683 12.5366 2.80863 11.7122C3.04324 11.0738 3.19384 10.5182 3.22864 10.292L5.81584 10.0976C5.93464 10.4234 6.16984 10.9856 6.45724 11.6228C6.59644 11.9312 6.72904 12.2156 6.84964 12.4658L6.42544 15.1436L8.92804 17.1326L8.93344 17.1284C9.00064 17.2652 9.21003 17.564 9.48003 17.8994C9.83283 18.3374 10.1502 18.6674 10.1892 18.6362C10.2282 18.605 9.97384 18.2246 9.62104 17.786C9.35284 17.4524 9.10624 17.1842 8.98624 17.0876L10.911 15.6086L9.63364 12.6782L9.37444 12.6512C9.55804 12.2648 9.79504 11.7662 10.071 11.2214C10.4502 10.4672 10.8084 9.81618 11.0112 9.42858L14.2218 8.92038L14.2884 8.49858C14.3946 8.68518 14.9496 9.38118 15.6432 10.1918C16.1496 10.784 16.6062 11.2916 16.8816 11.5754L16.839 11.585L14.9748 14.5898L14.9946 14.6192C14.6076 14.684 13.9032 14.8334 13.0926 15.0248C12.4854 15.1682 11.9376 15.3062 11.5428 15.4124C11.1486 15.5186 10.9056 15.5942 10.911 15.6086C10.92 15.6764 11.9202 15.4862 13.1334 15.2006C13.968 15.0038 14.6808 14.8136 15.0462 14.6978L16.02 16.151C17.4978 14.9492 18.378 13.1624 18.4308 11.2586L18.4314 11.2268L16.986 11.5508Z" fill="#202122"/>
</g>
</g>
</g>
</g>
</svg>
