<svg width="16" height="16" viewBox="0 0 16 16" fill="none" xmlns="http://www.w3.org/2000/svg">
<g id="Star" clip-path="url(#clip0_3542_394)">
<path id="Vector" d="M14.6359 7.08625H14.633L14.6154 7.10166L11.7966 9.56166L11.7684 9.58629L11.7768 9.62279L12.6212 13.2853L12.6212 13.2855C12.6631 13.4649 12.6512 13.6528 12.5869 13.8256C12.5226 13.9983 12.4088 14.1483 12.2597 14.2567C12.1106 14.3651 11.9329 14.4272 11.7488 14.4351C11.5646 14.4431 11.3822 14.3966 11.2243 14.3015L8.03012 12.3641L7.99767 12.3444L7.96525 12.3641L4.77795 14.3015C4.77792 14.3015 4.77789 14.3015 4.77786 14.3015C4.62001 14.3966 4.43763 14.4431 4.25352 14.4351C4.06937 14.4272 3.89166 14.3651 3.74259 14.2567C3.59353 14.1483 3.47974 13.9983 3.41544 13.8256C3.35114 13.6528 3.33918 13.4649 3.38107 13.2855L3.38111 13.2853L4.22424 9.62653L4.23264 9.59006L4.20446 9.56543L1.38509 7.10168L1.38478 7.10142C1.24498 6.98085 1.14389 6.82168 1.09419 6.64389C1.04448 6.46609 1.04838 6.27758 1.10539 6.10199C1.16239 5.9264 1.26997 5.77155 1.41464 5.65686C1.5593 5.54217 1.7346 5.47274 1.91857 5.45728L1.91873 5.45726L5.63498 5.13539L5.67262 5.13213L5.68722 5.09729L7.13785 1.63729L7.13789 1.63719C7.20889 1.46702 7.32866 1.32166 7.48211 1.21942C7.63555 1.11718 7.81582 1.06262 8.00021 1.06262C8.1846 1.06262 8.36487 1.11718 8.51831 1.21942C8.67176 1.32166 8.79152 1.46702 8.86253 1.63719L8.8626 1.63735L10.3176 5.09735L10.3322 5.13213L10.3698 5.13539L14.0848 5.45726L14.085 5.45728C14.2689 5.47274 14.4442 5.54217 14.5889 5.65686C14.7336 5.77155 14.8411 5.9264 14.8982 6.10199C14.9552 6.27758 14.9591 6.46609 14.9094 6.64389C14.8617 6.81432 14.7668 6.96764 14.6359 7.08625Z" fill="#FF9500" stroke="#FF9500" stroke-width="0.125"/>
</g>
<defs>
<clipPath id="clip0_3542_394">
<rect width="16" height="16" fill="white"/>
</clipPath>
</defs>
</svg>
