<svg width="57" height="56" viewBox="0 0 57 56" fill="none" xmlns="http://www.w3.org/2000/svg">
<g id="Outline / Money / Ticket">
<path id="Vector" d="M33.1665 25.6667C33.1665 24.378 34.2112 23.3333 35.4998 23.3333C36.7885 23.3333 37.8332 24.378 37.8332 25.6667V30.3333C37.8332 31.622 36.7885 32.6667 35.4998 32.6667C34.2112 32.6667 33.1665 31.622 33.1665 30.3333V25.6667Z" stroke="#F5F5F5" stroke-width="2.5"/>
<path id="Vector_2" d="M33.1849 44.3401L31.9349 44.3365V44.3365L33.1849 44.3401ZM33.1985 39.6667L34.4485 39.6703V39.6667H33.1985ZM7.84885 43.933L6.96607 44.818H6.96607L7.84885 43.933ZM7.84885 12.067L6.96607 11.182H6.96607L7.84885 12.067ZM7.39036 23.9252L6.7809 25.0166L6.7809 25.0166L7.39036 23.9252ZM5.19118 20.9754L3.94229 20.9229L5.19118 20.9754ZM7.39036 32.0748L6.7809 30.9834H6.7809L7.39036 32.0748ZM5.19118 35.0246L6.44008 34.9721L5.19118 35.0246ZM49.6093 23.9252L50.2188 25.0166L49.6093 23.9252ZM51.8085 20.9754L53.0574 20.9229V20.9229L51.8085 20.9754ZM49.1508 12.067L50.0336 11.182V11.182L49.1508 12.067ZM49.6093 32.0748L48.9999 33.1662L49.6093 32.0748ZM51.8085 35.0246L53.0574 35.0771V35.0771L51.8085 35.0246ZM49.1508 43.933L50.0336 44.818L49.1508 43.933ZM51.7017 33.4413L52.7924 32.8307L52.7924 32.8307L51.7017 33.4413ZM51.7017 22.5587L52.7924 23.1693L52.7924 23.1693L51.7017 22.5587ZM5.29797 33.4413L4.20724 32.8307H4.20724L5.29797 33.4413ZM5.29797 22.5587L6.38871 21.9482L6.38871 21.9481L5.29797 22.5587ZM33.1985 16.3333L34.4485 16.3333L34.4485 16.3297L33.1985 16.3333ZM33.1815 10.4966L31.9315 10.5002V10.5002L33.1815 10.4966ZM39.0646 9.37744L39.0969 8.12785L39.0646 9.37744ZM40.245 46.583L40.2977 47.8319L40.245 46.583ZM32.8386 46.3262L31.956 45.441L31.956 45.441L32.8386 46.3262ZM34.4349 44.3437L34.4485 39.6703L31.9485 39.663L31.9349 44.3365L34.4349 44.3437ZM35.5376 38.5833C36.1421 38.5833 36.6267 39.0713 36.6267 39.6667H39.1267C39.1267 37.6847 37.5169 36.0833 35.5376 36.0833V38.5833ZM35.5376 36.0833C33.5583 36.0833 31.9485 37.6847 31.9485 39.6667H34.4485C34.4485 39.0713 34.9331 38.5833 35.5376 38.5833V36.0833ZM23.8215 10.5833H32.0119V8.08333H23.8215V10.5833ZM30.8516 45.4167H23.8215V47.9167H30.8516V45.4167ZM23.8215 45.4167C19.3756 45.4167 16.1665 45.414 13.721 45.086C11.3111 44.7629 9.83079 44.1444 8.73164 43.048L6.96607 44.818C8.60739 46.4552 10.7027 47.2036 13.3887 47.5639C16.039 47.9193 19.4461 47.9167 23.8215 47.9167V45.4167ZM23.8215 8.08333C19.4461 8.08333 16.039 8.08069 13.3887 8.43613C10.7027 8.79636 8.60739 9.54478 6.96607 11.182L8.73164 12.952C9.83079 11.8556 11.3111 11.2371 13.721 10.9139C16.1665 10.586 19.3756 10.5833 23.8215 10.5833V8.08333ZM6.7809 25.0166C7.83226 25.6037 8.53666 26.7214 8.53666 28H11.0367C11.0367 25.7771 9.80808 23.8436 7.99982 22.8338L6.7809 25.0166ZM6.44008 21.0279C6.62244 16.6905 7.21288 14.467 8.73164 12.952L6.96607 11.182C4.71104 13.4314 4.12605 16.552 3.94229 20.9229L6.44008 21.0279ZM8.53666 28C8.53666 29.2786 7.83226 30.3963 6.7809 30.9834L7.99982 33.1662C9.80808 32.1563 11.0367 30.2229 11.0367 28H8.53666ZM3.94229 35.0771C4.12605 39.448 4.71104 42.5686 6.96607 44.818L8.73164 43.048C7.21288 41.533 6.62244 39.3095 6.44008 34.9721L3.94229 35.0771ZM48.463 28C48.463 26.7214 49.1674 25.6037 50.2188 25.0166L48.9999 22.8338C47.1916 23.8436 45.963 25.7771 45.963 28H48.463ZM53.0574 20.9229C52.8736 16.552 52.2886 13.4314 50.0336 11.182L48.268 12.952C49.7868 14.467 50.3772 16.6905 50.5596 21.0279L53.0574 20.9229ZM50.2188 30.9834C49.1674 30.3963 48.463 29.2786 48.463 28H45.963C45.963 30.2229 47.1916 32.1563 48.9999 33.1662L50.2188 30.9834ZM50.5596 34.9721C50.3772 39.3095 49.7868 41.533 48.268 43.048L50.0336 44.818C52.2886 42.5686 52.8736 39.448 53.0574 35.0771L50.5596 34.9721ZM48.9999 33.1662C49.657 33.5331 50.1042 33.7833 50.4109 33.9769C50.5626 34.0726 50.6471 34.1341 50.6904 34.17C50.744 34.2144 50.6799 34.175 50.611 34.0519L52.7924 32.8307C52.6429 32.5635 52.4379 32.3712 52.2852 32.2447C52.1222 32.1097 51.935 31.9824 51.7447 31.8624C51.3675 31.6244 50.849 31.3354 50.2188 30.9834L48.9999 33.1662ZM53.0574 35.0771C53.0746 34.6679 53.092 34.2806 53.078 33.9622C53.0638 33.6404 53.015 33.2282 52.7924 32.8307L50.611 34.0518C50.5497 33.9424 50.5724 33.8901 50.5804 34.0721C50.5885 34.2574 50.5787 34.5177 50.5596 34.9721L53.0574 35.0771ZM50.2188 25.0166C50.849 24.6646 51.3675 24.3756 51.7447 24.1376C51.935 24.0176 52.1222 23.8903 52.2852 23.7553C52.4379 23.6288 52.6429 23.4365 52.7924 23.1693L50.611 21.9481C50.6799 21.825 50.744 21.7856 50.6904 21.83C50.6471 21.8659 50.5626 21.9274 50.4109 22.0231C50.1042 22.2167 49.657 22.4669 48.9999 22.8338L50.2188 25.0166ZM50.5596 21.0279C50.5787 21.4823 50.5885 21.7426 50.5804 21.9279C50.5724 22.1099 50.5497 22.0576 50.611 21.9482L52.7924 23.1693C53.015 22.7718 53.0638 22.3596 53.078 22.0378C53.092 21.7194 53.0746 21.3321 53.0574 20.9229L50.5596 21.0279ZM6.7809 30.9834C6.15063 31.3354 5.63221 31.6244 5.25494 31.8624C5.06466 31.9824 4.8775 32.1097 4.71446 32.2447C4.56181 32.3712 4.35681 32.5635 4.20724 32.8307L6.38871 34.0518C6.31976 34.175 6.25569 34.2144 6.30932 34.17C6.35256 34.1341 6.43704 34.0726 6.58876 33.9769C6.89553 33.7833 7.34268 33.5331 7.99982 33.1662L6.7809 30.9834ZM6.44008 34.9721C6.42098 34.5177 6.41114 34.2574 6.41929 34.0721C6.4273 33.8901 6.44999 33.9424 6.38871 34.0518L4.20724 32.8307C3.98471 33.2282 3.93586 33.6404 3.92171 33.9622C3.9077 34.2806 3.92509 34.6679 3.94229 35.0771L6.44008 34.9721ZM7.99982 22.8338C7.34267 22.4669 6.89552 22.2167 6.58876 22.0231C6.43703 21.9274 6.35256 21.8659 6.30932 21.83C6.25569 21.7856 6.31976 21.825 6.38871 21.9482L4.20724 23.1693C4.35681 23.4365 4.56181 23.6288 4.71446 23.7553C4.8775 23.8903 5.06465 24.0176 5.25494 24.1376C5.6322 24.3756 6.15062 24.6646 6.7809 25.0166L7.99982 22.8338ZM3.94229 20.9229C3.92509 21.3321 3.9077 21.7194 3.92171 22.0378C3.93586 22.3596 3.98471 22.7718 4.20724 23.1693L6.38871 21.9481C6.44999 22.0576 6.4273 22.1099 6.41929 21.9279C6.41114 21.7426 6.42098 21.4823 6.44008 21.0279L3.94229 20.9229ZM34.4485 16.3297L34.4315 10.493L31.9315 10.5002L31.9485 16.337L34.4485 16.3297ZM35.5376 17.4167C34.9332 17.4167 34.4485 16.9287 34.4485 16.3333H31.9485C31.9485 18.3153 33.5583 19.9167 35.5376 19.9167V17.4167ZM36.6267 16.3333C36.6267 16.9287 36.1421 17.4167 35.5376 17.4167V19.9167C37.5169 19.9167 39.1268 18.3153 39.1268 16.3333H36.6267ZM36.6267 10.5378V16.3333H39.1268V10.5378H36.6267ZM39.0324 10.627C44.1242 10.7584 46.6114 11.2994 48.268 12.952L50.0336 11.182C47.5943 8.74876 44.1198 8.2574 39.0969 8.12785L39.0324 10.627ZM39.1268 10.5378C39.1268 10.5848 39.0877 10.6284 39.0324 10.627L39.0969 8.12785C37.7368 8.09277 36.6267 9.18871 36.6267 10.5378H39.1268ZM32.0119 10.5833C31.9705 10.5833 31.9317 10.5491 31.9315 10.5002L34.4315 10.493C34.4276 9.15812 33.3426 8.08333 32.0119 8.08333V10.5833ZM40.2977 47.8319C44.6651 47.6474 47.7836 47.0624 50.0336 44.818L48.268 43.048C46.7514 44.5609 44.5257 45.1511 40.1922 45.3341L40.2977 47.8319ZM36.6267 39.6667V44.2785H39.1267V39.6667H36.6267ZM31.9349 44.3365C31.9332 44.9203 31.9296 45.2325 31.9002 45.4468C31.8757 45.6252 31.856 45.5407 31.956 45.441L33.7212 47.2113C34.1627 46.7711 34.3145 46.2421 34.377 45.7868C34.4346 45.3675 34.4334 44.857 34.4349 44.3437L31.9349 44.3365ZM30.8516 47.9167C31.3648 47.9167 31.8753 47.9193 32.2948 47.863C32.7502 47.8018 33.2797 47.6515 33.7212 47.2113L31.956 45.441C32.056 45.3413 32.1405 45.3613 31.962 45.3852C31.7476 45.414 31.4354 45.4167 30.8516 45.4167V47.9167ZM40.1922 45.3341C39.6054 45.3589 39.2969 45.369 39.0851 45.3482C38.9165 45.3316 39.0021 45.311 39.1011 45.4059L37.371 47.2106C37.8293 47.65 38.3695 47.7899 38.8406 47.8362C39.2685 47.8783 39.7848 47.8536 40.2977 47.8319L40.1922 45.3341ZM36.6267 44.2785C36.6267 44.8037 36.6239 45.3275 36.6835 45.7572C36.7485 46.2261 36.9087 46.7674 37.371 47.2106L39.1011 45.4059C39.2041 45.5047 39.1846 45.5929 39.1598 45.4139C39.1296 45.1957 39.1267 44.8768 39.1267 44.2785H36.6267Z" fill="#F5F5F5"/>
</g>
</svg>
