<svg width="21" height="20" viewBox="0 0 21 20" fill="none" xmlns="http://www.w3.org/2000/svg">
<g id="Outline / Essentional, UI / Trash Bin Minimalistic">
<g id="Vector">
<path d="M10.5003 2.29199C9.68494 2.29199 8.98958 2.81285 8.73188 3.54194C8.61685 3.86739 8.25977 4.03796 7.93433 3.92293C7.60888 3.8079 7.4383 3.45083 7.55333 3.12538C7.98203 1.91248 9.13873 1.04199 10.5003 1.04199C11.862 1.04199 13.0187 1.91248 13.4474 3.12538C13.5624 3.45083 13.3918 3.8079 13.0664 3.92293C12.7409 4.03796 12.3839 3.86739 12.2688 3.54194C12.0111 2.81285 11.3158 2.29199 10.5003 2.29199Z" fill="#00B562"/>
<path d="M2.79199 5.00033C2.79199 4.65515 3.07181 4.37533 3.41699 4.37533H17.5837C17.9289 4.37533 18.2087 4.65515 18.2087 5.00033C18.2087 5.3455 17.9289 5.62533 17.5837 5.62533H3.41699C3.07181 5.62533 2.79199 5.3455 2.79199 5.00033Z" fill="#00B562"/>
<path d="M5.42956 7.04208C5.4066 6.69767 5.10879 6.43708 4.76437 6.46004C4.41996 6.483 4.15937 6.78082 4.18233 7.12523L4.56854 12.9183C4.63979 13.9873 4.69734 14.8507 4.83231 15.5283C4.97264 16.2327 5.21133 16.8211 5.70432 17.2823C6.19732 17.7436 6.80028 17.9426 7.51249 18.0357C8.19752 18.1254 9.06289 18.1253 10.1342 18.1253H10.8666C11.9379 18.1253 12.8033 18.1254 13.4883 18.0357C14.2005 17.9426 14.8035 17.7436 15.2965 17.2823C15.7895 16.8211 16.0281 16.2327 16.1685 15.5283C16.3034 14.8508 16.361 13.9873 16.4322 12.9184L16.8184 7.12523C16.8414 6.78082 16.5808 6.483 16.2364 6.46004C15.892 6.43708 15.5942 6.69767 15.5712 7.04208L15.1879 12.7913C15.1131 13.9146 15.0597 14.6961 14.9426 15.2841C14.8289 15.8545 14.6703 16.1564 14.4425 16.3695C14.2146 16.5827 13.9028 16.7209 13.3262 16.7963C12.7317 16.8741 11.9483 16.8753 10.8226 16.8753H10.1782C9.05245 16.8753 8.26912 16.8741 7.67461 16.7963C7.09795 16.7209 6.78615 16.5827 6.5583 16.3695C6.33046 16.1564 6.17185 15.8545 6.05822 15.2841C5.94108 14.6961 5.88773 13.9146 5.81285 12.7913L5.42956 7.04208Z" fill="#00B562"/>
<path d="M8.35487 8.54509C8.69834 8.51075 9.00462 8.76134 9.03896 9.1048L9.45563 13.2715C9.48998 13.6149 9.23939 13.9212 8.89592 13.9556C8.55246 13.9899 8.24618 13.7393 8.21183 13.3958L7.79517 9.22918C7.76082 8.88572 8.01141 8.57944 8.35487 8.54509Z" fill="#00B562"/>
<path d="M13.2056 9.22918C13.24 8.88572 12.9894 8.57944 12.6459 8.54509C12.3025 8.51075 11.9962 8.76134 11.9618 9.1048L11.5452 13.2715C11.5108 13.6149 11.7614 13.9212 12.1049 13.9556C12.4483 13.9899 12.7546 13.7393 12.789 13.3958L13.2056 9.22918Z" fill="#00B562"/>
</g>
</g>
</svg>
