<svg width="134" height="31" viewBox="0 0 134 31" fill="none" xmlns="http://www.w3.org/2000/svg">
<path id="Vector" d="M118.415 30.1005H15.5134C13.5803 30.1031 11.6657 29.7243 9.87931 28.9857C8.09287 28.2472 6.46973 27.1635 5.10284 25.7966C3.73594 24.4297 2.65217 22.8065 1.91363 21.0201C1.17509 19.2336 0.796271 17.3191 0.798903 15.386C0.809494 11.4922 2.36511 7.76184 5.12404 5.01416C7.88297 2.26647 11.6196 0.726147 15.5134 0.731459H118.415C120.346 0.728831 122.259 1.10697 124.044 1.84426C125.83 2.58155 127.452 3.66354 128.818 5.02831C130.185 6.39309 131.269 8.01386 132.009 9.79798C132.749 11.5821 133.129 13.4946 133.129 15.426C133.127 17.3557 132.744 19.266 132.003 21.0478C131.262 22.8296 130.178 24.448 128.811 25.8107C127.445 27.1734 125.824 28.2535 124.04 28.9896C122.256 29.7256 120.345 30.1031 118.415 30.1005Z" fill="#00B562"/>
</svg>
