<svg width="20" height="21" viewBox="0 0 20 21" fill="none" xmlns="http://www.w3.org/2000/svg">
<g id="Outline / Money / Wallet Money">
<g id="Vector">
<path fill-rule="evenodd" clip-rule="evenodd" d="M17.4361 10.2919C17.4192 10.2917 17.397 10.2917 17.3609 10.2917H15.1921C14.006 10.2917 13.1248 11.1739 13.1248 12.1667C13.1248 13.1594 14.006 14.0417 15.1921 14.0417H17.3609C17.397 14.0417 17.4192 14.0417 17.4361 14.0415C17.4521 14.0413 17.4565 14.041 17.4565 14.041C17.6282 14.0306 17.7021 13.9147 17.7077 13.8449C17.7077 13.8449 17.7079 13.8397 17.708 13.8321C17.7082 13.8174 17.7082 13.7976 17.7082 13.7639V10.5694C17.7082 10.5508 17.7082 10.5364 17.7081 10.5248C17.7081 10.5154 17.7081 10.5078 17.708 10.5012C17.7079 10.4936 17.7077 10.4884 17.7077 10.4884C17.7021 10.4187 17.6282 10.3027 17.4565 10.2923C17.4565 10.2923 17.4523 10.292 17.4361 10.2919ZM17.3748 9.04166C17.4301 9.04164 17.4834 9.04162 17.5324 9.04461C18.2585 9.0888 18.9007 9.6365 18.9547 10.4015C18.9582 10.4517 18.9582 10.5057 18.9582 10.5558C18.9582 10.5604 18.9582 10.5649 18.9582 10.5694V13.7639C18.9582 13.7684 18.9582 13.7729 18.9582 13.7775C18.9582 13.8276 18.9582 13.8817 18.9547 13.9318C18.9007 14.6968 18.2585 15.2445 17.5324 15.2887C17.4834 15.2917 17.4301 15.2917 17.3747 15.2917C17.3702 15.2917 17.3656 15.2917 17.3609 15.2917H15.1921C13.4045 15.2917 11.8748 13.9354 11.8748 12.1667C11.8748 10.398 13.4045 9.04167 15.1921 9.04167H17.3609C17.3656 9.04167 17.3702 9.04167 17.3748 9.04166Z" fill="#5E5D5D"/>
<path d="M15.8332 12.1667C15.8332 12.6269 15.4601 13 14.9998 13C14.5396 13 14.1665 12.6269 14.1665 12.1667C14.1665 11.7064 14.5396 11.3333 14.9998 11.3333C15.4601 11.3333 15.8332 11.7064 15.8332 12.1667Z" fill="#5E5D5D"/>
<path fill-rule="evenodd" clip-rule="evenodd" d="M17.3748 9.04166C17.4301 9.04164 17.4834 9.04162 17.5324 9.04461C17.7203 9.05604 17.9025 9.10118 18.0704 9.17506C17.9813 7.83636 17.7358 6.80469 16.9655 6.03437C16.3418 5.41073 15.551 5.13397 14.574 5.00261L14.5388 4.99795C14.53 4.99147 14.5211 4.98519 14.5119 4.9791L11.399 2.91505C10.313 2.19498 8.85332 2.19498 7.76735 2.91505L4.65445 4.9791C4.64528 4.98519 4.63631 4.99147 4.62756 4.99795L4.59232 5.00261C3.6153 5.13397 2.82451 5.41073 2.20087 6.03437C1.57724 6.65801 1.30047 7.4488 1.16912 8.42581C1.04148 9.37516 1.04149 10.5882 1.0415 12.1197V12.2137C1.04149 13.7451 1.04148 14.9582 1.16912 15.9075C1.30047 16.8845 1.57724 17.6753 2.20087 18.299C2.82451 18.9226 3.6153 19.1994 4.59232 19.3307C5.54166 19.4584 6.75469 19.4583 8.28616 19.4583H10.8802C12.4116 19.4583 13.6247 19.4584 14.574 19.3307C15.551 19.1994 16.3418 18.9226 16.9655 18.299C17.7358 17.5286 17.9813 16.497 18.0704 15.1583C17.9025 15.2322 17.7203 15.2773 17.5324 15.2887C17.4834 15.2917 17.4301 15.2917 17.3747 15.2917L17.3609 15.2917H16.8064C16.7116 16.4095 16.497 16.9996 16.0816 17.4151C15.7289 17.7678 15.2459 17.9791 14.4075 18.0919C13.5511 18.207 12.4222 18.2083 10.8332 18.2083H8.33317C6.74415 18.2083 5.61527 18.207 4.75888 18.0919C3.92047 17.9791 3.43743 17.7678 3.08476 17.4151C2.73208 17.0624 2.52069 16.5794 2.40797 15.741C2.29283 14.8846 2.2915 13.7557 2.2915 12.1667C2.2915 10.5777 2.29283 9.44876 2.40797 8.59237C2.52069 7.75397 2.73208 7.27093 3.08476 6.91825C3.43743 6.56558 3.92047 6.35419 4.75888 6.24147C5.61526 6.12633 6.74415 6.125 8.33317 6.125H10.8332C12.4222 6.125 13.5511 6.12633 14.4075 6.24147C15.2459 6.35419 15.7289 6.56558 16.0816 6.91825C16.497 7.33369 16.7116 7.92379 16.8064 9.04167H17.3609L17.3748 9.04166ZM8.28616 4.875H10.8802C11.3106 4.875 11.7159 4.87499 12.0972 4.87782L10.7082 3.95684C10.0409 3.51439 9.12542 3.51439 8.45813 3.95684L7.06915 4.87782C7.45048 4.87499 7.85574 4.875 8.28616 4.875Z" fill="#5E5D5D"/>
<path d="M4.99984 8.20833C4.65466 8.20833 4.37484 8.48816 4.37484 8.83333C4.37484 9.17851 4.65466 9.45833 4.99984 9.45833H8.33317C8.67835 9.45833 8.95817 9.17851 8.95817 8.83333C8.95817 8.48816 8.67835 8.20833 8.33317 8.20833H4.99984Z" fill="#5E5D5D"/>
<path fill-rule="evenodd" clip-rule="evenodd" d="M15.8332 12.1667C15.8332 12.6269 15.4601 13 14.9998 13C14.5396 13 14.1665 12.6269 14.1665 12.1667C14.1665 11.7064 14.5396 11.3333 14.9998 11.3333C15.4601 11.3333 15.8332 11.7064 15.8332 12.1667Z" fill="#5E5D5D"/>
</g>
</g>
</svg>
